<svg width="801" height="801" viewBox="0 0 801 801" fill="none" xmlns="http://www.w3.org/2000/svg">
<rect x="0.48877" y="0.720703" width="800.085" height="800.085" fill="#D9D9D9"/>
<path fill-rule="evenodd" clip-rule="evenodd" d="M305.776 160.736H288.52C277.473 160.736 268.518 169.692 268.518 180.738V282.749C268.518 350.135 323.145 404.762 390.531 404.762H410.533C477.919 404.762 532.546 350.135 532.546 282.749V180.738C532.546 169.692 523.591 160.736 512.544 160.736H495.287C472.538 187.65 438.531 204.741 400.532 204.741C362.532 204.741 328.525 187.65 305.776 160.736Z" fill="#A7A5A5"/>
<path d="M305.776 160.736L308.831 158.154C308.071 157.255 306.954 156.736 305.776 156.736V160.736ZM495.287 160.736V156.736C494.109 156.736 492.992 157.255 492.232 158.154L495.287 160.736ZM288.52 164.737H305.776V156.736H288.52V164.737ZM272.518 180.738C272.518 171.901 279.682 164.737 288.52 164.737V156.736C275.264 156.736 264.517 167.482 264.517 180.738H272.518ZM272.518 282.749V180.738H264.517V282.749H272.518ZM390.531 400.762C325.354 400.762 272.518 347.926 272.518 282.749H264.517C264.517 352.345 320.936 408.763 390.531 408.763V400.762ZM410.533 400.762H390.531V408.763H410.533V400.762ZM528.545 282.749C528.545 347.926 475.709 400.762 410.533 400.762V408.763C480.128 408.763 536.546 352.345 536.546 282.749H528.545ZM528.545 180.738V282.749H536.546V180.738H528.545ZM512.544 164.737C521.381 164.737 528.545 171.901 528.545 180.738H536.546C536.546 167.482 525.8 156.736 512.544 156.736V164.737ZM495.287 164.737H512.544V156.736H495.287V164.737ZM492.232 158.154C470.211 184.207 437.304 200.741 400.532 200.741V208.742C439.758 208.742 474.866 191.094 498.342 163.319L492.232 158.154ZM400.532 200.741C363.759 200.741 330.852 184.207 308.831 158.154L302.721 163.319C326.197 191.094 361.305 208.742 400.532 208.742V200.741Z" fill="black"/>
</svg>
