<svg width="801" height="801" viewBox="0 0 801 801" fill="none" xmlns="http://www.w3.org/2000/svg">
<rect x="0.48877" y="0.595703" width="800.085" height="800.085" fill="#D9D9D9"/>
<path d="M405.034 387.971L402.532 385.965L400.029 387.971C387.016 398.403 370.505 404.641 352.526 404.641C331.427 404.641 308.276 396.05 290.418 382.058C272.545 368.054 260.517 349.1 260.517 328.633V317.124L272.382 269.661C280.3 241.971 291.723 216.631 307.977 198.27C324.138 180.015 345.092 168.616 372.528 168.616H432.535C459.918 168.616 480.876 180.469 497.069 199.001C513.342 217.625 524.767 242.982 532.686 269.68L544.547 317.124V328.633C544.547 349.1 532.518 368.054 514.645 382.058C496.787 396.05 473.636 404.641 452.537 404.641C434.558 404.641 418.047 398.403 405.034 387.971Z" fill="#A7A5A5" stroke="black" stroke-width="8.00085"/>
</svg>
