<svg width="801" height="801" viewBox="0 0 801 801" fill="none" xmlns="http://www.w3.org/2000/svg">
<rect x="0.48877" y="0.268555" width="800.085" height="800.085" fill="#D9D9D9"/>
<path fill-rule="evenodd" clip-rule="evenodd" d="M307.942 162.78C285.106 169.848 268.517 191.132 268.517 216.291V282.298C268.517 349.684 323.144 404.311 390.53 404.311H410.532C477.918 404.311 532.545 349.684 532.545 282.298V208.29C532.545 185.163 516.191 165.855 494.416 161.302C471.675 187.628 438.049 204.288 400.531 204.288C363.72 204.288 330.655 188.25 307.942 162.78Z" fill="#A7A5A5"/>
<path d="M307.942 162.78L310.928 160.117C309.886 158.948 308.256 158.495 306.76 158.958L307.942 162.78ZM494.416 161.302L495.235 157.386C493.812 157.088 492.339 157.586 491.389 158.687L494.416 161.302ZM272.517 216.291C272.517 192.935 287.917 173.165 309.125 166.601L306.76 158.958C282.295 166.53 264.516 189.329 264.516 216.291H272.517ZM272.517 282.298V216.291H264.516V282.298H272.517ZM390.53 400.31C325.353 400.31 272.517 347.474 272.517 282.298H264.516C264.516 351.893 320.935 408.311 390.53 408.311V400.31ZM410.532 400.31H390.53V408.311H410.532V400.31ZM528.544 282.298C528.544 347.474 475.708 400.31 410.532 400.31V408.311C480.127 408.311 536.545 351.893 536.545 282.298H528.544ZM528.544 208.29V282.298H536.545V208.29H528.544ZM493.597 165.217C513.556 169.391 528.544 187.095 528.544 208.29H536.545C536.545 183.231 518.825 162.319 495.235 157.386L493.597 165.217ZM491.389 158.687C469.376 184.171 436.838 200.288 400.531 200.288V208.289C439.26 208.289 473.975 191.085 497.443 163.917L491.389 158.687ZM400.531 200.288C364.908 200.288 332.914 184.772 310.928 160.117L304.957 165.442C328.396 191.728 362.532 208.289 400.531 208.289V200.288Z" fill="black"/>
</svg>
