<svg width="801" height="801" viewBox="0 0 801 801" fill="none" xmlns="http://www.w3.org/2000/svg">
<rect x="0.842773" y="0.390625" width="800.085" height="800.085" fill="#D9D9D9"/>
<mask id="path-2-inside-1_102_389" fill="white">
<path d="M404.885 274.416C404.885 299.824 384.288 320.421 358.88 320.421C333.473 320.421 312.875 299.824 312.875 274.416C312.875 249.008 333.473 228.411 358.88 228.411C384.288 228.411 404.885 249.008 404.885 274.416Z"/>
</mask>
<path d="M404.885 274.416C404.885 299.824 384.288 320.421 358.88 320.421C333.473 320.421 312.875 299.824 312.875 274.416C312.875 249.008 333.473 228.411 358.88 228.411C384.288 228.411 404.885 249.008 404.885 274.416Z" fill="#D9D9D9"/>
<path d="M398.885 274.416C398.885 296.51 380.974 314.42 358.88 314.42V326.422C387.602 326.422 410.886 303.138 410.886 274.416H398.885ZM358.88 314.42C336.787 314.42 318.876 296.51 318.876 274.416H306.875C306.875 303.138 330.159 326.422 358.88 326.422V314.42ZM318.876 274.416C318.876 252.322 336.787 234.412 358.88 234.412V222.41C330.159 222.41 306.875 245.694 306.875 274.416H318.876ZM358.88 234.412C380.974 234.412 398.885 252.322 398.885 274.416H410.886C410.886 245.694 387.602 222.41 358.88 222.41V234.412Z" fill="black" mask="url(#path-2-inside-1_102_389)"/>
<path fill-rule="evenodd" clip-rule="evenodd" d="M368.881 272.42C375.509 272.42 380.883 267.047 380.883 260.419C380.883 259.724 380.823 259.042 380.71 258.379C385.721 262.778 388.883 269.231 388.883 276.422C388.883 289.679 378.137 300.425 364.881 300.425C351.625 300.425 340.878 289.679 340.878 276.422C340.878 265.048 348.791 255.521 359.411 253.046C357.825 255.08 356.88 257.639 356.88 260.419C356.88 267.047 362.253 272.42 368.881 272.42Z" fill="black"/>
<mask id="path-5-inside-2_102_389" fill="white">
<path d="M492.895 274.416C492.895 299.824 472.297 320.421 446.89 320.421C421.482 320.421 400.885 299.824 400.885 274.416C400.885 249.008 421.482 228.411 446.89 228.411C472.297 228.411 492.895 249.008 492.895 274.416Z"/>
</mask>
<path d="M492.895 274.416C492.895 299.824 472.297 320.421 446.89 320.421C421.482 320.421 400.885 299.824 400.885 274.416C400.885 249.008 421.482 228.411 446.89 228.411C472.297 228.411 492.895 249.008 492.895 274.416Z" fill="#D9D9D9"/>
<path d="M486.894 274.416C486.894 296.51 468.983 314.42 446.89 314.42V326.422C475.611 326.422 498.895 303.138 498.895 274.416H486.894ZM446.89 314.42C424.796 314.42 406.885 296.51 406.885 274.416H394.884C394.884 303.138 418.168 326.422 446.89 326.422V314.42ZM406.885 274.416C406.885 252.322 424.796 234.412 446.89 234.412V222.41C418.168 222.41 394.884 245.694 394.884 274.416H406.885ZM446.89 234.412C468.983 234.412 486.894 252.322 486.894 274.416H498.895C498.895 245.694 475.611 222.41 446.89 222.41V234.412Z" fill="black" mask="url(#path-5-inside-2_102_389)"/>
<path fill-rule="evenodd" clip-rule="evenodd" d="M436.889 272.42C443.517 272.42 448.89 267.047 448.89 260.419C448.89 257.639 447.945 255.08 446.359 253.046C456.98 255.521 464.892 265.048 464.892 276.422C464.892 289.679 454.145 300.425 440.889 300.425C427.633 300.425 416.887 289.679 416.887 276.422C416.887 269.231 420.05 262.778 425.06 258.379C424.947 259.042 424.888 259.724 424.888 260.419C424.888 267.047 430.261 272.42 436.889 272.42Z" fill="black"/>
</svg>
