<svg width="801" height="801" viewBox="0 0 801 801" fill="none" xmlns="http://www.w3.org/2000/svg">
<rect x="0.842773" y="0.488281" width="800.085" height="800.085" fill="#D9D9D9"/>
<path d="M287.666 304.516C278.19 278.513 295 244.509 305.668 230.508L299.668 184.503C307.002 191.837 322.07 207.305 323.671 210.506C325.271 213.706 376.343 265.178 401.679 290.514L379.676 312.516C377.676 316.517 365.675 330.518 347.673 336.519C329.671 342.52 299.628 337.336 287.666 304.516Z" fill="black"/>
<circle cx="334.195" cy="290.517" r="38.004" fill="#D9D9D9"/>
<circle cx="334.196" cy="290.514" r="14.0015" fill="black"/>
<path d="M514.898 304.516C524.375 278.513 507.564 244.509 496.896 230.508L502.896 184.503C495.562 191.837 480.494 207.305 478.894 210.506C477.294 213.706 426.222 265.178 400.886 290.514L422.888 312.516C424.888 316.517 436.889 330.518 454.891 336.519C472.893 342.52 502.937 337.336 514.898 304.516Z" fill="black"/>
<circle r="38.004" transform="matrix(-1 0 0 1 468.369 290.517)" fill="#D9D9D9"/>
<circle r="14.0015" transform="matrix(-1 0 0 1 468.369 290.514)" fill="black"/>
</svg>
