<svg width="801" height="801" viewBox="0 0 801 801" fill="none" xmlns="http://www.w3.org/2000/svg">
<rect x="0.842773" y="0.268555" width="800.085" height="800.085" fill="#D9D9D9"/>
<circle cx="448.89" cy="288.298" r="45.0048" fill="#D9D9D9" stroke="black" stroke-width="6.00064"/>
<path d="M439.889 276.298C439.889 270.792 443.513 267.297 446.89 267.297C450.268 267.297 453.891 270.792 453.891 276.298V300.301C453.891 305.807 450.268 309.302 446.89 309.302C443.513 309.302 439.889 305.807 439.889 300.301V276.298Z" fill="black" stroke="black" stroke-width="6.00064"/>
<circle cx="356.881" cy="288.298" r="45.0048" fill="#D9D9D9" stroke="black" stroke-width="6.00064"/>
<path d="M351.88 276.298C351.88 270.792 355.504 267.297 358.881 267.297C362.258 267.297 365.882 270.792 365.882 276.298V300.301C365.882 305.807 362.258 309.302 358.881 309.302C355.504 309.302 351.88 305.807 351.88 300.301V276.298Z" fill="black" stroke="black" stroke-width="6.00064"/>
</svg>
