<svg width="801" height="801" viewBox="0 0 801 801" fill="none" xmlns="http://www.w3.org/2000/svg">
<rect x="0.842773" y="0.376953" width="800.085" height="800.085" fill="#D9D9D9"/>
<path d="M448.89 333.415C425.043 333.415 405.528 314.867 403.984 291.41H493.797C492.253 314.867 472.738 333.415 448.89 333.415Z" fill="#D9D9D9" stroke="black" stroke-width="6.00064"/>
<path d="M420.887 288.41C420.887 303.876 433.425 316.413 448.89 316.413C464.356 316.413 476.893 303.876 476.893 288.41H420.887Z" fill="black"/>
<path d="M356.881 333.415C333.033 333.415 313.518 314.867 311.974 291.41H401.787C400.243 314.867 380.728 333.415 356.881 333.415Z" fill="#D9D9D9" stroke="black" stroke-width="6.00064"/>
<path d="M328.877 288.41C328.877 303.876 341.415 316.413 356.88 316.413C372.346 316.413 384.883 303.876 384.883 288.41H328.877Z" fill="black"/>
</svg>
