<svg width="801" height="801" viewBox="0 0 801 801" fill="none" xmlns="http://www.w3.org/2000/svg">
<rect x="0.842773" y="0.720703" width="800.085" height="800.085" fill="#D9D9D9"/>
<path d="M492.895 228.746H448.89C424.587 228.746 404.885 248.448 404.885 272.751C404.885 297.054 424.587 316.755 448.89 316.755C473.193 316.755 492.895 297.054 492.895 272.751V228.746Z" fill="#D9D9D9" stroke="black" stroke-width="6.00064" stroke-linejoin="round"/>
<path d="M468.892 252.748H448.89C437.843 252.748 428.888 261.703 428.888 272.75C428.888 283.797 437.843 292.752 448.89 292.752C459.937 292.752 468.892 283.797 468.892 272.75V252.748Z" fill="black"/>
<path d="M312.875 228.746H356.88C381.183 228.746 400.885 248.448 400.885 272.751C400.885 297.054 381.183 316.755 356.88 316.755C332.577 316.755 312.875 297.054 312.875 272.751V228.746Z" fill="#D9D9D9" stroke="black" stroke-width="6.00064" stroke-linejoin="round"/>
<path d="M336.878 252.748H356.88C367.927 252.748 376.882 261.703 376.882 272.75C376.882 283.797 367.927 292.752 356.88 292.752C345.833 292.752 336.878 283.797 336.878 272.75V252.748Z" fill="black"/>
</svg>
