<svg width="801" height="801" viewBox="0 0 801 801" fill="none" xmlns="http://www.w3.org/2000/svg">
<rect x="0.842773" y="0.0621338" width="800.085" height="800.085" fill="#D9D9D9"/>
<circle cx="448.89" cy="288.092" r="45.6048" fill="#D9D9D9" stroke="black" stroke-width="4.80051"/>
<path d="M470.037 286.093C471.614 286.093 472.91 284.81 472.723 283.244C472.446 280.924 471.831 278.652 470.893 276.501C469.574 273.476 467.645 270.755 465.227 268.508C462.809 266.262 459.954 264.538 456.839 263.445C453.725 262.352 450.419 261.913 447.127 262.155C443.835 262.398 440.629 263.316 437.709 264.854C434.788 266.392 432.216 268.515 430.153 271.092C428.09 273.668 426.581 276.642 425.72 279.829C425.107 282.094 424.832 284.431 424.897 286.766C424.941 288.343 426.412 289.422 427.972 289.191C429.532 288.96 430.586 287.504 430.6 285.927C430.614 284.374 430.826 282.826 431.233 281.319C431.89 278.891 433.04 276.625 434.612 274.661C436.184 272.698 438.144 271.08 440.369 269.908C442.595 268.736 445.038 268.036 447.547 267.851C450.055 267.667 452.575 268.001 454.948 268.834C457.321 269.667 459.497 270.981 461.34 272.693C463.182 274.405 464.652 276.478 465.657 278.784C466.281 280.214 466.717 281.715 466.959 283.249C467.204 284.807 468.46 286.093 470.037 286.093Z" fill="black"/>
<circle cx="356.881" cy="288.092" r="45.6048" fill="#D9D9D9" stroke="black" stroke-width="4.80051"/>
<path d="M378.027 286.093C379.604 286.093 380.901 284.81 380.713 283.244C380.436 280.924 379.821 278.652 378.883 276.501C377.564 273.476 375.636 270.755 373.218 268.508C370.8 266.262 367.944 264.538 364.83 263.445C361.715 262.352 358.409 261.913 355.117 262.155C351.826 262.398 348.619 263.316 345.699 264.854C342.778 266.392 340.206 268.515 338.143 271.092C336.08 273.668 334.571 276.642 333.71 279.829C333.097 282.094 332.822 284.431 332.887 286.766C332.932 288.343 334.402 289.422 335.962 289.191C337.522 288.96 338.576 287.504 338.59 285.927C338.604 284.374 338.816 282.826 339.223 281.319C339.88 278.891 341.03 276.625 342.602 274.661C344.174 272.698 346.134 271.08 348.36 269.908C350.585 268.736 353.029 268.036 355.537 267.851C358.045 267.667 360.565 268.001 362.938 268.834C365.311 269.667 367.487 270.981 369.33 272.693C371.173 274.405 372.642 276.478 373.648 278.784C374.271 280.214 374.707 281.715 374.949 283.249C375.194 284.807 376.45 286.093 378.027 286.093Z" fill="black"/>
</svg>
