<svg width="801" height="801" viewBox="0 0 801 801" fill="none" xmlns="http://www.w3.org/2000/svg">
<rect x="0.842773" y="0.501953" width="800.085" height="800.085" fill="#D9D9D9"/>
<mask id="path-2-inside-1_102_371" fill="white">
<path fill-rule="evenodd" clip-rule="evenodd" d="M317.406 254.594L404.859 276.116C404.02 300.787 383.756 320.53 358.881 320.53C333.473 320.53 312.876 299.932 312.876 274.525C312.876 267.385 314.503 260.624 317.406 254.594Z"/>
</mask>
<path fill-rule="evenodd" clip-rule="evenodd" d="M317.406 254.594L404.859 276.116C404.02 300.787 383.756 320.53 358.881 320.53C333.473 320.53 312.876 299.932 312.876 274.525C312.876 267.385 314.503 260.624 317.406 254.594Z" fill="#D9D9D9"/>
<path d="M317.406 254.594L318.839 248.767L314.111 247.604L311.999 251.991L317.406 254.594ZM404.859 276.116L410.856 276.319L411.021 271.453L406.293 270.289L404.859 276.116ZM315.972 260.421L403.425 281.942L406.293 270.289L318.839 248.767L315.972 260.421ZM398.862 275.912C398.133 297.361 380.51 314.529 358.881 314.529V326.53C387.002 326.53 409.908 304.212 410.856 276.319L398.862 275.912ZM358.881 314.529C336.787 314.529 318.877 296.618 318.877 274.525H306.875C306.875 303.247 330.159 326.53 358.881 326.53V314.529ZM318.877 274.525C318.877 268.305 320.292 262.433 322.812 257.197L311.999 251.991C308.713 258.816 306.875 266.464 306.875 274.525H318.877Z" fill="black" mask="url(#path-2-inside-1_102_371)"/>
<path fill-rule="evenodd" clip-rule="evenodd" d="M346.051 261.643L388.473 272.083C388.743 273.523 388.884 275.01 388.884 276.529C388.884 289.785 378.138 300.531 364.881 300.531C351.625 300.531 340.879 289.785 340.879 276.529C340.879 270.906 342.812 265.734 346.051 261.643Z" fill="black"/>
<mask id="path-5-inside-2_102_371" fill="white">
<path fill-rule="evenodd" clip-rule="evenodd" d="M400.912 276.116C401.751 300.787 422.015 320.53 446.89 320.53C472.298 320.53 492.895 299.932 492.895 274.525C492.895 267.385 491.268 260.624 488.365 254.594L400.912 276.116Z"/>
</mask>
<path fill-rule="evenodd" clip-rule="evenodd" d="M400.912 276.116C401.751 300.787 422.015 320.53 446.89 320.53C472.298 320.53 492.895 299.932 492.895 274.525C492.895 267.385 491.268 260.624 488.365 254.594L400.912 276.116Z" fill="#D9D9D9"/>
<path d="M400.912 276.116L399.478 270.289L394.75 271.453L394.915 276.319L400.912 276.116ZM488.365 254.594L493.772 251.991L491.66 247.604L486.931 248.767L488.365 254.594ZM446.89 314.529C425.26 314.529 407.638 297.361 406.909 275.912L394.915 276.319C395.863 304.212 418.769 326.53 446.89 326.53V314.529ZM486.894 274.525C486.894 296.618 468.984 314.529 446.89 314.529V326.53C475.612 326.53 498.895 303.247 498.895 274.525H486.894ZM482.959 257.197C485.479 262.433 486.894 268.305 486.894 274.525H498.895C498.895 266.464 497.057 258.816 493.772 251.991L482.959 257.197ZM486.931 248.767L399.478 270.289L402.346 281.942L489.799 260.421L486.931 248.767Z" fill="black" mask="url(#path-5-inside-2_102_371)"/>
<path fill-rule="evenodd" clip-rule="evenodd" d="M417.298 272.083C417.028 273.523 416.887 275.01 416.887 276.529C416.887 289.785 427.633 300.531 440.889 300.531C454.145 300.531 464.892 289.785 464.892 276.529C464.892 270.906 462.958 265.734 459.72 261.643L417.298 272.083Z" fill="black"/>
</svg>
