<svg width="801" height="801" viewBox="0 0 801 801" fill="none" xmlns="http://www.w3.org/2000/svg">
<rect x="0.842773" y="0.281006" width="800.085" height="800.085" fill="#D9D9D9"/>
<mask id="path-2-inside-1_102_335" fill="white">
<path d="M404.886 274.307C404.886 299.714 384.289 320.311 358.881 320.311C333.473 320.311 312.876 299.714 312.876 274.307C312.876 248.899 333.473 228.302 358.881 228.302C384.289 228.302 404.886 248.899 404.886 274.307Z"/>
</mask>
<path d="M404.886 274.307C404.886 299.714 384.289 320.311 358.881 320.311C333.473 320.311 312.876 299.714 312.876 274.307C312.876 248.899 333.473 228.302 358.881 228.302C384.289 228.302 404.886 248.899 404.886 274.307Z" fill="#D9D9D9"/>
<path d="M398.885 274.307C398.885 296.4 380.975 314.311 358.881 314.311V326.312C387.603 326.312 410.886 303.028 410.886 274.307H398.885ZM358.881 314.311C336.787 314.311 318.877 296.4 318.877 274.307H306.875C306.875 303.028 330.159 326.312 358.881 326.312V314.311ZM318.877 274.307C318.877 252.213 336.787 234.302 358.881 234.302V222.301C330.159 222.301 306.875 245.585 306.875 274.307H318.877ZM358.881 234.302C380.975 234.302 398.885 252.213 398.885 274.307H410.886C410.886 245.585 387.603 222.301 358.881 222.301V234.302Z" fill="black" mask="url(#path-2-inside-1_102_335)"/>
<circle cx="364.881" cy="276.311" r="24.0025" fill="black"/>
<mask id="path-5-inside-2_102_335" fill="white">
<path d="M492.895 274.307C492.895 299.714 472.298 320.311 446.89 320.311C421.482 320.311 400.885 299.714 400.885 274.307C400.885 248.899 421.482 228.302 446.89 228.302C472.298 228.302 492.895 248.899 492.895 274.307Z"/>
</mask>
<path d="M492.895 274.307C492.895 299.714 472.298 320.311 446.89 320.311C421.482 320.311 400.885 299.714 400.885 274.307C400.885 248.899 421.482 228.302 446.89 228.302C472.298 228.302 492.895 248.899 492.895 274.307Z" fill="#D9D9D9"/>
<path d="M486.894 274.307C486.894 296.4 468.984 314.311 446.89 314.311V326.312C475.612 326.312 498.896 303.028 498.896 274.307H486.894ZM446.89 314.311C424.796 314.311 406.886 296.4 406.886 274.307H394.885C394.885 303.028 418.168 326.312 446.89 326.312V314.311ZM406.886 274.307C406.886 252.213 424.796 234.302 446.89 234.302V222.301C418.168 222.301 394.885 245.585 394.885 274.307H406.886ZM446.89 234.302C468.984 234.302 486.894 252.213 486.894 274.307H498.896C498.896 245.585 475.612 222.301 446.89 222.301V234.302Z" fill="black" mask="url(#path-5-inside-2_102_335)"/>
<circle cx="440.889" cy="276.311" r="24.0025" fill="black"/>
</svg>
