<svg width="800" height="800" viewBox="0 0 800 800" fill="none" xmlns="http://www.w3.org/2000/svg">
<path d="M494 180.001C465.2 183.201 419.333 204.001 400 214.001V398C409.6 409.2 430.667 385.333 440 372C452.8 376.8 465.333 352.667 470 340C482.8 344.8 496.667 315.333 502 300C516.4 287.2 516 248 514 230C525.2 220.4 524 202.001 522 194.001C524.667 188.001 522.8 176.801 494 180.001Z" fill="{face_left_color}" stroke="{stroke_color}" stroke-width="1.5" stroke-linejoin="round"/>
<path d="M305.309 180.001C334.109 183.201 379.975 204.001 399.309 214.001V398C389.709 409.2 368.642 385.333 359.309 372C346.509 376.8 333.975 352.667 329.309 340C316.509 344.8 302.642 315.333 297.309 300C282.909 287.2 283.309 248 285.309 230C274.109 220.4 275.309 202.001 277.309 194.001C274.642 188.001 276.509 176.801 305.309 180.001Z" fill="{face_right_color}" stroke="{stroke_color}" stroke-width="1.5" stroke-linejoin="round"/>
</svg>
