<svg width="800" height="800" viewBox="0 0 800 800" fill="none" xmlns="http://www.w3.org/2000/svg">
<path d="M510 237.998C488 192.001 438 168 400 200V378C400 389.2 412 390 418 382C424.4 391.6 446 382 446 366C452.4 375.6 468 372 470 354C482.8 357.2 490 352 498 336C516 332 545.549 312.324 510 237.998Z" fill="{face_left_color}" stroke="{stroke_color}" stroke-width="1.5" stroke-linejoin="round"/>
<path d="M292.695 236.631C314.695 190.634 364.695 166.633 402.695 198.633V376.633C402.695 387.833 390.695 388.633 384.695 380.633C378.295 390.233 356.695 380.633 356.695 364.633C350.295 374.233 334.695 370.633 332.695 352.633C319.895 355.833 312.695 350.633 304.695 334.633C286.695 330.633 257.147 310.957 292.695 236.631Z" fill="{face_right_color}" stroke="{stroke_color}" stroke-width="1.5" stroke-linejoin="round"/>
</svg>
