<svg width="801" height="801" viewBox="0 0 801 801" fill="none" xmlns="http://www.w3.org/2000/svg">
<path d="M510.661 238.638C488.658 192.635 438.653 168.632 400.649 200.636V378.654C400.649 389.856 412.65 390.656 418.651 382.655C425.052 392.256 446.654 382.655 446.654 366.653C453.054 376.254 468.656 372.654 470.656 354.652C483.458 357.852 490.658 352.652 498.659 336.65C516.661 332.65 546.213 312.971 510.661 238.638Z" fill="{face_left_color}" stroke="{stroke_color}" stroke-width="6.00064" stroke-linejoin="round"/>
<path d="M293.334 237.271C315.336 191.268 365.341 167.265 403.345 199.268V377.287C403.345 388.488 391.344 389.289 385.343 381.288C378.943 390.889 357.34 381.288 357.34 365.286C350.94 374.887 335.338 371.287 333.338 353.285C320.536 356.485 313.336 351.285 305.335 335.283C287.333 331.282 257.781 311.604 293.334 237.271Z" fill="{face_right_color}" stroke="{stroke_color}" stroke-width="6.00064" stroke-linejoin="round"/>
</svg>
