<svg width="801" height="801" viewBox="0 0 801 801" fill="none" xmlns="http://www.w3.org/2000/svg">
<path d="M494.659 180.743C465.856 183.943 419.985 204.745 400.649 214.746V398.764C410.25 409.966 431.319 386.096 440.654 372.762C453.455 377.562 465.99 353.426 470.657 340.758C483.458 345.559 497.326 316.089 502.66 300.754C517.062 287.953 516.662 248.748 514.661 230.747C525.863 221.146 524.663 202.744 522.662 194.744C525.329 188.743 523.462 177.542 494.659 180.743Z" fill="{face_left_color}" stroke="{stroke_color}" stroke-width="6.00064" stroke-linejoin="round"/>
<path d="M305.948 180.743C334.751 183.943 380.622 204.745 399.958 214.746V398.764C390.357 409.966 369.288 386.096 359.953 372.762C347.152 377.562 334.617 353.426 329.95 340.758C317.149 345.559 303.281 316.089 297.947 300.754C283.545 287.953 283.945 248.748 285.945 230.747C274.744 221.146 275.944 202.744 277.945 194.744C275.278 188.743 277.145 177.542 305.948 180.743Z" fill="{face_right_color}" stroke="{stroke_color}" stroke-width="6.00064" stroke-linejoin="round"/>
</svg>
