<svg width="800" height="800" viewBox="0 0 800 800" fill="none" xmlns="http://www.w3.org/2000/svg">
<circle cx="448" cy="288" r="47.4" fill="{eye_left_color}" stroke="{stroke_color}" stroke-width="1.2"/>
<path d="M469.144 286C470.722 286 472.018 284.717 471.83 283.151C471.553 280.832 470.938 278.56 470.001 276.41C468.682 273.384 466.753 270.663 464.335 268.417C461.918 266.171 459.062 264.447 455.948 263.354C452.834 262.261 449.528 261.822 446.237 262.065C442.946 262.307 439.74 263.226 436.819 264.763C433.899 266.301 431.327 268.424 429.265 271C427.202 273.577 425.693 276.551 424.832 279.736C424.219 282.001 423.944 284.338 424.009 286.673C424.054 288.25 425.524 289.329 427.084 289.098V289.098C428.644 288.867 429.697 287.411 429.712 285.834C429.726 284.281 429.938 282.733 430.345 281.227C431.001 278.799 432.151 276.533 433.723 274.57C435.295 272.606 437.255 270.988 439.48 269.817C441.705 268.645 444.148 267.945 446.657 267.76C449.165 267.576 451.684 267.91 454.057 268.743C456.43 269.576 458.606 270.889 460.448 272.601C462.291 274.313 463.76 276.386 464.765 278.692C465.389 280.122 465.825 281.622 466.066 283.156C466.312 284.714 467.567 286 469.144 286V286Z" fill="{stroke_color}"/>
<circle cx="356" cy="288" r="47.4" fill="{eye_right_color}" stroke="{stroke_color}" stroke-width="1.2"/>
<path d="M377.144 286C378.722 286 380.018 284.717 379.83 283.151C379.553 280.832 378.938 278.56 378.001 276.41C376.682 273.384 374.753 270.663 372.335 268.417C369.918 266.171 367.062 264.447 363.948 263.354C360.834 262.261 357.528 261.822 354.237 262.065C350.946 262.307 347.74 263.226 344.819 264.763C341.899 266.301 339.327 268.424 337.265 271C335.202 273.577 333.693 276.551 332.832 279.736C332.219 282.001 331.944 284.338 332.009 286.673C332.054 288.25 333.524 289.329 335.084 289.098V289.098C336.644 288.867 337.697 287.411 337.712 285.834C337.726 284.281 337.938 282.733 338.345 281.227C339.001 278.799 340.151 276.533 341.723 274.57C343.295 272.606 345.255 270.988 347.48 269.817C349.705 268.645 352.148 267.945 354.657 267.76C357.165 267.576 359.684 267.91 362.057 268.743C364.43 269.576 366.606 270.889 368.448 272.601C370.291 274.313 371.76 276.386 372.765 278.692C373.389 280.122 373.825 281.622 374.066 283.156C374.312 284.714 375.567 286 377.144 286V286Z" fill="{stroke_color}"/>
</svg>
