<svg width="801" height="801" viewBox="0 0 801 801" fill="none" xmlns="http://www.w3.org/2000/svg">
<mask id="path-2-inside-1_283_185" fill="white">
<path fill-rule="evenodd" clip-rule="evenodd" d="M405.797 294.778C413.374 309.786 428.93 320.078 446.89 320.078C472.298 320.078 492.895 299.48 492.895 274.073C492.895 252.291 477.757 234.044 457.428 229.28L405.797 294.778Z"/>
</mask>
<path fill-rule="evenodd" clip-rule="evenodd" d="M405.797 294.778C413.374 309.786 428.93 320.078 446.89 320.078C472.298 320.078 492.895 299.48 492.895 274.073C492.895 252.291 477.757 234.044 457.428 229.28L405.797 294.778Z" fill="{eye_right_color}"/>
<path d="M405.797 294.778L401.084 291.064L398.716 294.068L400.44 297.483L405.797 294.778ZM457.428 229.28L458.797 223.438L455.079 222.567L452.715 225.565L457.428 229.28ZM446.89 314.077C431.281 314.077 417.75 305.139 411.154 292.074L400.44 297.483C408.998 314.433 426.579 326.078 446.89 326.078V314.077ZM486.894 274.073C486.894 296.166 468.984 314.077 446.89 314.077V326.078C475.612 326.078 498.895 302.795 498.895 274.073H486.894ZM456.058 235.123C473.736 239.265 486.894 255.14 486.894 274.073H498.895C498.895 249.442 481.778 228.824 458.797 223.438L456.058 235.123ZM452.715 225.565L401.084 291.064L410.509 298.493L462.14 232.995L452.715 225.565Z" fill="{stroke_color}" mask="url(#path-2-inside-1_283_185)"/>
<path fill-rule="evenodd" clip-rule="evenodd" d="M417.249 280.256C419.226 291.521 429.058 300.08 440.889 300.08C454.145 300.08 464.892 289.334 464.892 276.078C464.892 262.821 454.145 252.075 440.889 252.075C440.399 252.075 439.912 252.09 439.429 252.119L417.249 280.256Z" fill="{stroke_color}"/>
<path d="M454.891 200.069H486.894L408.886 298.08H376.882L454.891 200.069Z" fill="{stroke_color}"/>
<mask id="path-6-inside-2_283_185" fill="white">
<path fill-rule="evenodd" clip-rule="evenodd" d="M383.972 294.778C376.395 309.786 360.839 320.078 342.879 320.078C317.471 320.078 296.874 299.48 296.874 274.073C296.874 252.291 312.012 234.044 332.341 229.28L383.972 294.778Z"/>
</mask>
<path fill-rule="evenodd" clip-rule="evenodd" d="M383.972 294.778C376.395 309.786 360.839 320.078 342.879 320.078C317.471 320.078 296.874 299.48 296.874 274.073C296.874 252.291 312.012 234.044 332.341 229.28L383.972 294.778Z" fill="{eye_left_color}"/>
<path d="M383.972 294.778L388.684 291.064L391.052 294.068L389.328 297.483L383.972 294.778ZM332.341 229.28L330.972 223.438L334.69 222.567L337.054 225.565L332.341 229.28ZM342.879 314.077C358.487 314.077 372.019 305.139 378.615 292.074L389.328 297.483C380.771 314.433 363.19 326.078 342.879 326.078V314.077ZM302.874 274.073C302.874 296.166 320.785 314.077 342.879 314.077V326.078C314.157 326.078 290.873 302.795 290.873 274.073H302.874ZM333.71 235.123C316.033 239.265 302.874 255.14 302.874 274.073H290.873C290.873 249.442 307.991 228.824 330.972 223.438L333.71 235.123ZM337.054 225.565L388.684 291.064L379.259 298.493L327.628 232.995L337.054 225.565Z" fill="{stroke_color}" mask="url(#path-6-inside-2_283_185)"/>
<path fill-rule="evenodd" clip-rule="evenodd" d="M372.52 280.256C370.542 291.521 360.71 300.08 348.879 300.08C335.623 300.08 324.877 289.334 324.877 276.078C324.877 262.821 335.623 252.075 348.879 252.075C349.37 252.075 349.857 252.09 350.34 252.119L372.52 280.256Z" fill="{stroke_color}"/>
<path d="M334.878 200.069H302.875L380.883 298.08H412.886L334.878 200.069Z" fill="{stroke_color}"/>
</svg>
