<svg width="801" height="801" viewBox="0 0 801 801" fill="none" xmlns="http://www.w3.org/2000/svg">
<mask id="path-2-inside-1_102_353" fill="white">
<path fill-rule="evenodd" clip-rule="evenodd" d="M404.845 276.595C404.195 276.625 403.542 276.64 402.885 276.64C379.687 276.64 360.881 257.834 360.881 234.636C360.881 232.619 361.023 230.636 361.298 228.695C360.497 228.653 359.692 228.632 358.881 228.632C333.473 228.632 312.876 249.229 312.876 274.637C312.876 300.045 333.473 320.642 358.881 320.642C383.633 320.642 403.819 301.095 404.845 276.595Z"/>
</mask>
<path fill-rule="evenodd" clip-rule="evenodd" d="M404.845 276.595C404.195 276.625 403.542 276.64 402.885 276.64C379.687 276.64 360.881 257.834 360.881 234.636C360.881 232.619 361.023 230.636 361.298 228.695C360.497 228.653 359.692 228.632 358.881 228.632C333.473 228.632 312.876 249.229 312.876 274.637C312.876 300.045 333.473 320.642 358.881 320.642C383.633 320.642 403.819 301.095 404.845 276.595Z" fill="{eye_left_color}"/>
<path d="M404.845 276.595L410.84 276.846L411.114 270.301L404.57 270.601L404.845 276.595ZM361.298 228.695L367.239 229.536L368.159 223.041L361.608 222.702L361.298 228.695ZM404.57 270.601C404.012 270.627 403.45 270.64 402.885 270.64V282.641C403.634 282.641 404.379 282.624 405.12 282.59L404.57 270.601ZM402.885 270.64C383.001 270.64 366.882 254.52 366.882 234.636H354.88C354.88 261.148 376.373 282.641 402.885 282.641V270.64ZM366.882 234.636C366.882 232.901 367.004 231.199 367.239 229.536L355.357 227.854C355.042 230.072 354.88 232.337 354.88 234.636H366.882ZM358.881 234.633C359.588 234.633 360.291 234.651 360.988 234.687L361.608 222.702C360.704 222.655 359.795 222.632 358.881 222.632V234.633ZM318.877 274.637C318.877 252.543 336.787 234.633 358.881 234.633V222.632C330.159 222.632 306.875 245.915 306.875 274.637H318.877ZM358.881 314.641C336.787 314.641 318.877 296.731 318.877 274.637H306.875C306.875 303.359 330.159 326.643 358.881 326.643V314.641ZM398.849 276.344C397.958 297.644 380.403 314.641 358.881 314.641V326.643C386.863 326.643 409.68 304.546 410.84 276.846L398.849 276.344Z" fill="{stroke_color}" mask="url(#path-2-inside-1_102_353)"/>
<path fill-rule="evenodd" clip-rule="evenodd" d="M388.762 274.208C378.25 270.456 369.671 262.634 364.923 252.639C364.909 252.639 364.895 252.639 364.881 252.639C351.625 252.639 340.879 263.385 340.879 276.642C340.879 289.898 351.625 300.644 364.881 300.644C378.138 300.644 388.884 289.898 388.884 276.642C388.884 275.82 388.843 275.008 388.762 274.208Z" fill="{stroke_color}"/>
<mask id="path-5-inside-2_102_353" fill="white">
<path fill-rule="evenodd" clip-rule="evenodd" d="M402.886 276.64C426.084 276.64 444.89 257.834 444.89 234.636C444.89 232.619 444.748 230.636 444.473 228.695C445.274 228.653 446.08 228.632 446.89 228.632C472.298 228.632 492.895 249.229 492.895 274.637C492.895 300.045 472.298 320.642 446.89 320.642C422.138 320.642 401.952 301.095 400.926 276.595C401.576 276.625 402.229 276.64 402.886 276.64Z"/>
</mask>
<path fill-rule="evenodd" clip-rule="evenodd" d="M402.886 276.64C426.084 276.64 444.89 257.834 444.89 234.636C444.89 232.619 444.748 230.636 444.473 228.695C445.274 228.653 446.08 228.632 446.89 228.632C472.298 228.632 492.895 249.229 492.895 274.637C492.895 300.045 472.298 320.642 446.89 320.642C422.138 320.642 401.952 301.095 400.926 276.595C401.576 276.625 402.229 276.64 402.886 276.64Z" fill="{eye_right_color}"/>
<path d="M444.473 228.695L444.163 222.702L437.612 223.041L438.532 229.536L444.473 228.695ZM400.926 276.595L401.202 270.601L394.657 270.3L394.931 276.846L400.926 276.595ZM438.89 234.636C438.89 254.52 422.77 270.64 402.886 270.64V282.641C429.398 282.641 450.891 261.148 450.891 234.636H438.89ZM438.532 229.536C438.767 231.199 438.89 232.901 438.89 234.636H450.891C450.891 232.337 450.729 230.072 450.415 227.854L438.532 229.536ZM444.784 234.687C445.481 234.651 446.183 234.633 446.89 234.633V222.632C445.976 222.632 445.067 222.655 444.163 222.702L444.784 234.687ZM446.89 234.633C468.984 234.633 486.894 252.543 486.894 274.637H498.896C498.896 245.915 475.612 222.632 446.89 222.632V234.633ZM486.894 274.637C486.894 296.731 468.984 314.641 446.89 314.641V326.643C475.612 326.643 498.896 303.359 498.896 274.637H486.894ZM446.89 314.641C425.368 314.641 407.814 297.644 406.922 276.344L394.931 276.846C396.091 304.546 418.908 326.643 446.89 326.643V314.641ZM402.886 270.64C402.321 270.64 401.759 270.627 401.202 270.601L400.651 282.59C401.392 282.624 402.137 282.641 402.886 282.641V270.64Z" fill="{stroke_color}" mask="url(#path-5-inside-2_102_353)"/>
<path fill-rule="evenodd" clip-rule="evenodd" d="M417.009 274.208C416.928 275.008 416.887 275.82 416.887 276.642C416.887 289.898 427.634 300.644 440.89 300.644C454.146 300.644 464.892 289.898 464.892 276.642C464.892 263.385 454.146 252.639 440.89 252.639C440.876 252.639 440.862 252.639 440.848 252.639C436.1 262.634 427.521 270.456 417.009 274.208Z" fill="{stroke_color}"/>
</svg>
