<svg width="801" height="801" viewBox="0 0 801 801" fill="none" xmlns="http://www.w3.org/2000/svg">
<mask id="path-2-inside-1_282_131" fill="white">
<path fill-rule="evenodd" clip-rule="evenodd" d="M446.89 320.86C472.298 320.86 492.895 300.263 492.895 274.855C492.895 271.422 492.519 268.077 491.806 264.858H401.975C401.261 268.077 400.885 271.422 400.885 274.855C400.885 300.263 421.482 320.86 446.89 320.86Z"/>
<path d="M446.89 228.851C424.916 228.851 406.539 244.257 401.975 264.858H491.806C487.241 244.257 468.865 228.851 446.89 228.851Z"/>
</mask>
<path fill-rule="evenodd" clip-rule="evenodd" d="M446.89 320.86C472.298 320.86 492.895 300.263 492.895 274.855C492.895 271.422 492.519 268.077 491.806 264.858H401.975C401.261 268.077 400.885 271.422 400.885 274.855C400.885 300.263 421.482 320.86 446.89 320.86Z" fill="{eye_right_color}"/>
<path d="M446.89 228.851C424.916 228.851 406.539 244.257 401.975 264.858H491.806C487.241 244.257 468.865 228.851 446.89 228.851Z" fill="{stroke_color}"/>
<path d="M401.975 267.859H491.806V261.858H401.975V267.859ZM401.975 264.858L396.116 263.56L401.975 264.858ZM491.806 264.858L497.664 263.56L491.806 264.858ZM486.894 274.855C486.894 296.949 468.984 314.86 446.89 314.86V326.861C475.612 326.861 498.896 303.577 498.896 274.855H486.894ZM446.89 314.86C424.796 314.86 406.886 296.949 406.886 274.855H394.885C394.885 303.577 418.168 326.861 446.89 326.861V314.86ZM406.886 274.855C406.886 271.862 407.214 268.952 407.833 266.156L396.116 263.56C395.309 267.202 394.885 270.983 394.885 274.855H406.886ZM407.833 266.156C411.802 248.244 427.789 234.851 446.89 234.851V222.85C422.042 222.85 401.277 240.271 396.116 263.56L407.833 266.156ZM446.89 234.851C465.991 234.851 481.978 248.244 485.947 266.156L497.664 263.56C492.504 240.271 471.738 222.85 446.89 222.85V234.851ZM485.947 266.156C486.567 268.952 486.894 271.862 486.894 274.855H498.896C498.896 270.983 498.471 267.202 497.664 263.56L485.947 266.156Z" fill="{stroke_color}" mask="url(#path-2-inside-1_282_131)"/>
<circle cx="440.889" cy="276.86" r="24.0025" fill="{stroke_color}"/>
<mask id="path-5-inside-2_282_131" fill="white">
<path fill-rule="evenodd" clip-rule="evenodd" d="M358.881 320.86C333.473 320.86 312.876 300.263 312.876 274.855C312.876 271.422 313.252 268.077 313.965 264.858H403.796C404.51 268.077 404.886 271.422 404.886 274.855C404.886 300.263 384.289 320.86 358.881 320.86Z"/>
<path d="M358.881 228.851C380.855 228.851 399.232 244.257 403.796 264.858H313.965C318.53 244.257 336.906 228.851 358.881 228.851Z"/>
</mask>
<path fill-rule="evenodd" clip-rule="evenodd" d="M358.881 320.86C333.473 320.86 312.876 300.263 312.876 274.855C312.876 271.422 313.252 268.077 313.965 264.858H403.796C404.51 268.077 404.886 271.422 404.886 274.855C404.886 300.263 384.289 320.86 358.881 320.86Z" fill="{eye_left_color}"/>
<path d="M358.881 228.851C380.855 228.851 399.232 244.257 403.796 264.858H313.965C318.53 244.257 336.906 228.851 358.881 228.851Z" fill="{stroke_color}"/>
<path d="M403.796 267.859H313.965V261.858H403.796V267.859ZM403.796 264.858L409.655 263.56L403.796 264.858ZM313.965 264.858L308.107 263.56L313.965 264.858ZM318.877 274.855C318.877 296.949 336.787 314.86 358.881 314.86V326.861C330.159 326.861 306.875 303.577 306.875 274.855H318.877ZM358.881 314.86C380.975 314.86 398.885 296.949 398.885 274.855H410.886C410.886 303.577 387.603 326.861 358.881 326.861V314.86ZM398.885 274.855C398.885 271.862 398.557 268.952 397.938 266.156L409.655 263.56C410.462 267.202 410.886 270.983 410.886 274.855H398.885ZM397.938 266.156C393.969 248.244 377.982 234.851 358.881 234.851V222.85C383.729 222.85 404.494 240.271 409.655 263.56L397.938 266.156ZM358.881 234.851C339.78 234.851 323.793 248.244 319.824 266.156L308.107 263.56C313.267 240.271 334.033 222.85 358.881 222.85V234.851ZM319.824 266.156C319.204 268.952 318.877 271.862 318.877 274.855H306.875C306.875 270.983 307.3 267.202 308.107 263.56L319.824 266.156Z" fill="{stroke_color}" mask="url(#path-5-inside-2_282_131)"/>
<circle r="24.0025" transform="matrix(-1 0 0 1 364.882 276.86)" fill="{stroke_color}"/>
</svg>
