<svg width="800" height="800" viewBox="0 0 800 800" fill="none" xmlns="http://www.w3.org/2000/svg">
<mask id="path-2-inside-1_218_880" fill="white">
<path d="M404 273.996C404 299.401 383.405 319.996 358 319.996C332.595 319.996 312 299.401 312 273.996C312 248.591 332.595 227.996 358 227.996C383.405 227.996 404 248.591 404 273.996Z"/>
</mask>
<path d="M404 273.996C404 299.401 383.405 319.996 358 319.996C332.595 319.996 312 299.401 312 273.996C312 248.591 332.595 227.996 358 227.996C383.405 227.996 404 248.591 404 273.996Z" fill="{eye_left_color}"/>
<path d="M402.5 273.996C402.5 298.573 382.577 318.496 358 318.496V321.496C384.234 321.496 405.5 300.23 405.5 273.996H402.5ZM358 318.496C333.423 318.496 313.5 298.573 313.5 273.996H310.5C310.5 300.23 331.766 321.496 358 321.496V318.496ZM313.5 273.996C313.5 249.419 333.423 229.496 358 229.496V226.496C331.766 226.496 310.5 247.763 310.5 273.996H313.5ZM358 229.496C382.577 229.496 402.5 249.419 402.5 273.996H405.5C405.5 247.763 384.234 226.496 358 226.496V229.496Z" fill="{stroke_color}" mask="url(#path-2-inside-1_218_880)"/>
<path fill-rule="evenodd" clip-rule="evenodd" d="M368 272C374.627 272 380 266.627 380 260C380 259.305 379.941 258.624 379.828 257.961C384.838 262.36 388 268.812 388 276.003C388 289.258 377.255 300.003 364 300.003C350.745 300.003 340 289.258 340 276.003C340 264.63 347.911 255.105 358.53 252.629C356.944 254.663 356 257.221 356 260C356 266.627 361.373 272 368 272Z" fill="{stroke_color}"/>
<mask id="path-5-inside-2_218_880" fill="white">
<path d="M492 273.996C492 299.401 471.405 319.996 446 319.996C420.595 319.996 400 299.401 400 273.996C400 248.591 420.595 227.996 446 227.996C471.405 227.996 492 248.591 492 273.996Z"/>
</mask>
<path d="M492 273.996C492 299.401 471.405 319.996 446 319.996C420.595 319.996 400 299.401 400 273.996C400 248.591 420.595 227.996 446 227.996C471.405 227.996 492 248.591 492 273.996Z" fill="{eye_right_color}"/>
<path d="M490.5 273.996C490.5 298.573 470.577 318.496 446 318.496V321.496C472.234 321.496 493.5 300.23 493.5 273.996H490.5ZM446 318.496C421.423 318.496 401.5 298.573 401.5 273.996H398.5C398.5 300.23 419.766 321.496 446 321.496V318.496ZM401.5 273.996C401.5 249.419 421.423 229.496 446 229.496V226.496C419.766 226.496 398.5 247.763 398.5 273.996H401.5ZM446 229.496C470.577 229.496 490.5 249.419 490.5 273.996H493.5C493.5 247.763 472.234 226.496 446 226.496V229.496Z" fill="{stroke_color}" mask="url(#path-5-inside-2_218_880)"/>
<path fill-rule="evenodd" clip-rule="evenodd" d="M436 272C442.627 272 448 266.627 448 260C448 257.221 447.056 254.663 445.47 252.629C456.089 255.105 464 264.63 464 276.003C464 289.258 453.255 300.003 440 300.003C426.745 300.003 416 289.258 416 276.003C416 268.812 419.162 262.36 424.172 257.961C424.059 258.624 424 259.305 424 260C424 266.627 429.373 272 436 272Z" fill="{stroke_color}"/>
</svg>
