<svg width="800" height="800" viewBox="0 0 800 800" fill="none" xmlns="http://www.w3.org/2000/svg">
<mask id="path-2-inside-1_218_862" fill="white">
<path fill-rule="evenodd" clip-rule="evenodd" d="M316.529 254.068L403.973 275.587C403.135 300.256 382.873 319.996 358 319.996C332.595 319.996 312 299.401 312 273.996C312 266.857 313.626 260.097 316.529 254.068Z"/>
</mask>
<path fill-rule="evenodd" clip-rule="evenodd" d="M316.529 254.068L403.973 275.587C403.135 300.256 382.873 319.996 358 319.996C332.595 319.996 312 299.401 312 273.996C312 266.857 313.626 260.097 316.529 254.068Z" fill="{eye_left_color}"/>
<path d="M316.529 254.068L316.888 252.611L315.706 252.32L315.178 253.417L316.529 254.068ZM403.973 275.587L405.472 275.638L405.513 274.421L404.331 274.13L403.973 275.587ZM316.171 255.524L403.615 277.044L404.331 274.13L316.888 252.611L316.171 255.524ZM402.474 275.536C401.663 299.399 382.061 318.496 358 318.496V321.496C383.684 321.496 404.606 301.112 405.472 275.638L402.474 275.536ZM358 318.496C333.423 318.496 313.5 298.573 313.5 273.996H310.5C310.5 300.23 331.766 321.496 358 321.496V318.496ZM313.5 273.996C313.5 267.087 315.074 260.549 317.881 254.719L315.178 253.417C312.179 259.645 310.5 266.627 310.5 273.996H313.5Z" fill="{stroke_color}" mask="url(#path-2-inside-1_218_862)"/>
<path fill-rule="evenodd" clip-rule="evenodd" d="M345.171 261.113L387.589 271.552C387.859 272.992 388 274.478 388 275.997C388 289.252 377.255 299.997 364 299.997C350.745 299.997 340 289.252 340 275.997C340 270.375 341.933 265.204 345.171 261.113Z" fill="{stroke_color}"/>
<mask id="path-5-inside-2_218_862" fill="white">
<path fill-rule="evenodd" clip-rule="evenodd" d="M400.027 275.587C400.866 300.256 421.128 319.996 446 319.996C471.405 319.996 492 299.401 492 273.996C492 266.857 490.374 260.097 487.471 254.068L400.027 275.587Z"/>
</mask>
<path fill-rule="evenodd" clip-rule="evenodd" d="M400.027 275.587C400.866 300.256 421.128 319.996 446 319.996C471.405 319.996 492 299.401 492 273.996C492 266.857 490.374 260.097 487.471 254.068L400.027 275.587Z" fill="{eye_right_color}"/>
<path d="M400.027 275.587L399.669 274.13L398.487 274.421L398.528 275.638L400.027 275.587ZM487.471 254.068L488.823 253.417L488.295 252.32L487.113 252.611L487.471 254.068ZM446 318.496C421.939 318.496 402.337 299.399 401.526 275.536L398.528 275.638C399.394 301.112 420.316 321.496 446 321.496V318.496ZM490.5 273.996C490.5 298.573 470.577 318.496 446 318.496V321.496C472.234 321.496 493.5 300.23 493.5 273.996H490.5ZM486.12 254.719C488.927 260.549 490.5 267.087 490.5 273.996H493.5C493.5 266.627 491.821 259.645 488.823 253.417L486.12 254.719ZM487.113 252.611L399.669 274.13L400.386 277.044L487.83 255.524L487.113 252.611Z" fill="{stroke_color}" mask="url(#path-5-inside-2_218_862)"/>
<path fill-rule="evenodd" clip-rule="evenodd" d="M416.411 271.552C416.141 272.992 416 274.478 416 275.997C416 289.252 426.745 299.997 440 299.997C453.255 299.997 464 289.252 464 275.997C464 270.375 462.067 265.204 458.829 261.113L416.411 271.552Z" fill="{stroke_color}"/>
</svg>
