<svg width="800" height="800" viewBox="0 0 800 800" fill="none" xmlns="http://www.w3.org/2000/svg">
<mask id="path-2-inside-1_218_844" fill="white">
<path fill-rule="evenodd" clip-rule="evenodd" d="M403.959 275.955C403.31 275.985 402.657 276 402 276C378.804 276 360 257.196 360 234C360 231.983 360.142 229.999 360.417 228.059C359.617 228.017 358.811 227.996 358 227.996C332.595 227.996 312 248.591 312 273.996C312 299.401 332.595 319.996 358 319.996C382.749 319.996 402.933 300.452 403.959 275.955Z"/>
</mask>
<path fill-rule="evenodd" clip-rule="evenodd" d="M403.959 275.955C403.31 275.985 402.657 276 402 276C378.804 276 360 257.196 360 234C360 231.983 360.142 229.999 360.417 228.059C359.617 228.017 358.811 227.996 358 227.996C332.595 227.996 312 248.591 312 273.996C312 299.401 332.595 319.996 358 319.996C382.749 319.996 402.933 300.452 403.959 275.955Z" fill="#D9D9D9"/>
<path d="M403.959 275.955L405.458 276.018L405.526 274.382L403.89 274.457L403.959 275.955ZM360.417 228.059L361.902 228.269L362.132 226.645L360.495 226.561L360.417 228.059ZM403.89 274.457C403.264 274.485 402.634 274.5 402 274.5V277.5C402.68 277.5 403.356 277.484 404.028 277.454L403.89 274.457ZM402 274.5C379.632 274.5 361.5 256.368 361.5 234H358.5C358.5 258.024 377.976 277.5 402 277.5V274.5ZM361.5 234C361.5 232.054 361.637 230.14 361.902 228.269L358.932 227.848C358.647 229.859 358.5 231.913 358.5 234H361.5ZM358 229.496C358.785 229.496 359.565 229.516 360.339 229.556L360.495 226.561C359.668 226.518 358.837 226.496 358 226.496V229.496ZM313.5 273.996C313.5 249.419 333.423 229.496 358 229.496V226.496C331.766 226.496 310.5 247.763 310.5 273.996H313.5ZM358 318.496C333.423 318.496 313.5 298.573 313.5 273.996H310.5C310.5 300.23 331.766 321.496 358 321.496V318.496ZM402.46 275.892C401.468 299.589 381.941 318.496 358 318.496V321.496C383.556 321.496 404.398 301.314 405.458 276.018L402.46 275.892Z" fill="{stroke_color}" mask="url(#path-2-inside-1_218_844)"/>
<path fill-rule="evenodd" clip-rule="evenodd" d="M387.878 273.567C377.367 269.815 368.789 261.994 364.042 252C364.028 252 364.014 252 364 252C350.745 252 340 262.745 340 276C340 289.255 350.745 300 364 300C377.255 300 388 289.255 388 276C388 275.179 387.959 274.367 387.878 273.567Z" fill="{eye_left_color}"/>
<mask id="path-5-inside-2_218_844" fill="white">
<path fill-rule="evenodd" clip-rule="evenodd" d="M402 276C425.196 276 444 257.196 444 234C444 231.983 443.858 229.999 443.583 228.059C444.383 228.017 445.189 227.996 446 227.996C471.405 227.996 492 248.591 492 273.996C492 299.401 471.405 319.996 446 319.996C421.251 319.996 401.067 300.452 400.041 275.955C400.69 275.985 401.343 276 402 276Z"/>
</mask>
<path fill-rule="evenodd" clip-rule="evenodd" d="M402 276C425.196 276 444 257.196 444 234C444 231.983 443.858 229.999 443.583 228.059C444.383 228.017 445.189 227.996 446 227.996C471.405 227.996 492 248.591 492 273.996C492 299.401 471.405 319.996 446 319.996C421.251 319.996 401.067 300.452 400.041 275.955C400.69 275.985 401.343 276 402 276Z" fill="#D9D9D9"/>
<path d="M443.583 228.059L443.506 226.561L441.868 226.645L442.098 228.269L443.583 228.059ZM400.041 275.955L400.11 274.457L398.474 274.382L398.542 276.018L400.041 275.955ZM442.5 234C442.5 256.368 424.368 274.5 402 274.5V277.5C426.024 277.5 445.5 258.024 445.5 234H442.5ZM442.098 228.269C442.363 230.14 442.5 232.054 442.5 234H445.5C445.5 231.913 445.353 229.859 445.068 227.848L442.098 228.269ZM443.661 229.556C444.435 229.516 445.215 229.496 446 229.496V226.496C445.163 226.496 444.332 226.518 443.506 226.561L443.661 229.556ZM446 229.496C470.577 229.496 490.5 249.419 490.5 273.996H493.5C493.5 247.763 472.234 226.496 446 226.496V229.496ZM490.5 273.996C490.5 298.573 470.577 318.496 446 318.496V321.496C472.234 321.496 493.5 300.23 493.5 273.996H490.5ZM446 318.496C422.059 318.496 402.533 299.589 401.54 275.892L398.542 276.018C399.602 301.314 420.444 321.496 446 321.496V318.496ZM402 274.5C401.366 274.5 400.736 274.485 400.11 274.457L399.972 277.454C400.644 277.484 401.32 277.5 402 277.5V274.5Z" fill="{stroke_color}" mask="url(#path-5-inside-2_218_844)"/>
<path fill-rule="evenodd" clip-rule="evenodd" d="M416.122 273.567C416.041 274.367 416 275.179 416 276C416 289.255 426.745 300 440 300C453.255 300 464 289.255 464 276C464 262.745 453.255 252 440 252C439.986 252 439.972 252 439.958 252C435.211 261.994 426.633 269.815 416.122 273.567Z" fill="{eye_right_color}"/>
</svg>
