<svg width="800" height="800" viewBox="0 0 800 800" fill="none" xmlns="http://www.w3.org/2000/svg">
<path fill-rule="evenodd" clip-rule="evenodd" d="M305.255 160H273C270.239 160 268 162.239 268 165V373.5C268 390.345 281.655 404 298.5 404H501.5C518.345 404 532 390.345 532 373.5V165C532 162.239 529.761 160 527 160H494.745C471.999 186.911 437.995 204 400 204C362.005 204 328.001 186.911 305.255 160Z" fill="{head_color}"/>
<path d="M305.255 160L306.018 159.354C305.828 159.13 305.549 159 305.255 159V160ZM494.745 160V159C494.451 159 494.172 159.13 493.982 159.354L494.745 160ZM273 161H305.255V159H273V161ZM269 165C269 162.791 270.791 161 273 161V159C269.686 159 267 161.686 267 165H269ZM269 373.5V165H267V373.5H269ZM298.5 403C282.208 403 269 389.792 269 373.5H267C267 390.897 281.103 405 298.5 405V403ZM501.5 403H298.5V405H501.5V403ZM531 373.5C531 389.792 517.792 403 501.5 403V405C518.897 405 533 390.897 533 373.5H531ZM531 165V373.5H533V165H531ZM527 161C529.209 161 531 162.791 531 165H533C533 161.686 530.314 159 527 159V161ZM494.745 161H527V159H494.745V161ZM493.982 159.354C471.417 186.05 437.689 203 400 203V205C438.302 205 472.581 187.772 495.509 160.646L493.982 159.354ZM400 203C362.311 203 328.583 186.05 306.018 159.354L304.491 160.646C327.419 187.772 361.698 205 400 205V203Z" fill="{stroke_color}"/>
</svg>
