<svg width="800" height="800" viewBox="0 0 800 800" fill="none" xmlns="http://www.w3.org/2000/svg">
<path fill-rule="evenodd" clip-rule="evenodd" d="M343.414 160H273C270.239 160 268 162.239 268 165V373.5C268 390.345 281.655 404 298.5 404H501.5C518.345 404 532 390.345 532 373.5V165C532 162.239 529.761 160 527 160H456.586C448.349 183.304 426.124 200 400 200C373.876 200 351.651 183.304 343.414 160Z" fill="{head_color}"/>
<path d="M343.414 160L344.357 159.667C344.216 159.267 343.838 159 343.414 159V160ZM456.586 160V159C456.162 159 455.784 159.267 455.643 159.667L456.586 160ZM273 161H343.414V159H273V161ZM269 165C269 162.791 270.791 161 273 161V159C269.686 159 267 161.686 267 165H269ZM269 373.5V165H267V373.5H269ZM298.5 403C282.208 403 269 389.792 269 373.5H267C267 390.897 281.103 405 298.5 405V403ZM501.5 403H298.5V405H501.5V403ZM531 373.5C531 389.792 517.792 403 501.5 403V405C518.897 405 533 390.897 533 373.5H531ZM531 165V373.5H533V165H531ZM527 161C529.209 161 531 162.791 531 165H533C533 161.686 530.314 159 527 159V161ZM456.586 161H527V159H456.586V161ZM455.643 159.667C447.543 182.584 425.687 199 400 199V201C426.561 201 449.155 184.024 457.529 160.333L455.643 159.667ZM400 199C374.313 199 352.457 182.584 344.357 159.667L342.471 160.333C350.845 184.024 373.439 201 400 201V199Z" fill="{stroke_color}"/>
</svg>
