<svg width="801" height="801" viewBox="0 0 801 801" fill="none" xmlns="http://www.w3.org/2000/svg">
<path fill-rule="evenodd" clip-rule="evenodd" d="M343.94 160.408H288.519C277.472 160.408 268.517 169.363 268.517 180.41V282.421C268.517 349.807 323.144 404.434 390.53 404.434H410.532C477.917 404.434 532.545 349.807 532.545 282.421V180.41C532.545 169.363 523.589 160.408 512.542 160.408H457.123C448.885 183.714 426.658 200.411 400.531 200.411C374.404 200.411 352.177 183.714 343.94 160.408Z" fill="{head_color}"/>
<path d="M343.94 160.408L347.711 159.075C347.146 157.476 345.635 156.407 343.94 156.407V160.408ZM457.123 160.408V156.407C455.427 156.407 453.916 157.476 453.351 159.075L457.123 160.408ZM288.519 164.408H343.94V156.407H288.519V164.408ZM272.517 180.41C272.517 171.572 279.681 164.408 288.519 164.408V156.407C275.262 156.407 264.516 167.154 264.516 180.41H272.517ZM272.517 282.421V180.41H264.516V282.421H272.517ZM390.53 400.433C325.353 400.433 272.517 347.597 272.517 282.421H264.516C264.516 352.016 320.934 408.434 390.53 408.434V400.433ZM410.532 400.433H390.53V408.434H410.532V400.433ZM528.544 282.421C528.544 347.597 475.708 400.433 410.532 400.433V408.434C480.127 408.434 536.545 352.016 536.545 282.421H528.544ZM528.544 180.41V282.421H536.545V180.41H528.544ZM512.542 164.408C521.38 164.408 528.544 171.572 528.544 180.41H536.545C536.545 167.154 525.799 156.407 512.542 156.407V164.408ZM457.123 164.408H512.542V156.407H457.123V164.408ZM453.351 159.075C445.661 180.832 424.91 196.411 400.531 196.411V204.412C428.406 204.412 452.109 186.595 460.895 161.741L453.351 159.075ZM400.531 196.411C376.152 196.411 355.402 180.832 347.711 159.075L340.168 161.741C348.953 186.595 372.656 204.412 400.531 204.412V196.411Z" fill="{stroke_color}"/>
</svg>
