<svg width="800" height="800" viewBox="0 0 800 800" fill="none" xmlns="http://www.w3.org/2000/svg">
<rect x="400.284" y="521.061" width="38.5" height="38.5" transform="rotate(45 400.284 521.061)" fill="{feathers_color_1}" stroke="{stroke_color}" stroke-width="1.5" stroke-linejoin="round"/>
<rect x="400.284" y="593.061" width="38.5" height="38.5" transform="rotate(45 400.284 593.061)" fill="{feathers_color_1}" stroke="{stroke_color}" stroke-width="1.5" stroke-linejoin="round"/>
<rect x="374.284" y="485.061" width="38.5" height="38.5" transform="rotate(45 374.284 485.061)" fill="{feathers_color_2}" stroke="{stroke_color}" stroke-width="1.5" stroke-linejoin="round"/>
<rect x="426.285" y="485.061" width="38.5" height="38.5" transform="rotate(45 426.285 485.061)" fill="{feathers_color_2}" stroke="{stroke_color}" stroke-width="1.5" stroke-linejoin="round"/>
<rect x="374.284" y="557.061" width="38.5" height="38.5" transform="rotate(45 374.284 557.061)" fill="{feathers_color_3}" stroke="{stroke_color}" stroke-width="1.5" stroke-linejoin="round"/>
<rect x="426.285" y="557.061" width="38.5" height="38.5" transform="rotate(45 426.285 557.061)" fill="{feathers_color_3}" stroke="{stroke_color}" stroke-width="1.5" stroke-linejoin="round"/>
<rect x="348.284" y="449.061" width="38.5" height="38.5" transform="rotate(45 348.284 449.061)" fill="{feathers_color_3}" stroke="{stroke_color}" stroke-width="1.5" stroke-linejoin="round"/>
<rect x="400.285" y="449.061" width="38.5" height="38.5" transform="rotate(45 400.285 449.061)" fill="{feathers_color_3}" stroke="{stroke_color}" stroke-width="1.5" stroke-linejoin="round"/>
<rect x="452.285" y="449.061" width="38.5" height="38.5" transform="rotate(45 452.285 449.061)" fill="{feathers_color_3}" stroke="{stroke_color}" stroke-width="1.5" stroke-linejoin="round"/>
<rect x="322.284" y="413.061" width="38.5" height="38.5" transform="rotate(45 322.284 413.061)" fill="{feathers_color_1}" stroke="{stroke_color}" stroke-width="1.5" stroke-linejoin="round"/>
<rect x="374.285" y="413.061" width="38.5" height="38.5" transform="rotate(45 374.285 413.061)" fill="{feathers_color_1}" stroke="{stroke_color}" stroke-width="1.5" stroke-linejoin="round"/>
<rect x="426.285" y="413.061" width="38.5" height="38.5" transform="rotate(45 426.285 413.061)" fill="{feathers_color_1}" stroke="{stroke_color}" stroke-width="1.5" stroke-linejoin="round"/>
<rect x="478.285" y="413.061" width="38.5" height="38.5" transform="rotate(45 478.285 413.061)" fill="{feathers_color_1}" stroke="{stroke_color}" stroke-width="1.5" stroke-linejoin="round"/>
<rect x="296.284" y="377.061" width="38.5" height="38.5" transform="rotate(45 296.284 377.061)" fill="{feathers_color_2}" stroke="{stroke_color}" stroke-width="1.5" stroke-linejoin="round"/>
<rect x="348.284" y="377.061" width="38.5" height="38.5" transform="rotate(45 348.284 377.061)" fill="{feathers_color_2}" stroke="{stroke_color}" stroke-width="1.5" stroke-linejoin="round"/>
<rect x="400.284" y="377.061" width="38.5" height="38.5" transform="rotate(45 400.284 377.061)" fill="{feathers_color_2}" stroke="{stroke_color}" stroke-width="1.5" stroke-linejoin="round"/>
<rect x="452.284" y="377.061" width="38.5" height="38.5" transform="rotate(45 452.284 377.061)" fill="{feathers_color_2}" stroke="{stroke_color}" stroke-width="1.5" stroke-linejoin="round"/>
<rect x="504.284" y="377.061" width="38.5" height="38.5" transform="rotate(45 504.284 377.061)" fill="{feathers_color_2}" stroke="{stroke_color}" stroke-width="1.5" stroke-linejoin="round"/>
</svg>
