<svg width="801" height="801" viewBox="0 0 801 801" fill="none" xmlns="http://www.w3.org/2000/svg">
<path d="M400.38 418.693C347.873 400.915 320.308 416.847 307.072 442.755L323.074 458.756L342.2 439.63L361.327 458.756L380.454 439.63L399.581 458.756L418.708 439.63L437.835 458.756L456.961 439.63L476.088 458.756L493.14 441.704C479.698 416.421 452.173 401.156 400.38 418.693Z" fill="{feathers_color_1}"/>
<path d="M323.074 458.756L307.072 442.755C303.304 450.13 300.697 458.313 299.007 466.757L323.074 490.824L342.2 471.697L361.327 490.824L380.454 471.697L399.581 490.824L418.708 471.697L437.835 490.824L456.961 471.697L476.088 490.824L501.48 465.433C499.701 457.057 497.001 448.967 493.14 441.704L476.088 458.756L456.961 439.63L437.835 458.756L418.708 439.63L399.581 458.756L380.454 439.63L361.327 458.756L342.2 439.63L323.074 458.756Z" fill="{feathers_color_2}"/>
<path d="M323.074 490.824L299.007 466.757C297.017 476.695 296.296 486.993 296.446 496.76L323.074 523.388L342.2 504.261L361.327 523.388L380.454 504.261L400.207 524.014L419.959 504.261L439.086 523.388L456.961 505.513L474.837 523.388L504.332 493.893C504.31 484.552 503.472 474.812 501.48 465.433L476.088 490.824L456.961 471.697L437.835 490.824L418.708 471.697L399.581 490.824L380.454 471.697L361.327 490.824L342.2 471.697L323.074 490.824Z" fill="{feathers_color_3}"/>
<path d="M296.446 496.76C296.563 504.383 297.209 511.683 298.196 518.234C301.053 527.253 304.311 536.142 308.013 544.765L323.074 559.826L342.2 540.699L361.327 559.826L380.454 540.699L399.581 559.826L418.708 540.699L437.835 559.826L456.961 540.699L476.088 559.826L493.915 541.999C497.138 534.246 500.011 526.292 502.564 518.234C503.673 510.865 504.353 502.55 504.332 493.893L474.837 523.388L456.961 505.513L439.086 523.388L419.959 504.261L400.207 524.014L380.454 504.261L361.327 523.388L342.2 504.261L323.074 523.388L296.446 496.76Z" fill="{feathers_color_2}"/>
<path d="M323.074 559.826L308.013 544.765C314.596 560.102 322.58 574.597 332.199 587.487L342.2 577.486L361.327 596.613L380.454 577.486L399.581 596.613L419.959 576.234L440.338 596.613L460.716 576.234L470.004 585.523C479.548 572.35 487.438 557.579 493.915 541.999L476.088 559.826L456.961 540.699L437.835 559.826L418.708 540.699L399.581 559.826L380.454 540.699L361.327 559.826L342.2 540.699L323.074 559.826Z" fill="{feathers_color_1}"/>
<path d="M332.199 587.487C349.312 610.418 371.6 628.267 400.38 636.724C429.976 628.027 452.707 609.398 470.004 585.523L460.716 576.234L440.338 596.613L419.959 576.234L399.581 596.613L380.454 577.486L361.327 596.613L342.2 577.486L332.199 587.487Z" fill="{feathers_color_2}"/>
<path d="M400.553 383.748C402.21 383.748 403.553 382.405 403.553 380.748C403.553 379.091 402.21 377.748 400.553 377.748V383.748ZM280.54 380.748V377.748C278.936 377.748 277.616 379.009 277.543 380.611L280.54 380.748ZM399.711 639.655C401.301 640.12 402.968 639.207 403.433 637.617C403.897 636.026 402.985 634.36 401.395 633.895L399.711 639.655ZM399.588 421.593C401.157 422.126 402.861 421.286 403.394 419.717C403.927 418.148 403.087 416.444 401.518 415.911L399.588 421.593ZM400.207 377.748C398.55 377.748 397.206 379.091 397.206 380.748C397.206 382.405 398.55 383.748 400.207 383.748V377.748ZM520.219 380.748L523.217 380.611C523.143 379.009 521.823 377.748 520.219 377.748V380.748ZM399.365 633.895C397.774 634.36 396.862 636.026 397.327 637.617C397.792 639.207 399.458 640.12 401.048 639.655L399.365 633.895ZM399.242 415.911C397.673 416.444 396.833 418.148 397.366 419.717C397.899 421.286 399.603 422.126 401.172 421.593L399.242 415.911ZM323.074 458.756L320.952 460.878C321.515 461.441 322.278 461.757 323.074 461.757C323.869 461.757 324.633 461.441 325.195 460.878L323.074 458.756ZM342.2 439.63L344.322 437.508C343.759 436.945 342.996 436.629 342.2 436.629C341.405 436.629 340.642 436.945 340.079 437.508L342.2 439.63ZM361.327 458.756L359.206 460.878C359.768 461.441 360.532 461.757 361.327 461.757C362.123 461.757 362.886 461.441 363.449 460.878L361.327 458.756ZM380.454 439.63L382.576 437.508C382.013 436.945 381.25 436.629 380.454 436.629C379.658 436.629 378.895 436.945 378.333 437.508L380.454 439.63ZM399.581 458.756L397.459 460.878C398.022 461.441 398.785 461.757 399.581 461.757C400.377 461.757 401.14 461.441 401.702 460.878L399.581 458.756ZM418.708 439.63L420.829 437.508C419.658 436.336 417.758 436.336 416.586 437.508L418.708 439.63ZM437.835 458.756L435.713 460.878C436.885 462.05 438.784 462.05 439.956 460.878L437.835 458.756ZM456.961 439.63L459.083 437.508C457.911 436.336 456.011 436.336 454.84 437.508L456.961 439.63ZM476.088 458.756L473.967 460.878C474.529 461.441 475.292 461.757 476.088 461.757C476.884 461.757 477.647 461.441 478.21 460.878L476.088 458.756ZM493.14 441.704L495.789 440.296L493.14 441.704ZM299.007 466.757L296.065 466.168L299.007 466.757ZM323.074 490.824L320.952 492.946C321.515 493.508 322.278 493.825 323.074 493.825C323.869 493.825 324.633 493.508 325.195 492.946L323.074 490.824ZM342.2 471.697L344.322 469.576C343.759 469.013 342.996 468.697 342.2 468.697C341.405 468.697 340.642 469.013 340.079 469.576L342.2 471.697ZM361.327 490.824L359.206 492.946C359.768 493.508 360.532 493.825 361.327 493.825C362.123 493.825 362.886 493.508 363.449 492.946L361.327 490.824ZM380.454 471.697L382.576 469.576C382.013 469.013 381.25 468.697 380.454 468.697C379.658 468.697 378.895 469.013 378.333 469.576L380.454 471.697ZM399.581 490.824L397.459 492.946C398.022 493.508 398.785 493.825 399.581 493.825C400.377 493.825 401.14 493.508 401.702 492.946L399.581 490.824ZM418.708 471.697L420.829 469.576C420.267 469.013 419.503 468.697 418.708 468.697C417.912 468.697 417.149 469.013 416.586 469.576L418.708 471.697ZM437.835 490.824L435.713 492.946C436.276 493.508 437.039 493.825 437.835 493.825C438.63 493.825 439.393 493.508 439.956 492.946L437.835 490.824ZM456.961 471.697L459.083 469.576C458.52 469.013 457.757 468.697 456.961 468.697C456.166 468.697 455.402 469.013 454.84 469.576L456.961 471.697ZM476.088 490.824L473.967 492.946C475.138 494.118 477.038 494.118 478.21 492.946L476.088 490.824ZM501.48 465.433L504.415 464.809L501.48 465.433ZM296.446 496.76L293.446 496.806L296.446 496.76ZM323.074 523.388L320.952 525.51C321.515 526.072 322.278 526.388 323.074 526.388C323.869 526.388 324.633 526.072 325.195 525.51L323.074 523.388ZM342.2 504.261L344.322 502.14C343.759 501.577 342.996 501.261 342.2 501.261C341.405 501.261 340.642 501.577 340.079 502.14L342.2 504.261ZM361.327 523.388L359.206 525.51C359.768 526.072 360.532 526.388 361.327 526.388C362.123 526.388 362.886 526.072 363.449 525.51L361.327 523.388ZM380.454 504.261L382.576 502.14C382.013 501.577 381.25 501.261 380.454 501.261C379.658 501.261 378.895 501.577 378.333 502.14L380.454 504.261ZM400.207 524.014L398.085 526.135C398.648 526.698 399.411 527.014 400.207 527.014C401.002 527.014 401.766 526.698 402.328 526.135L400.207 524.014ZM419.959 504.261L422.081 502.14C421.518 501.577 420.755 501.261 419.959 501.261C419.164 501.261 418.4 501.577 417.838 502.14L419.959 504.261ZM439.086 523.388L436.965 525.51C437.527 526.072 438.29 526.388 439.086 526.388C439.882 526.388 440.645 526.072 441.208 525.51L439.086 523.388ZM456.961 505.513L459.083 503.391C458.52 502.829 457.757 502.513 456.961 502.513C456.166 502.513 455.402 502.829 454.84 503.391L456.961 505.513ZM474.837 523.388L472.715 525.51C473.278 526.072 474.041 526.388 474.837 526.388C475.632 526.388 476.395 526.072 476.958 525.51L474.837 523.388ZM308.013 544.765L305.256 545.949L308.013 544.765ZM323.074 559.826L320.952 561.948C321.515 562.51 322.278 562.826 323.074 562.826C323.869 562.826 324.633 562.51 325.195 561.948L323.074 559.826ZM342.2 540.699L344.322 538.578C343.759 538.015 342.996 537.699 342.2 537.699C341.405 537.699 340.642 538.015 340.079 538.578L342.2 540.699ZM361.327 559.826L359.206 561.948C359.768 562.51 360.532 562.826 361.327 562.826C362.123 562.826 362.886 562.51 363.449 561.948L361.327 559.826ZM380.454 540.699L382.576 538.578C382.013 538.015 381.25 537.699 380.454 537.699C379.658 537.699 378.895 538.015 378.333 538.578L380.454 540.699ZM399.581 559.826L397.459 561.948C398.022 562.51 398.785 562.826 399.581 562.826C400.377 562.826 401.14 562.51 401.702 561.948L399.581 559.826ZM418.708 540.699L420.829 538.578C420.267 538.015 419.503 537.699 418.708 537.699C417.912 537.699 417.149 538.015 416.586 538.578L418.708 540.699ZM437.835 559.826L435.713 561.948C436.276 562.51 437.039 562.826 437.835 562.826C438.63 562.826 439.393 562.51 439.956 561.948L437.835 559.826ZM456.961 540.699L459.083 538.578C458.52 538.015 457.757 537.699 456.961 537.699C456.166 537.699 455.402 538.015 454.84 538.578L456.961 540.699ZM476.088 559.826L473.967 561.948C474.529 562.51 475.292 562.826 476.088 562.826C476.884 562.826 477.647 562.51 478.21 561.948L476.088 559.826ZM342.2 577.486L344.322 575.364C343.759 574.802 342.996 574.486 342.2 574.486C341.405 574.486 340.642 574.802 340.079 575.364L342.2 577.486ZM361.327 596.613L359.206 598.734C359.768 599.297 360.532 599.613 361.327 599.613C362.123 599.613 362.886 599.297 363.449 598.734L361.327 596.613ZM380.454 577.486L382.576 575.364C382.013 574.802 381.25 574.486 380.454 574.486C379.658 574.486 378.895 574.802 378.333 575.364L380.454 577.486ZM399.581 596.613L397.459 598.734C398.022 599.297 398.785 599.613 399.581 599.613C400.377 599.613 401.14 599.297 401.702 598.734L399.581 596.613ZM419.959 576.234L422.081 574.113C421.518 573.55 420.755 573.234 419.959 573.234C419.164 573.234 418.4 573.55 417.838 574.113L419.959 576.234ZM440.338 596.613L438.216 598.734C438.779 599.297 439.542 599.613 440.338 599.613C441.133 599.613 441.897 599.297 442.459 598.734L440.338 596.613ZM460.716 576.234L462.838 574.113C462.275 573.55 461.512 573.234 460.716 573.234C459.92 573.234 459.157 573.55 458.595 574.113L460.716 576.234ZM400.553 377.748H280.54V383.748H400.553V377.748ZM277.543 380.611C275.933 415.712 279.562 469.35 295.336 519.14L301.056 517.328C285.541 468.354 281.952 415.447 283.537 380.886L277.543 380.611ZM400.207 383.748H520.219V377.748H400.207V383.748ZM517.222 380.886C518.808 415.447 515.218 468.354 499.703 517.328L505.424 519.14C521.197 469.35 524.827 415.712 523.217 380.611L517.222 380.886ZM304.95 444.876L320.952 460.878L325.195 456.635L309.194 440.633L304.95 444.876ZM325.195 460.878L344.322 441.751L340.079 437.508L320.952 456.635L325.195 460.878ZM340.079 441.751L359.206 460.878L363.449 456.635L344.322 437.508L340.079 441.751ZM363.449 460.878L382.576 441.751L378.333 437.508L359.206 456.635L363.449 460.878ZM378.333 441.751L397.459 460.878L401.702 456.635L382.576 437.508L378.333 441.751ZM401.702 460.878L420.829 441.751L416.586 437.508L397.459 456.635L401.702 460.878ZM416.586 441.751L435.713 460.878L439.956 456.635L420.829 437.508L416.586 441.751ZM439.956 460.878L459.083 441.751L454.84 437.508L435.713 456.635L439.956 460.878ZM454.84 441.751L473.967 460.878L478.21 456.635L459.083 437.508L454.84 441.751ZM478.21 460.878L495.262 443.826L491.019 439.583L473.967 456.635L478.21 460.878ZM301.948 467.346C303.597 459.11 306.127 451.199 309.744 444.12L304.4 441.39C300.481 449.06 297.797 457.516 296.065 466.168L301.948 467.346ZM296.885 468.879L320.952 492.946L325.195 488.703L301.128 464.636L296.885 468.879ZM325.195 492.946L344.322 473.819L340.079 469.576L320.952 488.703L325.195 492.946ZM340.079 473.819L359.206 492.946L363.449 488.703L344.322 469.576L340.079 473.819ZM363.449 492.946L382.576 473.819L378.333 469.576L359.206 488.703L363.449 492.946ZM378.333 473.819L397.459 492.946L401.702 488.703L382.576 469.576L378.333 473.819ZM401.702 492.946L420.829 473.819L416.586 469.576L397.459 488.703L401.702 492.946ZM416.586 473.819L435.713 492.946L439.956 488.703L420.829 469.576L416.586 473.819ZM439.956 492.946L459.083 473.819L454.84 469.576L435.713 488.703L439.956 492.946ZM454.84 473.819L473.967 492.946L478.21 488.703L459.083 469.576L454.84 473.819ZM504.415 464.809C502.591 456.222 499.809 447.856 495.789 440.296L490.491 443.113C494.194 450.078 496.811 457.891 498.545 466.056L504.415 464.809ZM478.21 492.946L503.601 467.554L499.358 463.311L473.967 488.703L478.21 492.946ZM301.163 517.787C300.196 511.366 299.56 504.2 299.446 496.714L293.446 496.806C293.565 504.566 294.223 512 295.229 518.681L301.163 517.787ZM299.446 496.714C299.299 487.119 300.008 477.037 301.948 467.346L296.065 466.168C294.026 476.352 293.294 486.868 293.446 496.806L299.446 496.714ZM294.324 498.882L320.952 525.51L325.195 521.267L298.567 494.639L294.324 498.882ZM325.195 525.51L344.322 506.383L340.079 502.14L320.952 521.267L325.195 525.51ZM340.079 506.383L359.206 525.51L363.449 521.267L344.322 502.14L340.079 506.383ZM363.449 525.51L382.576 506.383L378.333 502.14L359.206 521.267L363.449 525.51ZM378.333 506.383L398.085 526.135L402.328 521.892L382.576 502.14L378.333 506.383ZM402.328 526.135L422.081 506.383L417.838 502.14L398.085 521.892L402.328 526.135ZM417.838 506.383L436.965 525.51L441.208 521.267L422.081 502.14L417.838 506.383ZM441.208 525.51L459.083 507.634L454.84 503.391L436.965 521.267L441.208 525.51ZM454.84 507.634L472.715 525.51L476.958 521.267L459.083 503.391L454.84 507.634ZM505.53 518.681C506.662 511.167 507.354 502.7 507.332 493.885L501.332 493.9C501.352 502.4 500.685 510.564 499.597 517.787L505.53 518.681ZM507.332 493.885C507.309 484.378 506.457 474.428 504.415 464.809L498.545 466.056C500.486 475.197 501.31 484.726 501.332 493.9L507.332 493.885ZM476.958 525.51L506.454 496.014L502.211 491.771L472.715 521.267L476.958 525.51ZM295.336 519.14C298.219 528.243 301.512 537.226 305.256 545.949L310.77 543.582C307.111 535.058 303.886 526.263 301.056 517.328L295.336 519.14ZM305.891 546.887L320.952 561.948L325.195 557.705L310.134 542.644L305.891 546.887ZM325.195 561.948L344.322 542.821L340.079 538.578L320.952 557.705L325.195 561.948ZM340.079 542.821L359.206 561.948L363.449 557.705L344.322 538.578L340.079 542.821ZM363.449 561.948L382.576 542.821L378.333 538.578L359.206 557.705L363.449 561.948ZM378.333 542.821L397.459 561.948L401.702 557.705L382.576 538.578L378.333 542.821ZM401.702 561.948L420.829 542.821L416.586 538.578L397.459 557.705L401.702 561.948ZM416.586 542.821L435.713 561.948L439.956 557.705L420.829 538.578L416.586 542.821ZM439.956 561.948L459.083 542.821L454.84 538.578L435.713 557.705L439.956 561.948ZM454.84 542.821L473.967 561.948L478.21 557.705L459.083 538.578L454.84 542.821ZM499.703 517.328C497.175 525.31 494.331 533.182 491.144 540.848L496.685 543.151C499.945 535.31 502.847 527.273 505.424 519.14L499.703 517.328ZM478.21 561.948L496.037 544.121L491.793 539.878L473.967 557.705L478.21 561.948ZM305.256 545.949C311.914 561.459 320.009 576.169 329.795 589.282L334.604 585.693C325.151 573.026 317.278 558.744 310.77 543.582L305.256 545.949ZM334.321 589.609L344.322 579.608L340.079 575.364L330.078 585.366L334.321 589.609ZM340.079 579.608L359.206 598.734L363.449 594.491L344.322 575.364L340.079 579.608ZM363.449 598.734L382.576 579.608L378.333 575.364L359.206 594.491L363.449 598.734ZM378.333 579.608L397.459 598.734L401.702 594.491L382.576 575.364L378.333 579.608ZM401.702 598.734L422.081 578.356L417.838 574.113L397.459 594.491L401.702 598.734ZM417.838 578.356L438.216 598.734L442.459 594.491L422.081 574.113L417.838 578.356ZM442.459 598.734L462.838 578.356L458.595 574.113L438.216 594.491L442.459 598.734ZM491.144 540.848C484.74 556.255 476.957 570.813 467.575 583.762L472.434 587.283C482.14 573.887 490.137 558.903 496.685 543.151L491.144 540.848ZM458.595 578.356L467.883 587.644L472.126 583.401L462.838 574.113L458.595 578.356ZM401.342 415.852C374.712 406.835 353.989 406.222 338.057 411.493C322.057 416.787 311.303 427.879 304.4 441.39L309.744 444.12C316.077 431.723 325.724 421.894 339.942 417.19C354.228 412.463 373.541 412.773 399.417 421.535L401.342 415.852ZM495.789 440.296C488.771 427.095 477.966 416.346 462.051 411.282C446.206 406.24 425.686 406.957 399.417 415.852L401.342 421.535C426.867 412.893 446.006 412.473 460.232 417C474.388 421.505 484.067 431.03 490.491 443.113L495.789 440.296ZM399.417 415.852C399.359 415.871 399.301 415.891 399.242 415.911L401.172 421.593C401.228 421.574 401.285 421.555 401.342 421.535L399.417 415.852ZM399.417 421.535C399.474 421.554 399.531 421.574 399.588 421.593L401.518 415.911C401.459 415.891 401.4 415.871 401.342 415.852L399.417 421.535ZM329.795 589.282C347.216 612.626 370.014 630.928 399.534 639.603L401.226 633.846C373.186 625.606 351.408 608.21 334.604 585.693L329.795 589.282ZM401.226 639.603C431.585 630.681 454.832 611.579 472.434 587.283L467.575 583.762C450.582 607.216 428.367 625.372 399.534 633.846L401.226 639.603ZM399.534 633.846C399.478 633.862 399.421 633.879 399.365 633.895L401.048 639.655C401.107 639.638 401.167 639.62 401.226 639.603L399.534 633.846ZM399.534 639.603C399.593 639.62 399.652 639.638 399.711 639.655L401.395 633.895C401.338 633.879 401.282 633.862 401.226 633.846L399.534 639.603Z" fill="{stroke_color}"/>
</svg>
