<svg width="801" height="802" viewBox="0 0 801 802" fill="none" xmlns="http://www.w3.org/2000/svg">
<path d="M400.207 532.995C438.877 531.386 516.219 498.731 516.219 380.979C516.219 458.447 438.877 479.931 400.207 480.989C361.536 479.931 284.194 458.447 284.194 380.979C284.194 498.731 361.536 531.386 400.207 532.995Z" fill="{feathers_color_2}"/>
<path d="M400.207 589.001C438.877 586.799 516.219 542.113 516.219 380.979C516.219 498.731 438.877 531.386 400.207 532.995C361.536 531.386 284.194 498.731 284.194 380.979C284.194 542.113 361.536 586.799 400.207 589.001Z" fill="{feathers_color_3}"/>
<path d="M400.207 637.006C438.877 634.296 516.219 579.298 516.219 380.979C516.219 542.113 438.877 586.799 400.207 589.001C361.536 586.799 284.194 542.113 284.194 380.979C284.194 579.298 361.536 634.296 400.207 637.006Z" fill="{feathers_color_2}"/>
<path d="M284.194 380.979V377.978C282.537 377.978 281.194 379.321 281.194 380.979H284.194ZM516.219 380.979H519.219C519.219 379.321 517.876 377.978 516.219 377.978V380.979ZM400.207 637.006L399.997 639.999C400.137 640.008 400.277 640.008 400.416 639.999L400.207 637.006ZM400.207 589.001L400.036 591.996C400.15 592.002 400.264 592.002 400.377 591.996L400.207 589.001ZM400.207 532.995L400.082 535.992C400.165 535.996 400.248 535.996 400.331 535.992L400.207 532.995ZM400.207 480.989L400.125 483.988C400.179 483.99 400.234 483.99 400.289 483.988L400.207 480.989ZM513.219 380.979C513.219 578.888 436.153 631.48 399.997 634.013L400.416 639.999C441.602 637.113 519.219 579.708 519.219 380.979H513.219ZM281.194 380.979C281.194 579.708 358.811 637.113 399.997 639.999L400.416 634.013C364.26 631.48 287.195 578.888 287.195 380.979H281.194ZM516.219 377.978H284.194V383.979H516.219V377.978ZM513.219 380.979C513.219 541.124 436.58 583.925 400.036 586.005L400.377 591.996C441.174 589.674 519.219 543.102 519.219 380.979H513.219ZM281.194 380.979C281.194 543.102 359.239 589.674 400.036 591.996L400.377 586.005C363.833 583.925 287.195 541.124 287.195 380.979H281.194ZM513.219 380.979C513.219 439.141 494.146 475.922 470.642 498.371C447.054 520.899 418.768 529.22 400.082 529.997L400.331 535.992C420.316 535.161 450.036 526.349 474.787 502.71C499.621 478.99 519.219 440.568 519.219 380.979H513.219ZM281.194 380.979C281.194 440.568 300.792 478.99 325.627 502.71C350.377 526.349 380.097 535.161 400.082 535.992L400.331 529.997C381.646 529.22 353.359 520.899 329.771 498.371C306.268 475.922 287.195 439.141 287.195 380.979H281.194ZM513.219 380.979C513.219 418.5 494.579 442.356 471.118 457.097C447.516 471.927 419.075 477.471 400.125 477.99L400.289 483.988C420.01 483.449 449.574 477.722 474.311 462.178C499.188 446.546 519.219 420.926 519.219 380.979H513.219ZM281.194 380.979C281.194 420.926 301.225 446.546 326.103 462.178C350.84 477.722 380.404 483.449 400.125 483.988L400.289 477.99C381.339 477.471 352.897 471.927 329.295 457.097C305.834 442.356 287.195 418.5 287.195 380.979H281.194Z" fill="{stroke_color}"/>
</svg>
