<svg width="800" height="800" viewBox="0 0 800 800" fill="none" xmlns="http://www.w3.org/2000/svg">
<path d="M419.35 598C419.35 609.739 408.95 619.35 396 619.35C383.05 619.35 372.65 609.739 372.65 598C372.65 586.261 383.05 576.65 396 576.65C408.95 576.65 419.35 586.261 419.35 598Z" fill="{feathers_color_1}" stroke="{stroke_color}" stroke-width="1.3"/>
<path d="M399.35 582C399.35 593.739 388.95 603.35 376 603.35C363.05 603.35 352.65 593.739 352.65 582C352.65 570.261 363.05 560.65 376 560.65C388.95 560.65 399.35 570.261 399.35 582Z" fill="{feathers_color_2}" stroke="{stroke_color}" stroke-width="1.3"/>
<path d="M443.35 582C443.35 593.739 432.95 603.35 420 603.35C407.05 603.35 396.65 593.739 396.65 582C396.65 570.261 407.05 560.65 420 560.65C432.95 560.65 443.35 570.261 443.35 582Z" fill="{feathers_color_2}" stroke="{stroke_color}" stroke-width="1.3"/>
<path d="M419.35 566C419.35 577.739 408.95 587.35 396 587.35C383.05 587.35 372.65 577.739 372.65 566C372.65 554.261 383.05 544.65 396 544.65C408.95 544.65 419.35 554.261 419.35 566Z" fill="{feathers_color_3}" stroke="{stroke_color}" stroke-width="1.3"/>
<path d="M399.35 546C399.35 557.739 388.95 567.35 376 567.35C363.05 567.35 352.65 557.739 352.65 546C352.65 534.261 363.05 524.65 376 524.65C388.95 524.65 399.35 534.261 399.35 546Z" fill="{feathers_color_1}" stroke="{stroke_color}" stroke-width="1.3"/>
<path d="M443.35 546C443.35 557.739 432.95 567.35 420 567.35C407.05 567.35 396.65 557.739 396.65 546C396.65 534.261 407.05 524.65 420 524.65C432.95 524.65 443.35 534.261 443.35 546Z" fill="{feathers_color_1}" stroke="{stroke_color}" stroke-width="1.3"/>
<path d="M419.35 526C419.35 537.739 408.95 547.35 396 547.35C383.05 547.35 372.65 537.739 372.65 526C372.65 514.261 383.05 504.65 396 504.65C408.95 504.65 419.35 514.261 419.35 526Z" fill="{feathers_color_2}" stroke="{stroke_color}" stroke-width="1.3"/>
<path d="M399.35 506C399.35 517.739 388.95 527.35 376 527.35C363.05 527.35 352.65 517.739 352.65 506C352.65 494.261 363.05 484.65 376 484.65C388.95 484.65 399.35 494.261 399.35 506Z" fill="{feathers_color_3}" stroke="{stroke_color}" stroke-width="1.3"/>
<path d="M443.35 506C443.35 517.739 432.95 527.35 420 527.35C407.05 527.35 396.65 517.739 396.65 506C396.65 494.261 407.05 484.65 420 484.65C432.95 484.65 443.35 494.261 443.35 506Z" fill="{feathers_color_3}" stroke="{stroke_color}" stroke-width="1.3"/>
<path d="M419.35 490C419.35 501.739 408.95 511.35 396 511.35C383.05 511.35 372.65 501.739 372.65 490C372.65 478.261 383.05 468.65 396 468.65C408.95 468.65 419.35 478.261 419.35 490Z" fill="{feathers_color_1}" stroke="{stroke_color}" stroke-width="1.3"/>
<path d="M399.35 470C399.35 481.739 388.95 491.35 376 491.35C363.05 491.35 352.65 481.739 352.65 470C352.65 458.261 363.05 448.65 376 448.65C388.95 448.65 399.35 458.261 399.35 470Z" fill="{feathers_color_2}" stroke="{stroke_color}" stroke-width="1.3"/>
<path d="M443.35 470C443.35 481.739 432.95 491.35 420 491.35C407.05 491.35 396.65 481.739 396.65 470C396.65 458.261 407.05 448.65 420 448.65C432.95 448.65 443.35 458.261 443.35 470Z" fill="{feathers_color_2}" stroke="{stroke_color}" stroke-width="1.3"/>
<path d="M379.35 450C379.35 461.739 368.95 471.35 356 471.35C343.05 471.35 332.65 461.739 332.65 450C332.65 438.261 343.05 428.65 356 428.65C368.95 428.65 379.35 438.261 379.35 450Z" fill="{feathers_color_3}" stroke="{stroke_color}" stroke-width="1.3"/>
<path d="M423.35 450C423.35 461.739 412.95 471.35 400 471.35C387.05 471.35 376.65 461.739 376.65 450C376.65 438.261 387.05 428.65 400 428.65C412.95 428.65 423.35 438.261 423.35 450Z" fill="{feathers_color_3}" stroke="{stroke_color}" stroke-width="1.3"/>
<path d="M467.35 450C467.35 461.739 456.95 471.35 444 471.35C431.05 471.35 420.65 461.739 420.65 450C420.65 438.261 431.05 428.65 444 428.65C456.95 428.65 467.35 438.261 467.35 450Z" fill="{feathers_color_3}" stroke="{stroke_color}" stroke-width="1.3"/>
<path d="M359.35 430C359.35 441.739 348.95 451.35 336 451.35C323.05 451.35 312.65 441.739 312.65 430C312.65 418.261 323.05 408.65 336 408.65C348.95 408.65 359.35 418.261 359.35 430Z" fill="{feathers_color_1}" stroke="{stroke_color}" stroke-width="1.3"/>
<path d="M403.35 430C403.35 441.739 392.95 451.35 380 451.35C367.05 451.35 356.65 441.739 356.65 430C356.65 418.261 367.05 408.65 380 408.65C392.95 408.65 403.35 418.261 403.35 430Z" fill="{feathers_color_1}" stroke="{stroke_color}" stroke-width="1.3"/>
<path d="M447.35 430C447.35 441.739 436.95 451.35 424 451.35C411.05 451.35 400.65 441.739 400.65 430C400.65 418.261 411.05 408.65 424 408.65C436.95 408.65 447.35 418.261 447.35 430Z" fill="{feathers_color_1}" stroke="{stroke_color}" stroke-width="1.3"/>
<path d="M491.35 430C491.35 441.739 480.95 451.35 468 451.35C455.05 451.35 444.65 441.739 444.65 430C444.65 418.261 455.05 408.65 468 408.65C480.95 408.65 491.35 418.261 491.35 430Z" fill="{feathers_color_1}" stroke="{stroke_color}" stroke-width="1.3"/>
<path d="M335.35 410C335.35 421.739 324.95 431.35 312 431.35C299.05 431.35 288.65 421.739 288.65 410C288.65 398.261 299.05 388.65 312 388.65C324.95 388.65 335.35 398.261 335.35 410Z" fill="{feathers_color_2}" stroke="{stroke_color}" stroke-width="1.3"/>
<path d="M379.35 410C379.35 421.739 368.95 431.35 356 431.35C343.05 431.35 332.65 421.739 332.65 410C332.65 398.261 343.05 388.65 356 388.65C368.95 388.65 379.35 398.261 379.35 410Z" fill="{feathers_color_2}" stroke="{stroke_color}" stroke-width="1.3"/>
<path d="M423.35 410C423.35 421.739 412.95 431.35 400 431.35C387.05 431.35 376.65 421.739 376.65 410C376.65 398.261 387.05 388.65 400 388.65C412.95 388.65 423.35 398.261 423.35 410Z" fill="{feathers_color_2}" stroke="{stroke_color}" stroke-width="1.3"/>
<path d="M467.35 410C467.35 421.739 456.95 431.35 444 431.35C431.05 431.35 420.65 421.739 420.65 410C420.65 398.261 431.05 388.65 444 388.65C456.95 388.65 467.35 398.261 467.35 410Z" fill="{feathers_color_2}" stroke="{stroke_color}" stroke-width="1.3"/>
<path d="M511.35 410C511.35 421.739 500.95 431.35 488 431.35C475.05 431.35 464.65 421.739 464.65 410C464.65 398.261 475.05 388.65 488 388.65C500.95 388.65 511.35 398.261 511.35 410Z" fill="{feathers_color_2}" stroke="{stroke_color}" stroke-width="1.3"/>
</svg>
