<svg width="801" height="801" viewBox="0 0 801 801" fill="none" xmlns="http://www.w3.org/2000/svg">
<path d="M400.207 528.221V572.225L485.211 528.221C491.697 510.514 497.279 492.18 502.002 474.215L400.207 528.221Z" fill="{feathers_color_3}"/>
<path d="M400.207 528.221L298.413 474.215C303.135 492.18 308.717 510.514 315.204 528.221L400.207 572.225V528.221Z" fill="{feathers_color_3}"/>
<path d="M400.207 484.216L287.116 424.21C290.111 439.944 293.863 456.909 298.413 474.215L400.207 528.221V484.216Z" fill="{feathers_color_2}"/>
<path d="M400.207 484.216V528.221L502.002 474.215C506.551 456.909 510.303 439.944 513.298 424.21L400.207 484.216Z" fill="{feathers_color_2}"/>
<path d="M400.207 572.225L315.204 528.221C321.372 545.06 328.358 561.332 336.201 576.184C341.952 587.076 348.164 597.203 354.853 606.229C365.304 602.229 389.006 597.828 400.207 612.23V572.225Z" fill="{feathers_color_2}"/>
<path d="M400.207 572.225V612.23C409.808 597.828 434.444 602.229 445.562 606.229C452.25 597.203 458.462 587.076 464.214 576.184C472.057 561.332 479.043 545.06 485.211 528.221L400.207 572.225Z" fill="{feathers_color_2}"/>
<path d="M400.207 438.211L400.291 435.212C400.235 435.211 400.179 435.211 400.124 435.212L400.207 438.211ZM280.195 380.205L282.529 378.321C281.689 377.28 280.261 376.921 279.028 377.441C277.796 377.961 277.056 379.234 277.216 380.563L280.195 380.205ZM287.116 424.21L284.169 424.771L287.116 424.21ZM298.413 474.215L295.511 474.978L298.413 474.215ZM315.204 528.221L312.386 529.253L315.204 528.221ZM336.201 576.184L333.547 577.585L336.201 576.184ZM400.207 644.233L399.12 647.03C399.82 647.301 400.595 647.301 401.294 647.03L400.207 644.233ZM520.22 380.205L523.199 380.563C523.358 379.234 522.619 377.961 521.386 377.441C520.154 376.921 518.725 377.28 517.885 378.321L520.22 380.205ZM513.298 424.21L516.246 424.771L513.298 424.21ZM502.002 474.215L504.904 474.978L502.002 474.215ZM485.211 528.221L488.028 529.253L485.211 528.221ZM464.214 576.184L466.867 577.585L464.214 576.184ZM445.562 606.229L447.972 608.015L445.562 606.229ZM400.124 435.212C376.9 435.861 320.518 425.394 282.529 378.321L277.86 382.089C317.353 431.027 375.79 441.895 400.291 441.21L400.124 435.212ZM277.216 380.563C278.747 393.318 281.05 408.385 284.169 424.771L290.064 423.649C286.969 407.388 284.687 392.457 283.174 379.847L277.216 380.563ZM403.208 484.216V438.211H397.207V484.216H403.208ZM285.71 426.86L398.801 486.866L401.614 481.566L288.522 421.559L285.71 426.86ZM284.169 424.771C287.175 440.567 290.942 457.599 295.511 474.978L301.314 473.452C296.784 456.218 293.047 439.321 290.064 423.649L284.169 424.771ZM403.208 528.221V484.216H397.207V528.221H403.208ZM297.007 476.865L398.801 530.871L401.613 525.57L299.819 471.565L297.007 476.865ZM295.511 474.978C300.253 493.017 305.862 511.442 312.386 529.253L318.021 527.189C311.572 509.585 306.018 491.343 301.314 473.452L295.511 474.978ZM403.208 572.225V528.221H397.207V572.225H403.208ZM313.824 530.885L398.828 574.89L401.587 569.561L316.583 525.556L313.824 530.885ZM312.386 529.253C318.59 546.188 325.628 562.589 333.547 577.585L338.854 574.783C331.087 560.076 324.154 543.932 318.021 527.189L312.386 529.253ZM403.208 644.233V612.23H397.207V644.233H403.208ZM403.208 612.23V572.225H397.207V612.23H403.208ZM400.124 441.21C424.625 441.895 483.061 431.027 522.555 382.089L517.885 378.321C479.897 425.394 423.514 435.861 400.291 435.212L400.124 441.21ZM517.241 379.847C515.727 392.457 513.446 407.388 510.351 423.649L516.246 424.771C519.365 408.385 521.668 393.318 523.199 380.563L517.241 379.847ZM511.892 421.559L398.801 481.566L401.614 486.866L514.705 426.86L511.892 421.559ZM510.351 423.649C507.368 439.321 503.631 456.218 499.1 473.452L504.904 474.978C509.472 457.599 513.239 440.567 516.246 424.771L510.351 423.649ZM500.596 471.565L398.801 525.57L401.613 530.871L503.408 476.865L500.596 471.565ZM499.1 473.452C494.397 491.343 488.842 509.585 482.394 527.189L488.028 529.253C494.552 511.442 500.161 493.017 504.904 474.978L499.1 473.452ZM483.832 525.556L398.828 569.561L401.587 574.89L486.59 530.885L483.832 525.556ZM482.394 527.189C476.261 543.932 469.327 560.076 461.561 574.783L466.867 577.585C474.786 562.589 481.825 546.188 488.028 529.253L482.394 527.189ZM333.547 577.585C339.355 588.583 345.646 598.844 352.442 608.015L357.263 604.443C350.683 595.562 344.549 585.568 338.854 574.783L333.547 577.585ZM352.442 608.015C365.852 626.111 381.346 640.122 399.12 647.03L401.294 641.436C384.956 635.087 370.293 622.026 357.263 604.443L352.442 608.015ZM355.925 609.031C360.868 607.139 369.016 605.139 377.179 605.328C385.364 605.518 393.02 607.876 397.839 614.072L402.576 610.388C396.193 602.181 386.398 599.539 377.318 599.329C368.217 599.118 359.288 601.319 353.78 603.427L355.925 609.031ZM461.561 574.783C455.865 585.568 449.732 595.562 443.151 604.443L447.972 608.015C454.768 598.844 461.059 588.583 466.867 577.585L461.561 574.783ZM443.151 604.443C430.122 622.026 415.458 635.087 399.12 641.436L401.294 647.03C419.069 640.122 434.563 626.111 447.972 608.015L443.151 604.443ZM446.578 603.406C440.765 601.314 431.453 599.119 422.247 599.329C413.114 599.538 403.317 602.157 397.711 610.565L402.704 613.894C406.699 607.901 414.02 605.519 422.384 605.328C430.676 605.139 439.241 607.143 444.546 609.052L446.578 603.406Z" fill="{stroke_color}"/>
</svg>
