<svg width="800" height="800" viewBox="0 0 800 800" fill="none" xmlns="http://www.w3.org/2000/svg">
<path d="M476.732 374.735C450.827 371.511 418.391 368 400 368C381.609 368 349.174 371.511 323.269 374.735C304.588 377.06 290.828 392.157 289.937 410H510.064C509.172 392.157 495.412 377.06 476.732 374.735Z" fill="{feathers_color_2}"/>
<path d="M290.592 419.063C292.36 428.14 294.4 437.866 296.713 448H503.287C505.6 437.866 507.64 428.14 509.408 419.063C510.005 415.997 510.211 412.961 510.064 410H289.937C289.789 412.961 289.995 415.997 290.592 419.063Z" fill="{feathers_color_1}"/>
<path d="M305.716 484H494.284C497.641 471.706 500.642 459.586 503.287 448H296.713C299.358 459.586 302.359 471.706 305.716 484Z" fill="{feathers_color_3}"/>
<path d="M483.488 520H316.512C320.562 532.294 324.968 544.414 329.731 556H470.269C475.032 544.414 479.438 532.294 483.488 520Z" fill="{feathers_color_1}"/>
<path d="M470.269 556H329.731C334.999 568.814 340.702 580.976 346.842 592H453.158C459.298 580.976 465.001 568.814 470.269 556Z" fill="{feathers_color_3}"/>
<path d="M354 604C359.226 613.582 364.473 621.504 369.488 628H430.512C435.528 621.504 440.774 613.582 446 604C448.448 600.181 450.834 596.172 453.158 592H346.842C349.166 596.172 351.552 600.181 354 604Z" fill="{feathers_color_1}"/>
<path d="M354 604L354.658 603.641L354.646 603.618L354.631 603.595L354 604ZM446 604L445.369 603.595L445.354 603.618L445.342 603.641L446 604ZM400 368L400 367.25L400 368ZM509.408 419.063L510.144 419.206L510.144 419.206L509.408 419.063ZM476.732 374.735L476.639 375.479L476.639 375.479L476.732 374.735ZM390.404 648.933L390.838 648.32L390.404 648.933ZM409.596 648.933L409.163 648.32L409.596 648.933ZM290.592 419.063L289.856 419.207L290.592 419.063ZM323.269 374.735L323.176 373.991L323.269 374.735ZM510.064 410L510.813 409.963L510.813 409.963L510.064 410ZM305.716 484L304.993 484.198L305.143 484.75H305.716V484ZM494.284 484V484.75H494.857L495.008 484.198L494.284 484ZM316.512 520V519.25H315.475L315.8 520.235L316.512 520ZM483.488 520L484.201 520.235L484.525 519.25H483.488V520ZM329.731 556L329.037 556.285L329.037 556.285L329.731 556ZM453.158 592L453.813 592.365L453.813 592.365L453.158 592ZM369.488 628L368.895 628.458L369.12 628.75H369.488V628ZM430.512 628V628.75H430.88L431.105 628.458L430.512 628ZM390.838 648.32C381.502 641.718 368.029 628.153 354.658 603.641L353.342 604.359C366.8 629.032 380.415 642.786 389.971 649.545L390.838 648.32ZM410.029 649.545C419.585 642.786 433.2 629.032 446.658 604.359L445.342 603.641C431.971 628.153 418.498 641.718 409.163 648.32L410.029 649.545ZM476.824 373.991C450.928 370.768 418.446 367.25 400 367.25L400 368.75C418.337 368.75 450.725 372.254 476.639 375.479L476.824 373.991ZM400 367.25C381.554 367.25 349.072 370.768 323.176 373.991L323.361 375.479C349.275 372.254 381.664 368.75 400 368.75L400 367.25ZM510.144 419.206C514.425 397.221 499.02 376.753 476.824 373.991L476.639 375.479C498.004 378.138 512.781 397.818 508.672 418.92L510.144 419.206ZM389.971 649.545C396.062 653.853 403.938 653.853 410.029 649.545L409.163 648.32C403.591 652.261 396.409 652.261 390.838 648.32L389.971 649.545ZM291.328 418.92C287.219 397.818 301.996 378.138 323.361 375.479L323.176 373.991C300.981 376.753 285.575 397.221 289.856 419.207L291.328 418.92ZM289.937 410.75H510.064V409.25H289.937V410.75ZM305.716 484.75H494.284V483.25H305.716V484.75ZM316.512 520.75H483.488V519.25H316.512V520.75ZM329.731 556.75H470.269V555.25H329.731V556.75ZM346.842 592.75H453.158V591.25H346.842V592.75ZM369.488 628.75H430.512V627.25H369.488V628.75ZM323.176 373.991C304.139 376.36 290.097 391.752 289.187 409.963L290.686 410.037C291.559 392.563 305.038 377.76 323.361 375.479L323.176 373.991ZM510.813 409.963C509.903 391.752 495.862 376.36 476.824 373.991L476.639 375.479C494.963 377.759 508.442 392.563 509.315 410.037L510.813 409.963ZM289.856 419.207C291.625 428.291 293.667 438.025 295.982 448.167L297.444 447.833C295.133 437.707 293.094 427.989 291.328 418.92L289.856 419.207ZM296.713 448.75H503.287V447.25H296.713V448.75ZM504.018 448.167C506.333 438.025 508.375 428.291 510.144 419.206L508.672 418.92C506.906 427.989 504.867 437.707 502.556 447.833L504.018 448.167ZM510.144 419.206C510.753 416.081 510.964 412.984 510.813 409.963L509.315 410.037C509.459 412.938 509.257 415.913 508.672 418.92L510.144 419.206ZM289.187 409.963C289.037 412.984 289.247 416.081 289.856 419.207L291.328 418.92C290.743 415.913 290.541 412.938 290.686 410.037L289.187 409.963ZM446.631 604.405C473.008 563.258 492.126 500.271 504.018 448.167L502.556 447.833C490.669 499.911 471.596 562.681 445.369 603.595L446.631 604.405ZM296 448.75H296.713V447.25H296V448.75ZM503.287 448.75H504V447.25H503.287V448.75ZM354.631 603.595C328.404 562.681 309.331 499.911 297.444 447.833L295.982 448.167C307.875 500.271 326.993 563.258 353.369 604.405L354.631 603.595ZM495.008 484.198C498.368 471.892 501.372 459.762 504.018 448.167L502.556 447.833C499.913 459.41 496.915 471.519 493.561 483.802L495.008 484.198ZM295.982 448.167C298.629 459.762 301.632 471.892 304.993 484.198L306.44 483.802C303.085 471.519 300.087 459.41 297.444 447.833L295.982 448.167ZM315.8 520.235C319.854 532.543 324.267 544.68 329.037 556.285L330.425 555.715C325.67 544.148 321.27 532.045 317.224 519.765L315.8 520.235ZM470.963 556.285C475.733 544.68 480.146 532.543 484.201 520.235L482.776 519.765C478.731 532.045 474.33 544.148 469.575 555.715L470.963 556.285ZM329.037 556.285C334.314 569.12 340.03 581.31 346.187 592.365L347.497 591.635C341.375 580.643 335.684 568.508 330.425 555.715L329.037 556.285ZM453.813 592.365C459.97 581.31 465.686 569.12 470.963 556.285L469.575 555.715C464.316 568.508 458.625 580.643 452.503 591.635L453.813 592.365ZM353.342 604.359C358.586 613.974 363.853 621.929 368.895 628.458L370.082 627.542C365.092 621.079 359.867 613.19 354.658 603.641L353.342 604.359ZM431.105 628.458C436.147 621.929 441.414 613.974 446.658 604.359L445.342 603.641C440.133 613.19 434.908 621.079 429.918 627.542L431.105 628.458ZM446.631 604.405C449.089 600.571 451.483 596.549 453.813 592.365L452.503 591.635C450.186 595.795 447.808 599.79 445.369 603.595L446.631 604.405ZM346.187 592.365C348.517 596.549 350.911 600.571 353.369 604.405L354.631 603.595C352.192 599.79 349.814 595.795 347.497 591.635L346.187 592.365Z" fill="{stroke_color}"/>
</svg>
