<svg width="800" height="800" viewBox="0 0 800 800" fill="none" xmlns="http://www.w3.org/2000/svg">
<mask id="path-2-inside-1_218_630" fill="white">
<path d="M280 450.467L378.467 356H421.04L519.507 450.467V546.256H502.194V494.37L399.753 391.93L297.313 494.37V546.256H280V450.467Z"/>
<path d="M306.608 501.022L401.084 415.876L495.559 501.022V596.81H478.247V544.925L401.084 465.101L323.921 544.925V596.81H306.608V501.022Z"/>
<path d="M330.555 555.646L401.084 493.04L471.613 555.646V646.035H454.218V587.928L401.084 529.234L347.95 587.928V646.035H330.555V555.646Z"/>
<path d="M367.824 588.828L399.753 556.898L431.683 588.828L410.405 616.766V662H389.102V616.766L367.824 588.828Z"/>
</mask>
<path d="M280 450.467L378.467 356H421.04L519.507 450.467V546.256H502.194V494.37L399.753 391.93L297.313 494.37V546.256H280V450.467Z" fill="{feathers_color_2}"/>
<path d="M306.608 501.022L401.084 415.876L495.559 501.022V596.81H478.247V544.925L401.084 465.101L323.921 544.925V596.81H306.608V501.022Z" fill="{feathers_color_1}"/>
<path d="M330.555 555.646L401.084 493.04L471.613 555.646V646.035H454.218V587.928L401.084 529.234L347.95 587.928V646.035H330.555V555.646Z" fill="{feathers_color_3}"/>
<path d="M367.824 588.828L399.753 556.898L431.683 588.828L410.405 616.766V662H389.102V616.766L367.824 588.828Z" fill="{feathers_color_2}"/>
<path d="M280 450.467L278.962 449.385L278.5 449.827V450.467H280ZM378.467 356V354.5H377.864L377.429 354.918L378.467 356ZM280 546.256H278.5V547.756H280V546.256ZM297.313 546.256V547.756H298.813V546.256H297.313ZM297.313 494.37L296.252 493.309L295.813 493.749V494.37H297.313ZM399.753 391.93L400.814 390.869L399.753 389.808L398.693 390.869L399.753 391.93ZM502.194 494.37H503.694V493.749L503.254 493.309L502.194 494.37ZM502.194 546.256H500.694V547.756H502.194V546.256ZM519.507 546.256V547.756H521.007V546.256H519.507ZM519.507 450.467H521.007V449.827L520.545 449.385L519.507 450.467ZM421.04 356L422.078 354.918L421.643 354.5H421.04V356ZM306.608 501.022L305.604 499.908L305.108 500.354V501.022H306.608ZM401.084 415.876L402.088 414.762L401.084 413.857L400.079 414.762L401.084 415.876ZM306.608 596.81H305.108V598.31H306.608V596.81ZM323.921 596.81V598.31H325.421V596.81H323.921ZM323.921 544.925L322.842 543.882L322.421 544.318V544.925H323.921ZM401.084 465.101L402.162 464.059L401.084 462.943L400.005 464.059L401.084 465.101ZM478.247 544.925H479.747V544.318L479.325 543.882L478.247 544.925ZM478.247 596.81H476.747V598.31H478.247V596.81ZM495.559 596.81V598.31H497.059V596.81H495.559ZM495.559 501.022H497.059V500.354L496.564 499.908L495.559 501.022ZM330.555 555.646L329.56 554.525L329.055 554.972V555.646H330.555ZM401.084 493.04L402.08 491.918L401.084 491.034L400.088 491.918L401.084 493.04ZM330.555 646.035H329.055V647.535H330.555V646.035ZM347.95 646.035V647.535H349.45V646.035H347.95ZM347.95 587.928L346.838 586.921L346.45 587.35V587.928H347.95ZM401.084 529.234L402.196 528.227L401.084 526.999L399.972 528.227L401.084 529.234ZM454.218 587.928H455.718V587.35L455.33 586.921L454.218 587.928ZM454.218 646.035H452.718V647.535H454.218V646.035ZM471.613 646.035V647.535H473.113V646.035H471.613ZM471.613 555.646H473.113V554.972L472.608 554.525L471.613 555.646ZM367.824 588.828L366.763 587.767L365.837 588.694L366.631 589.737L367.824 588.828ZM399.753 556.898L400.814 555.838L399.753 554.777L398.693 555.838L399.753 556.898ZM389.102 616.766H390.602V616.26L390.295 615.857L389.102 616.766ZM389.102 662H387.602V663.5H389.102V662ZM410.405 662V663.5H411.905V662H410.405ZM410.405 616.766L409.212 615.857L408.905 616.26V616.766H410.405ZM431.683 588.828L432.876 589.737L433.67 588.694L432.744 587.767L431.683 588.828ZM281.038 451.549L379.505 357.082L377.429 354.918L278.962 449.385L281.038 451.549ZM281.5 546.256V450.467H278.5V546.256H281.5ZM297.313 544.756H280V547.756H297.313V544.756ZM295.813 494.37V546.256H298.813V494.37H295.813ZM398.693 390.869L296.252 493.309L298.373 495.431L400.814 392.99L398.693 390.869ZM398.693 392.99L501.133 495.431L503.254 493.309L400.814 390.869L398.693 392.99ZM500.694 494.37V546.256H503.694V494.37H500.694ZM502.194 547.756H519.507V544.756H502.194V547.756ZM521.007 546.256V450.467H518.007V546.256H521.007ZM520.545 449.385L422.078 354.918L420.001 357.082L518.468 451.549L520.545 449.385ZM421.04 354.5H378.467V357.5H421.04V354.5ZM307.612 502.136L402.088 416.991L400.079 414.762L305.604 499.908L307.612 502.136ZM308.108 596.81V501.022H305.108V596.81H308.108ZM323.921 595.31H306.608V598.31H323.921V595.31ZM322.421 544.925V596.81H325.421V544.925H322.421ZM400.005 464.059L322.842 543.882L324.999 545.967L402.162 466.144L400.005 464.059ZM400.005 466.144L477.168 545.967L479.325 543.882L402.162 464.059L400.005 466.144ZM476.747 544.925V596.81H479.747V544.925H476.747ZM478.247 598.31H495.559V595.31H478.247V598.31ZM497.059 596.81V501.022H494.059V596.81H497.059ZM496.564 499.908L402.088 414.762L400.079 416.991L494.555 502.136L496.564 499.908ZM331.551 556.768L402.08 494.161L400.088 491.918L329.56 554.525L331.551 556.768ZM332.055 646.035V555.646H329.055V646.035H332.055ZM347.95 644.535H330.555V647.535H347.95V644.535ZM346.45 587.928V646.035H349.45V587.928H346.45ZM399.972 528.227L346.838 586.921L349.062 588.935L402.196 530.241L399.972 528.227ZM399.972 530.241L453.106 588.935L455.33 586.921L402.196 528.227L399.972 530.241ZM452.718 587.928V646.035H455.718V587.928H452.718ZM454.218 647.535H471.613V644.535H454.218V647.535ZM473.113 646.035V555.646H470.113V646.035H473.113ZM472.608 554.525L402.08 491.918L400.088 494.161L470.617 556.768L472.608 554.525ZM368.885 589.889L400.814 557.959L398.693 555.838L366.763 587.767L368.885 589.889ZM390.295 615.857L369.017 587.919L366.631 589.737L387.908 617.675L390.295 615.857ZM390.602 662V616.766H387.602V662H390.602ZM410.405 660.5H389.102V663.5H410.405V660.5ZM408.905 616.766V662H411.905V616.766H408.905ZM430.49 587.919L409.212 615.857L411.599 617.675L432.876 589.737L430.49 587.919ZM398.693 557.959L430.622 589.889L432.744 587.767L400.814 555.838L398.693 557.959Z" fill="{stroke_color}" mask="url(#path-2-inside-1_218_630)"/>
</svg>
