<svg width="800" height="800" viewBox="0 0 800 800" fill="none" xmlns="http://www.w3.org/2000/svg">
<path d="M284.243 384C277.576 420.667 273.843 562.4 312.243 612C318.243 611.333 332.643 606 342.243 590C356.243 604.667 387.043 634 398.243 634C409.443 634 440.243 604.667 454.243 590C463.843 606 478.243 611.333 484.243 612C522.643 562.4 518.91 420.667 512.243 384H284.243Z" fill="{feathers_color_2}" stroke="{stroke_color}" stroke-width="1.5"/>
<path d="M284.243 384C277.576 420.667 273.843 506.4 312.243 556C318.243 555.333 332.643 550 342.243 534C356.243 548.667 387.043 578 398.243 578C409.443 578 440.243 548.667 454.243 534C463.843 550 478.243 555.333 484.243 556C522.643 506.4 518.91 420.667 512.243 384H284.243Z" fill="{feathers_color_3}" stroke="{stroke_color}" stroke-width="1.5"/>
<path d="M288 384C310.407 424.111 363.778 510.667 398 536C432.222 510.667 485.593 424.111 508 384H288Z" fill="{feathers_color_1}" stroke="{stroke_color}" stroke-width="1.5"/>
<path d="M328 384C342.667 409.333 377.6 464 400 480C422.4 464 457.333 409.333 472 384H328Z" fill="{feathers_color_2}" stroke="{stroke_color}" stroke-width="1.5"/>
</svg>
