<svg width="801" height="801" viewBox="0 0 801 801" fill="none" xmlns="http://www.w3.org/2000/svg">
<path d="M400.208 380.526V518.541C413.683 518.541 418.455 503.873 419.157 496.539C439.37 501.339 450.037 485.204 452.845 476.537C474.742 486.138 484.427 468.536 486.533 458.535C506.745 463.335 516.425 437.866 518.738 424.531C519.706 410.708 520.22 396.054 520.22 380.526H400.208Z" fill="{feathers_color_1}"/>
<path d="M313.883 458.535C293.67 463.335 283.99 437.866 281.677 424.531C283.278 447.413 286.12 468.017 289.921 486.538C294.68 502.539 310.998 532.943 338.201 526.542C341.535 537.876 353.403 558.945 374.205 552.545C376.872 559.212 385.806 570.947 400.208 564.546V518.541C386.732 518.541 381.96 503.873 381.258 496.539C361.046 501.339 350.378 485.204 347.57 476.537C325.673 486.138 315.988 468.536 313.883 458.535Z" fill="{feathers_color_2}"/>
<path d="M400.208 518.541V564.546C414.609 570.947 423.543 559.212 426.21 552.545C447.013 558.945 458.88 537.876 462.214 526.542C489.417 532.943 505.735 502.539 510.494 486.538C514.296 468.017 517.137 447.413 518.738 424.531C516.425 437.866 506.745 463.335 486.533 458.535C484.427 468.536 474.742 486.138 452.845 476.537C450.037 485.204 439.37 501.339 419.157 496.539C418.455 503.873 413.683 518.541 400.208 518.541Z" fill="{feathers_color_2}"/>
<path d="M289.921 486.538C312.457 596.332 368.723 632.88 400.208 636.553V564.546C385.806 570.947 376.872 559.212 374.205 552.545C353.403 558.945 341.535 537.876 338.201 526.542C310.998 532.943 294.68 502.539 289.921 486.538Z" fill="{feathers_color_3}"/>
<path d="M400.208 564.546V636.553C431.693 632.88 487.958 596.332 510.494 486.538C505.735 502.539 489.417 532.943 462.214 526.542C458.88 537.876 447.013 558.945 426.21 552.545C423.543 559.212 414.609 570.947 400.208 564.546Z" fill="{feathers_color_3}"/>
<path d="M280.195 380.526V377.526H277.195V380.526H280.195ZM313.883 458.535L316.819 457.917L316.184 454.904L313.189 455.616L313.883 458.535ZM347.57 476.537L350.425 475.612L349.403 472.457L346.366 473.789L347.57 476.537ZM381.258 496.539L384.245 496.253L383.917 492.823L380.565 493.62L381.258 496.539ZM400.208 636.553L399.86 639.534L400.208 639.574L400.555 639.534L400.208 636.553ZM338.201 526.542L341.079 525.695L340.278 522.971L337.514 523.621L338.201 526.542ZM374.205 552.545L376.991 551.43L375.964 548.864L373.322 549.677L374.205 552.545ZM520.22 380.526H523.221V377.526H520.22V380.526ZM486.533 458.535L487.226 455.616L484.231 454.904L483.597 457.917L486.533 458.535ZM452.845 476.537L454.05 473.789L451.012 472.457L449.99 475.612L452.845 476.537ZM419.157 496.539L419.85 493.62L416.498 492.823L416.17 496.253L419.157 496.539ZM462.214 526.542L462.901 523.621L460.137 522.971L459.336 525.695L462.214 526.542ZM426.21 552.545L427.093 549.677L424.451 548.864L423.425 551.43L426.21 552.545ZM280.195 383.527H400.208V377.526H280.195V383.527ZM284.67 424.322C283.708 410.572 283.195 395.988 283.195 380.526H277.195C277.195 396.12 277.711 410.844 278.684 424.74L284.67 424.322ZM278.721 425.044C279.924 431.98 283.04 442.146 288.614 450.061C294.234 458.041 302.811 464.248 314.576 461.454L313.189 455.616C304.741 457.622 298.372 453.495 293.52 446.606C288.623 439.653 285.743 430.417 284.633 424.018L278.721 425.044ZM310.947 459.153C312.087 464.568 315.281 472.182 321.401 477.205C324.508 479.756 328.37 481.633 333.027 482.162C337.67 482.689 342.915 481.854 348.775 479.284L346.366 473.789C341.277 476.02 337.1 476.585 333.703 476.199C330.32 475.815 327.523 474.467 325.208 472.567C320.485 468.69 317.784 462.503 316.819 457.917L310.947 459.153ZM344.716 477.461C346.26 482.228 349.913 488.962 355.992 493.914C362.189 498.963 370.852 502.094 381.952 499.458L380.565 493.62C371.452 495.784 364.674 493.247 359.782 489.262C354.772 485.18 351.688 479.513 350.425 475.612L344.716 477.461ZM397.207 380.526V518.541H403.208V380.526H397.207ZM378.272 496.824C378.656 500.839 380.134 506.834 383.424 511.92C386.769 517.09 392.17 521.541 400.208 521.541V515.541C394.77 515.541 391.048 512.657 388.462 508.66C385.821 504.578 384.563 499.572 384.245 496.253L378.272 496.824ZM400.555 633.573C370.811 630.103 315.242 594.975 292.86 485.934L286.982 487.141C309.673 597.689 366.634 635.657 399.86 639.534L400.555 633.573ZM292.86 485.934C289.088 467.555 286.262 447.083 284.67 424.322L278.684 424.74C280.293 447.744 283.152 468.48 286.982 487.141L292.86 485.934ZM287.045 487.393C289.514 495.693 294.967 507.741 303.434 516.969C311.952 526.253 323.87 532.996 338.888 529.462L337.514 523.621C325.329 526.488 315.487 521.23 307.855 512.912C300.172 504.538 295.087 493.383 292.797 485.682L287.045 487.393ZM335.323 527.388C337.087 533.386 341.098 541.991 347.549 548.333C354.117 554.792 363.388 559.012 375.087 555.412L373.322 549.677C364.22 552.478 357.155 549.364 351.756 544.055C346.238 538.629 342.649 531.032 341.079 525.695L335.323 527.388ZM397.207 518.541V564.546H403.208V518.541H397.207ZM397.207 564.546V636.553H403.208V564.546H397.207ZM371.419 553.659C372.91 557.387 376.132 562.539 381.12 565.927C386.287 569.438 393.215 570.937 401.426 567.288L398.989 561.804C392.799 564.555 388.059 563.387 384.492 560.964C380.746 558.419 378.166 554.37 376.991 551.43L371.419 553.659ZM520.22 377.526H400.208V383.527H520.22V377.526ZM521.731 424.74C522.704 410.844 523.221 396.12 523.221 380.526H517.22C517.22 395.988 516.708 410.572 515.745 424.322L521.731 424.74ZM515.782 424.018C514.672 430.417 511.792 439.653 506.895 446.606C502.043 453.495 495.674 457.622 487.226 455.616L485.839 461.454C497.604 464.248 506.181 458.041 511.801 450.061C517.375 442.146 520.491 431.98 521.695 425.044L515.782 424.018ZM483.597 457.917C482.631 462.503 479.93 468.69 475.207 472.567C472.892 474.467 470.096 475.815 466.712 476.199C463.315 476.585 459.138 476.02 454.05 473.789L451.64 479.284C457.5 481.854 462.745 482.689 467.389 482.162C472.045 481.633 475.907 479.756 479.014 477.205C485.134 472.182 488.329 464.568 489.469 459.153L483.597 457.917ZM449.99 475.612C448.727 479.513 445.643 485.18 440.633 489.262C435.741 493.247 428.963 495.784 419.85 493.62L418.464 499.458C429.563 502.094 438.226 498.963 444.423 493.914C450.502 488.962 454.155 482.228 455.699 477.461L449.99 475.612ZM416.17 496.253C415.853 499.572 414.594 504.578 411.953 508.66C409.368 512.657 405.645 515.541 400.208 515.541V521.541C408.245 521.541 413.647 517.09 416.991 511.92C420.281 506.834 421.759 500.839 422.144 496.824L416.17 496.253ZM400.555 639.534C433.781 635.657 490.742 597.689 513.433 487.141L507.555 485.934C485.173 594.975 429.604 630.103 399.86 633.573L400.555 639.534ZM513.433 487.141C517.263 468.48 520.122 447.744 521.731 424.74L515.745 424.322C514.153 447.083 511.328 467.555 507.555 485.934L513.433 487.141ZM507.618 485.682C505.328 493.383 500.243 504.538 492.56 512.912C484.928 521.23 475.086 526.488 462.901 523.621L461.527 529.462C476.545 532.996 488.463 526.253 496.981 516.969C505.448 507.741 510.901 495.693 513.37 487.393L507.618 485.682ZM459.336 525.695C457.766 531.032 454.177 538.629 448.659 544.055C443.26 549.364 436.195 552.478 427.093 549.677L425.328 555.412C437.028 559.012 446.298 554.792 452.867 548.333C459.317 541.991 463.328 533.386 465.093 527.388L459.336 525.695ZM423.425 551.43C422.249 554.37 419.67 558.419 415.923 560.964C412.356 563.387 407.617 564.555 401.426 561.804L398.989 567.288C407.2 570.937 414.128 569.438 419.296 565.927C424.283 562.539 427.505 557.387 428.996 553.659L423.425 551.43Z" fill="{stroke_color}"/>
</svg>
