<svg width="800" height="800" viewBox="0 0 800 800" fill="none" xmlns="http://www.w3.org/2000/svg">
<path fill-rule="evenodd" clip-rule="evenodd" d="M376.828 608C376.289 609.907 376 611.92 376 614C376 626.15 385.85 636 398 636C410.15 636 420 626.15 420 614C420 611.92 419.711 609.907 419.172 608H376.828Z" fill="{feathers_color_1}"/>
<path d="M376.828 608V607.25H376.261L376.106 607.796L376.828 608ZM419.172 608L419.894 607.796L419.739 607.25H419.172V608ZM376.75 614C376.75 611.99 377.029 610.046 377.55 608.204L376.106 607.796C375.548 609.769 375.25 611.85 375.25 614H376.75ZM398 635.25C386.264 635.25 376.75 625.736 376.75 614H375.25C375.25 626.564 385.436 636.75 398 636.75V635.25ZM419.25 614C419.25 625.736 409.736 635.25 398 635.25V636.75C410.564 636.75 420.75 626.564 420.75 614H419.25ZM418.45 608.204C418.971 610.046 419.25 611.99 419.25 614H420.75C420.75 611.85 420.452 609.769 419.894 607.796L418.45 608.204ZM419.172 607.25H376.828V608.75H419.172V607.25Z" fill="{stroke_color}"/>
<path fill-rule="evenodd" clip-rule="evenodd" d="M352.828 572C352.289 573.907 352 575.92 352 578C352 590.15 361.85 600 374 600C386.15 600 396 590.15 396 578C396 575.92 395.711 573.907 395.172 572H352.828Z" fill="{feathers_color_3}"/>
<path d="M352.828 572V571.25H352.261L352.106 571.796L352.828 572ZM395.172 572L395.894 571.796L395.739 571.25H395.172V572ZM352.75 578C352.75 575.99 353.029 574.046 353.55 572.204L352.106 571.796C351.548 573.769 351.25 575.85 351.25 578H352.75ZM374 599.25C362.264 599.25 352.75 589.736 352.75 578H351.25C351.25 590.564 361.436 600.75 374 600.75V599.25ZM395.25 578C395.25 589.736 385.736 599.25 374 599.25V600.75C386.564 600.75 396.75 590.564 396.75 578H395.25ZM394.45 572.204C394.971 574.046 395.25 575.99 395.25 578H396.75C396.75 575.85 396.452 573.769 395.894 571.796L394.45 572.204ZM395.172 571.25H352.828V572.75H395.172V571.25Z" fill="{stroke_color}"/>
<path fill-rule="evenodd" clip-rule="evenodd" d="M404.828 572C404.289 573.907 404 575.92 404 578C404 590.15 413.85 600 426 600C438.15 600 448 590.15 448 578C448 575.92 447.711 573.907 447.172 572H404.828Z" fill="{feathers_color_3}"/>
<path d="M404.828 572V571.25H404.261L404.106 571.796L404.828 572ZM447.172 572L447.894 571.796L447.739 571.25H447.172V572ZM404.75 578C404.75 575.99 405.029 574.046 405.55 572.204L404.106 571.796C403.548 573.769 403.25 575.85 403.25 578H404.75ZM426 599.25C414.264 599.25 404.75 589.736 404.75 578H403.25C403.25 590.564 413.436 600.75 426 600.75V599.25ZM447.25 578C447.25 589.736 437.736 599.25 426 599.25V600.75C438.564 600.75 448.75 590.564 448.75 578H447.25ZM446.45 572.204C446.971 574.046 447.25 575.99 447.25 578H448.75C448.75 575.85 448.452 573.769 447.894 571.796L446.45 572.204ZM447.172 571.25H404.828V572.75H447.172V571.25Z" fill="{stroke_color}"/>
<path fill-rule="evenodd" clip-rule="evenodd" d="M352.828 500C352.289 501.907 352 503.92 352 506C352 518.15 361.85 528 374 528C386.15 528 396 518.15 396 506C396 503.92 395.711 501.907 395.172 500H352.828Z" fill="{feathers_color_2}"/>
<path d="M352.828 500V499.25H352.261L352.106 499.796L352.828 500ZM395.172 500L395.894 499.796L395.739 499.25H395.172V500ZM352.75 506C352.75 503.99 353.029 502.046 353.55 500.204L352.106 499.796C351.548 501.769 351.25 503.85 351.25 506H352.75ZM374 527.25C362.264 527.25 352.75 517.736 352.75 506H351.25C351.25 518.564 361.436 528.75 374 528.75V527.25ZM395.25 506C395.25 517.736 385.736 527.25 374 527.25V528.75C386.564 528.75 396.75 518.564 396.75 506H395.25ZM394.45 500.204C394.971 502.046 395.25 503.99 395.25 506H396.75C396.75 503.85 396.452 501.769 395.894 499.796L394.45 500.204ZM395.172 499.25H352.828V500.75H395.172V499.25Z" fill="{stroke_color}"/>
<path fill-rule="evenodd" clip-rule="evenodd" d="M404.828 500C404.289 501.907 404 503.92 404 506C404 518.15 413.85 528 426 528C438.15 528 448 518.15 448 506C448 503.92 447.711 501.907 447.172 500H404.828Z" fill="{feathers_color_2}"/>
<path d="M404.828 500V499.25H404.261L404.106 499.796L404.828 500ZM447.172 500L447.894 499.796L447.739 499.25H447.172V500ZM404.75 506C404.75 503.99 405.029 502.046 405.55 500.204L404.106 499.796C403.548 501.769 403.25 503.85 403.25 506H404.75ZM426 527.25C414.264 527.25 404.75 517.736 404.75 506H403.25C403.25 518.564 413.436 528.75 426 528.75V527.25ZM447.25 506C447.25 517.736 437.736 527.25 426 527.25V528.75C438.564 528.75 448.75 518.564 448.75 506H447.25ZM446.45 500.204C446.971 502.046 447.25 503.99 447.25 506H448.75C448.75 503.85 448.452 501.769 447.894 499.796L446.45 500.204ZM447.172 499.25H404.828V500.75H447.172V499.25Z" fill="{stroke_color}"/>
<path fill-rule="evenodd" clip-rule="evenodd" d="M376.828 536C376.289 537.907 376 539.92 376 542C376 554.15 385.85 564 398 564C410.15 564 420 554.15 420 542C420 539.92 419.711 537.907 419.172 536H376.828Z" fill="{feathers_color_1}"/>
<path d="M376.828 536V535.25H376.261L376.106 535.796L376.828 536ZM419.172 536L419.894 535.796L419.739 535.25H419.172V536ZM376.75 542C376.75 539.99 377.029 538.046 377.55 536.204L376.106 535.796C375.548 537.769 375.25 539.85 375.25 542H376.75ZM398 563.25C386.264 563.25 376.75 553.736 376.75 542H375.25C375.25 554.564 385.436 564.75 398 564.75V563.25ZM419.25 542C419.25 553.736 409.736 563.25 398 563.25V564.75C410.564 564.75 420.75 554.564 420.75 542H419.25ZM418.45 536.204C418.971 538.046 419.25 539.99 419.25 542H420.75C420.75 539.85 420.452 537.769 419.894 535.796L418.45 536.204ZM419.172 535.25H376.828V536.75H419.172V535.25Z" fill="{stroke_color}"/>
<path fill-rule="evenodd" clip-rule="evenodd" d="M324.828 464C324.289 465.907 324 467.92 324 470C324 482.15 333.85 492 346 492C358.15 492 368 482.15 368 470C368 467.92 367.711 465.907 367.172 464H324.828Z" fill="{feathers_color_3}"/>
<path d="M324.828 464V463.25H324.261L324.106 463.796L324.828 464ZM367.172 464L367.894 463.796L367.739 463.25H367.172V464ZM324.75 470C324.75 467.99 325.029 466.046 325.55 464.204L324.106 463.796C323.548 465.769 323.25 467.85 323.25 470H324.75ZM346 491.25C334.264 491.25 324.75 481.736 324.75 470H323.25C323.25 482.564 333.436 492.75 346 492.75V491.25ZM367.25 470C367.25 481.736 357.736 491.25 346 491.25V492.75C358.564 492.75 368.75 482.564 368.75 470H367.25ZM366.45 464.204C366.971 466.046 367.25 467.99 367.25 470H368.75C368.75 467.85 368.452 465.769 367.894 463.796L366.45 464.204ZM367.172 463.25H324.828V464.75H367.172V463.25Z" fill="{stroke_color}"/>
<path fill-rule="evenodd" clip-rule="evenodd" d="M376.828 464C376.289 465.907 376 467.92 376 470C376 482.15 385.85 492 398 492C410.15 492 420 482.15 420 470C420 467.92 419.711 465.907 419.172 464H376.828Z" fill="{feathers_color_3}"/>
<path d="M376.828 464V463.25H376.261L376.106 463.796L376.828 464ZM419.172 464L419.894 463.796L419.739 463.25H419.172V464ZM376.75 470C376.75 467.99 377.029 466.046 377.55 464.204L376.106 463.796C375.548 465.769 375.25 467.85 375.25 470H376.75ZM398 491.25C386.264 491.25 376.75 481.736 376.75 470H375.25C375.25 482.564 385.436 492.75 398 492.75V491.25ZM419.25 470C419.25 481.736 409.736 491.25 398 491.25V492.75C410.564 492.75 420.75 482.564 420.75 470H419.25ZM418.45 464.204C418.971 466.046 419.25 467.99 419.25 470H420.75C420.75 467.85 420.452 465.769 419.894 463.796L418.45 464.204ZM419.172 463.25H376.828V464.75H419.172V463.25Z" fill="{stroke_color}"/>
<path fill-rule="evenodd" clip-rule="evenodd" d="M428.828 464C428.289 465.907 428 467.92 428 470C428 482.15 437.85 492 450 492C462.15 492 472 482.15 472 470C472 467.92 471.711 465.907 471.172 464H428.828Z" fill="{feathers_color_3}"/>
<path d="M428.828 464V463.25H428.261L428.106 463.796L428.828 464ZM471.172 464L471.894 463.796L471.739 463.25H471.172V464ZM428.75 470C428.75 467.99 429.029 466.046 429.55 464.204L428.106 463.796C427.548 465.769 427.25 467.85 427.25 470H428.75ZM450 491.25C438.264 491.25 428.75 481.736 428.75 470H427.25C427.25 482.564 437.436 492.75 450 492.75V491.25ZM471.25 470C471.25 481.736 461.736 491.25 450 491.25V492.75C462.564 492.75 472.75 482.564 472.75 470H471.25ZM470.45 464.204C470.971 466.046 471.25 467.99 471.25 470H472.75C472.75 467.85 472.452 465.769 471.894 463.796L470.45 464.204ZM471.172 463.25H428.828V464.75H471.172V463.25Z" fill="{stroke_color}"/>
<path fill-rule="evenodd" clip-rule="evenodd" d="M300.828 428C300.289 429.907 300 431.92 300 434C300 446.15 309.85 456 322 456C334.15 456 344 446.15 344 434C344 431.92 343.711 429.907 343.172 428H300.828Z" fill="{feathers_color_1}"/>
<path d="M300.828 428V427.25H300.261L300.106 427.796L300.828 428ZM343.172 428L343.894 427.796L343.739 427.25H343.172V428ZM300.75 434C300.75 431.99 301.029 430.046 301.55 428.204L300.106 427.796C299.548 429.769 299.25 431.85 299.25 434H300.75ZM322 455.25C310.264 455.25 300.75 445.736 300.75 434H299.25C299.25 446.564 309.436 456.75 322 456.75V455.25ZM343.25 434C343.25 445.736 333.736 455.25 322 455.25V456.75C334.564 456.75 344.75 446.564 344.75 434H343.25ZM342.45 428.204C342.971 430.046 343.25 431.99 343.25 434H344.75C344.75 431.85 344.452 429.769 343.894 427.796L342.45 428.204ZM343.172 427.25H300.828V428.75H343.172V427.25Z" fill="{stroke_color}"/>
<path fill-rule="evenodd" clip-rule="evenodd" d="M352.828 428C352.289 429.907 352 431.92 352 434C352 446.15 361.85 456 374 456C386.15 456 396 446.15 396 434C396 431.92 395.711 429.907 395.172 428H352.828Z" fill="{feathers_color_1}"/>
<path d="M352.828 428V427.25H352.261L352.106 427.796L352.828 428ZM395.172 428L395.894 427.796L395.739 427.25H395.172V428ZM352.75 434C352.75 431.99 353.029 430.046 353.55 428.204L352.106 427.796C351.548 429.769 351.25 431.85 351.25 434H352.75ZM374 455.25C362.264 455.25 352.75 445.736 352.75 434H351.25C351.25 446.564 361.436 456.75 374 456.75V455.25ZM395.25 434C395.25 445.736 385.736 455.25 374 455.25V456.75C386.564 456.75 396.75 446.564 396.75 434H395.25ZM394.45 428.204C394.971 430.046 395.25 431.99 395.25 434H396.75C396.75 431.85 396.452 429.769 395.894 427.796L394.45 428.204ZM395.172 427.25H352.828V428.75H395.172V427.25Z" fill="{stroke_color}"/>
<path fill-rule="evenodd" clip-rule="evenodd" d="M404.828 428C404.289 429.907 404 431.92 404 434C404 446.15 413.85 456 426 456C438.15 456 448 446.15 448 434C448 431.92 447.711 429.907 447.172 428H404.828Z" fill="{feathers_color_1}"/>
<path d="M404.828 428V427.25H404.261L404.106 427.796L404.828 428ZM447.172 428L447.894 427.796L447.739 427.25H447.172V428ZM404.75 434C404.75 431.99 405.029 430.046 405.55 428.204L404.106 427.796C403.548 429.769 403.25 431.85 403.25 434H404.75ZM426 455.25C414.264 455.25 404.75 445.736 404.75 434H403.25C403.25 446.564 413.436 456.75 426 456.75V455.25ZM447.25 434C447.25 445.736 437.736 455.25 426 455.25V456.75C438.564 456.75 448.75 446.564 448.75 434H447.25ZM446.45 428.204C446.971 430.046 447.25 431.99 447.25 434H448.75C448.75 431.85 448.452 429.769 447.894 427.796L446.45 428.204ZM447.172 427.25H404.828V428.75H447.172V427.25Z" fill="{stroke_color}"/>
<path fill-rule="evenodd" clip-rule="evenodd" d="M456.828 428C456.289 429.907 456 431.92 456 434C456 446.15 465.85 456 478 456C490.15 456 500 446.15 500 434C500 431.92 499.711 429.907 499.172 428H456.828Z" fill="{feathers_color_1}"/>
<path d="M456.828 428V427.25H456.261L456.106 427.796L456.828 428ZM499.172 428L499.894 427.796L499.739 427.25H499.172V428ZM456.75 434C456.75 431.99 457.029 430.046 457.55 428.204L456.106 427.796C455.548 429.769 455.25 431.85 455.25 434H456.75ZM478 455.25C466.264 455.25 456.75 445.736 456.75 434H455.25C455.25 446.564 465.436 456.75 478 456.75V455.25ZM499.25 434C499.25 445.736 489.736 455.25 478 455.25V456.75C490.564 456.75 500.75 446.564 500.75 434H499.25ZM498.45 428.204C498.971 430.046 499.25 431.99 499.25 434H500.75C500.75 431.85 500.452 429.769 499.894 427.796L498.45 428.204ZM499.172 427.25H456.828V428.75H499.172V427.25Z" fill="{stroke_color}"/>
<path fill-rule="evenodd" clip-rule="evenodd" d="M272.828 392C272.289 393.907 272 395.92 272 398C272 410.15 281.85 420 294 420C306.15 420 316 410.15 316 398C316 395.92 315.711 393.907 315.172 392H272.828Z" fill="{feathers_color_2}"/>
<path d="M272.828 392V391.25H272.261L272.106 391.796L272.828 392ZM315.172 392L315.894 391.796L315.739 391.25H315.172V392ZM272.75 398C272.75 395.99 273.029 394.046 273.55 392.204L272.106 391.796C271.548 393.769 271.25 395.85 271.25 398H272.75ZM294 419.25C282.264 419.25 272.75 409.736 272.75 398H271.25C271.25 410.564 281.436 420.75 294 420.75V419.25ZM315.25 398C315.25 409.736 305.736 419.25 294 419.25V420.75C306.564 420.75 316.75 410.564 316.75 398H315.25ZM314.45 392.204C314.971 394.046 315.25 395.99 315.25 398H316.75C316.75 395.85 316.452 393.769 315.894 391.796L314.45 392.204ZM315.172 391.25H272.828V392.75H315.172V391.25Z" fill="{stroke_color}"/>
<path fill-rule="evenodd" clip-rule="evenodd" d="M324.828 392C324.289 393.907 324 395.92 324 398C324 410.15 333.85 420 346 420C358.15 420 368 410.15 368 398C368 395.92 367.711 393.907 367.172 392H324.828Z" fill="{feathers_color_2}"/>
<path d="M324.828 392V391.25H324.261L324.106 391.796L324.828 392ZM367.172 392L367.894 391.796L367.739 391.25H367.172V392ZM324.75 398C324.75 395.99 325.029 394.046 325.55 392.204L324.106 391.796C323.548 393.769 323.25 395.85 323.25 398H324.75ZM346 419.25C334.264 419.25 324.75 409.736 324.75 398H323.25C323.25 410.564 333.436 420.75 346 420.75V419.25ZM367.25 398C367.25 409.736 357.736 419.25 346 419.25V420.75C358.564 420.75 368.75 410.564 368.75 398H367.25ZM366.45 392.204C366.971 394.046 367.25 395.99 367.25 398H368.75C368.75 395.85 368.452 393.769 367.894 391.796L366.45 392.204ZM367.172 391.25H324.828V392.75H367.172V391.25Z" fill="{stroke_color}"/>
<path fill-rule="evenodd" clip-rule="evenodd" d="M376.828 392C376.289 393.907 376 395.92 376 398C376 410.15 385.85 420 398 420C410.15 420 420 410.15 420 398C420 395.92 419.711 393.907 419.172 392H376.828Z" fill="{feathers_color_2}"/>
<path d="M376.828 392V391.25H376.261L376.106 391.796L376.828 392ZM419.172 392L419.894 391.796L419.739 391.25H419.172V392ZM376.75 398C376.75 395.99 377.029 394.046 377.55 392.204L376.106 391.796C375.548 393.769 375.25 395.85 375.25 398H376.75ZM398 419.25C386.264 419.25 376.75 409.736 376.75 398H375.25C375.25 410.564 385.436 420.75 398 420.75V419.25ZM419.25 398C419.25 409.736 409.736 419.25 398 419.25V420.75C410.564 420.75 420.75 410.564 420.75 398H419.25ZM418.45 392.204C418.971 394.046 419.25 395.99 419.25 398H420.75C420.75 395.85 420.452 393.769 419.894 391.796L418.45 392.204ZM419.172 391.25H376.828V392.75H419.172V391.25Z" fill="{stroke_color}"/>
<path fill-rule="evenodd" clip-rule="evenodd" d="M428.828 392C428.289 393.907 428 395.92 428 398C428 410.15 437.85 420 450 420C462.15 420 472 410.15 472 398C472 395.92 471.711 393.907 471.172 392H428.828Z" fill="{feathers_color_2}"/>
<path d="M428.828 392V391.25H428.261L428.106 391.796L428.828 392ZM471.172 392L471.894 391.796L471.739 391.25H471.172V392ZM428.75 398C428.75 395.99 429.029 394.046 429.55 392.204L428.106 391.796C427.548 393.769 427.25 395.85 427.25 398H428.75ZM450 419.25C438.264 419.25 428.75 409.736 428.75 398H427.25C427.25 410.564 437.436 420.75 450 420.75V419.25ZM471.25 398C471.25 409.736 461.736 419.25 450 419.25V420.75C462.564 420.75 472.75 410.564 472.75 398H471.25ZM470.45 392.204C470.971 394.046 471.25 395.99 471.25 398H472.75C472.75 395.85 472.452 393.769 471.894 391.796L470.45 392.204ZM471.172 391.25H428.828V392.75H471.172V391.25Z" fill="{stroke_color}"/>
<path fill-rule="evenodd" clip-rule="evenodd" d="M480.828 392C480.289 393.907 480 395.92 480 398C480 410.15 489.85 420 502 420C514.15 420 524 410.15 524 398C524 395.92 523.711 393.907 523.172 392H480.828Z" fill="{feathers_color_2}"/>
<path d="M480.828 392V391.25H480.261L480.106 391.796L480.828 392ZM523.172 392L523.894 391.796L523.739 391.25H523.172V392ZM480.75 398C480.75 395.99 481.029 394.046 481.55 392.204L480.106 391.796C479.548 393.769 479.25 395.85 479.25 398H480.75ZM502 419.25C490.264 419.25 480.75 409.736 480.75 398H479.25C479.25 410.564 489.436 420.75 502 420.75V419.25ZM523.25 398C523.25 409.736 513.736 419.25 502 419.25V420.75C514.564 420.75 524.75 410.564 524.75 398H523.25ZM522.45 392.204C522.971 394.046 523.25 395.99 523.25 398H524.75C524.75 395.85 524.452 393.769 523.894 391.796L522.45 392.204ZM523.172 391.25H480.828V392.75H523.172V391.25Z" fill="{stroke_color}"/>
</svg>
