<svg width="801" height="801" viewBox="0 0 801 801" fill="none" xmlns="http://www.w3.org/2000/svg">
<path fill-rule="evenodd" clip-rule="evenodd" d="M520.22 380.635C520.22 574.255 440.211 631.995 400.207 636.662C360.203 631.995 280.194 574.255 280.194 380.635H520.22ZM400.207 596.658C428.21 593.449 484.216 553.753 484.216 420.639H316.198C316.198 553.753 372.204 593.449 400.207 596.658Z" fill="{feathers_color_1}"/>
<path fill-rule="evenodd" clip-rule="evenodd" d="M484.216 420.639C484.216 553.753 428.21 593.449 400.207 596.658C372.204 593.449 316.198 553.753 316.198 420.639H484.216ZM400.207 560.654C416.209 558.758 448.212 535.301 448.212 456.643H352.202C352.202 535.301 384.205 558.758 400.207 560.654Z" fill="{feathers_color_2}"/>
<path d="M448.212 456.643C448.212 535.301 416.209 558.758 400.207 560.654C384.205 558.758 352.202 535.301 352.202 456.643H448.212Z" fill="{feathers_color_3}"/>
<path d="M352.202 456.643V453.643H349.202V456.643H352.202ZM448.212 456.643H451.213V453.643H448.212V456.643ZM400.207 560.654L399.854 563.633L400.207 563.675L400.56 563.633L400.207 560.654ZM280.194 380.635V377.634H277.194V380.635H280.194ZM520.22 380.635H523.22V377.634H520.22V380.635ZM400.207 636.662L399.859 639.642L400.207 639.683L400.555 639.642L400.207 636.662ZM316.198 420.639V417.639H313.198V420.639H316.198ZM484.216 420.639H487.216V417.639H484.216V420.639ZM400.207 596.658L399.866 599.638L400.207 599.678L400.549 599.638L400.207 596.658ZM445.212 456.643C445.212 534.747 413.55 556.051 399.854 557.674L400.56 563.633C418.867 561.464 451.213 535.855 451.213 456.643H445.212ZM349.202 456.643C349.202 535.855 381.547 561.464 399.854 563.633L400.56 557.674C386.864 556.051 355.202 534.747 355.202 456.643H349.202ZM448.212 453.643H352.202V459.643H448.212V453.643ZM517.22 380.635C517.22 573.662 437.581 629.281 399.859 633.682L400.555 639.642C442.842 634.709 523.22 574.849 523.22 380.635H517.22ZM277.194 380.635C277.194 574.849 357.573 634.709 399.859 639.642L400.555 633.682C362.833 629.281 283.195 573.662 283.195 380.635H277.194ZM520.22 377.634H280.194V383.635H520.22V377.634ZM481.216 420.639C481.216 553.113 425.613 590.727 399.866 593.677L400.549 599.638C430.807 596.171 487.216 554.393 487.216 420.639H481.216ZM313.198 420.639C313.198 554.393 369.607 596.171 399.866 599.638L400.549 593.677C374.801 590.727 319.199 553.113 319.199 420.639H313.198ZM484.216 417.639H316.198V423.639H484.216V417.639Z" fill="{stroke_color}"/>
</svg>
