<svg width="801" height="801" viewBox="0 0 801 801" fill="none" xmlns="http://www.w3.org/2000/svg">
<path d="M301.688 428.878L281.686 408.876C280.726 421.769 280.127 437.627 280.199 454.88L301.688 476.369L329.691 448.366L357.694 476.369L385.697 448.366L413.7 476.369L441.703 448.366L469.705 476.369L497.708 448.366L516.534 467.191C516.931 449.637 516.606 433.081 515.856 419.023L497.708 400.875L469.705 428.878L441.703 400.875L413.7 428.878L385.697 400.875L357.694 428.878L329.691 400.875L301.688 428.878Z" fill="{feathers_color_2}"/>
<path d="M301.688 476.369L280.199 454.88C280.266 470.773 280.903 487.85 282.353 504.886L301.688 524.22L329.691 496.217L357.694 524.22L385.697 496.217L413.7 524.22L441.703 496.217L469.705 524.22L497.708 496.217L513.854 512.363C515.366 497.192 516.202 481.843 516.534 467.191L497.708 448.366L469.705 476.369L441.703 448.366L413.7 476.369L385.697 448.366L357.694 476.369L329.691 448.366L301.688 476.369Z" fill="{feathers_color_3}"/>
<path d="M301.688 524.22L282.353 504.886C283.873 522.737 286.286 540.543 289.873 556.891L301.688 568.706L329.691 540.703L357.694 568.706L385.697 540.703L413.7 568.706L441.703 540.703L469.705 568.706L497.708 540.703L508.213 551.207C510.69 538.784 512.531 525.641 513.854 512.363L497.708 496.217L469.705 524.22L441.703 496.217L413.7 524.22L385.697 496.217L357.694 524.22L329.691 496.217L301.688 524.22Z" fill="{feathers_color_2}"/>
<path d="M284.437 384.873V381.873H281.933L281.485 384.336L284.437 384.873ZM312.44 612.897L310.067 614.734L311.098 616.065L312.771 615.879L312.44 612.897ZM342.443 590.895L344.613 588.823L341.895 585.976L339.87 589.351L342.443 590.895ZM454.455 590.895L457.028 589.351L455.002 585.976L452.285 588.823L454.455 590.895ZM512.461 384.873L515.413 384.336L514.965 381.873H512.461V384.873ZM484.458 612.897L484.127 615.879L485.8 616.065L486.83 614.734L484.458 612.897ZM281.686 408.876L278.694 408.653L281.686 408.876ZM301.688 428.878L299.566 430.999L301.688 433.121L303.809 430.999L301.688 428.878ZM329.691 400.875L331.812 398.753L329.691 396.632L327.569 398.753L329.691 400.875ZM357.694 428.878L355.572 430.999L357.694 433.121L359.815 430.999L357.694 428.878ZM385.697 400.875L387.818 398.753L385.697 396.632L383.575 398.753L385.697 400.875ZM413.7 428.878L411.578 430.999L413.7 433.121L415.821 430.999L413.7 428.878ZM441.703 400.875L443.824 398.753L441.703 396.632L439.581 398.753L441.703 400.875ZM469.705 428.878L467.584 430.999L469.705 433.121L471.827 430.999L469.705 428.878ZM497.708 400.875L499.83 398.753L497.708 396.632L495.587 398.753L497.708 400.875ZM280.199 454.88L277.199 454.893L280.199 454.88ZM301.688 476.369L299.566 478.49L301.688 480.612L303.809 478.49L301.688 476.369ZM329.691 448.366L331.812 446.244L329.691 444.123L327.569 446.244L329.691 448.366ZM357.694 476.369L355.572 478.49L357.694 480.612L359.815 478.49L357.694 476.369ZM385.697 448.366L387.818 446.244L385.697 444.123L383.575 446.244L385.697 448.366ZM413.7 476.369L411.578 478.49L413.7 480.612L415.821 478.49L413.7 476.369ZM441.703 448.366L443.824 446.244L441.703 444.123L439.581 446.244L441.703 448.366ZM469.705 476.369L467.584 478.49L469.705 480.612L471.827 478.49L469.705 476.369ZM497.708 448.366L499.83 446.244L497.708 444.123L495.587 446.244L497.708 448.366ZM516.534 467.191L519.533 467.259L516.534 467.191ZM301.688 524.22L299.566 526.342L301.688 528.464L303.809 526.342L301.688 524.22ZM329.691 496.217L331.812 494.096L329.691 491.974L327.569 494.096L329.691 496.217ZM357.694 524.22L355.572 526.342L357.694 528.464L359.815 526.342L357.694 524.22ZM385.697 496.217L387.818 494.096L385.697 491.974L383.575 494.096L385.697 496.217ZM413.7 524.22L411.578 526.342L413.7 528.464L415.821 526.342L413.7 524.22ZM441.703 496.217L443.824 494.096L441.703 491.974L439.581 494.096L441.703 496.217ZM469.705 524.22L467.584 526.342L469.705 528.464L471.827 526.342L469.705 524.22ZM497.708 496.217L499.83 494.096L497.708 491.974L495.587 494.096L497.708 496.217ZM301.688 568.706L299.566 570.827L301.688 572.949L303.809 570.827L301.688 568.706ZM329.691 540.703L331.812 538.581L329.691 536.459L327.569 538.581L329.691 540.703ZM357.694 568.706L355.572 570.827L357.694 572.949L359.815 570.827L357.694 568.706ZM385.697 540.703L387.818 538.581L385.697 536.459L383.575 538.581L385.697 540.703ZM413.7 568.706L411.578 570.827L413.7 572.949L415.821 570.827L413.7 568.706ZM441.703 540.703L443.824 538.581L441.703 536.459L439.581 538.581L441.703 540.703ZM469.705 568.706L467.584 570.827L469.705 572.949L471.827 570.827L469.705 568.706ZM497.708 540.703L499.83 538.581L497.708 536.459L495.587 538.581L497.708 540.703ZM339.87 589.351C330.793 604.48 317.263 609.342 312.108 609.915L312.771 615.879C319.618 615.118 334.891 609.313 345.016 592.439L339.87 589.351ZM398.449 631.899C397.637 631.899 396.365 631.615 394.581 630.852C392.84 630.107 390.813 628.994 388.552 627.555C384.033 624.679 378.811 620.65 373.432 616.106C362.686 607.027 351.564 596.105 344.613 588.823L340.273 592.966C347.323 600.353 358.604 611.433 369.56 620.69C375.032 625.313 380.487 629.535 385.331 632.618C387.752 634.159 390.078 635.452 392.22 636.369C394.32 637.267 396.461 637.9 398.449 637.9V631.899ZM398.449 637.9C400.437 637.9 402.578 637.267 404.677 636.369C406.819 635.452 409.146 634.159 411.567 632.618C416.411 629.535 421.865 625.313 427.338 620.69C438.294 611.433 449.574 600.353 456.625 592.967L452.285 588.823C445.334 596.105 434.212 607.027 423.465 616.106C418.087 620.65 412.865 624.679 408.345 627.555C406.085 628.994 404.058 630.107 402.317 630.852C400.533 631.615 399.261 631.899 398.449 631.899V637.9ZM451.882 592.439C462.007 609.313 477.28 615.118 484.127 615.879L484.789 609.915C479.635 609.342 466.105 604.48 457.028 589.351L451.882 592.439ZM512.461 381.873H284.437V387.873H512.461V381.873ZM284.678 409.098C285.422 399.1 286.378 390.968 287.389 385.41L281.485 384.336C280.421 390.188 279.445 398.553 278.694 408.653L284.678 409.098ZM279.564 410.997L299.566 430.999L303.809 426.756L283.807 406.754L279.564 410.997ZM303.809 430.999L331.812 402.996L327.569 398.753L299.566 426.756L303.809 430.999ZM327.569 402.996L355.572 430.999L359.815 426.756L331.812 398.753L327.569 402.996ZM359.815 430.999L387.818 402.996L383.575 398.753L355.572 426.756L359.815 430.999ZM383.575 402.996L411.578 430.999L415.821 426.756L387.818 398.753L383.575 402.996ZM415.821 430.999L443.824 402.996L439.581 398.753L411.578 426.756L415.821 430.999ZM439.581 402.996L467.584 430.999L471.827 426.756L443.824 398.753L439.581 402.996ZM471.827 430.999L499.83 402.996L495.587 398.753L467.584 426.756L471.827 430.999ZM518.852 418.863C518.067 404.137 516.814 392.043 515.413 384.336L509.509 385.41C510.845 392.755 512.081 404.563 512.86 419.182L518.852 418.863ZM495.587 402.996L513.735 421.144L517.978 416.901L499.83 398.753L495.587 402.996ZM283.2 454.868C283.128 437.687 283.725 421.908 284.678 409.098L278.694 408.653C277.728 421.63 277.126 437.566 277.199 454.893L283.2 454.868ZM278.078 457.002L299.566 478.49L303.809 474.247L282.321 452.759L278.078 457.002ZM303.809 478.49L331.812 450.487L327.569 446.244L299.566 474.247L303.809 478.49ZM327.569 450.487L355.572 478.49L359.815 474.247L331.812 446.244L327.569 450.487ZM359.815 478.49L387.818 450.487L383.575 446.244L355.572 474.247L359.815 478.49ZM383.575 450.487L411.578 478.49L415.821 474.247L387.818 446.244L383.575 450.487ZM415.821 478.49L443.824 450.487L439.581 446.244L411.578 474.247L415.821 478.49ZM439.581 450.487L467.584 478.49L471.827 474.247L443.824 446.244L439.581 450.487ZM471.827 478.49L499.83 450.487L495.587 446.244L467.584 474.247L471.827 478.49ZM519.533 467.259C519.932 449.628 519.606 432.996 518.852 418.863L512.86 419.182C513.606 433.165 513.93 449.645 513.534 467.123L519.533 467.259ZM495.587 450.487L514.412 469.312L518.655 465.069L499.83 446.244L495.587 450.487ZM285.342 504.631C283.9 487.688 283.266 470.692 283.2 454.868L277.199 454.893C277.266 470.854 277.905 488.013 279.363 505.14L285.342 504.631ZM280.231 507.007L299.566 526.342L303.809 522.099L284.475 502.764L280.231 507.007ZM303.809 526.342L331.812 498.339L327.569 494.096L299.566 522.099L303.809 526.342ZM327.569 498.339L355.572 526.342L359.815 522.099L331.812 494.096L327.569 498.339ZM359.815 526.342L387.818 498.339L383.575 494.096L355.572 522.099L359.815 526.342ZM383.575 498.339L411.578 526.342L415.821 522.099L387.818 494.096L383.575 498.339ZM415.821 526.342L443.824 498.339L439.581 494.096L411.578 522.099L415.821 526.342ZM439.581 498.339L467.584 526.342L471.827 522.099L443.824 494.096L439.581 498.339ZM471.827 526.342L499.83 498.339L495.587 494.096L467.584 522.099L471.827 526.342ZM516.84 512.661C518.361 497.401 519.2 481.976 519.533 467.259L513.534 467.123C513.204 481.711 512.372 496.982 510.869 512.066L516.84 512.661ZM495.587 498.339L511.733 514.485L515.976 510.242L499.83 494.096L495.587 498.339ZM314.812 611.06C304.918 598.281 297.766 578.863 292.804 556.248L286.943 557.534C291.969 580.442 299.357 600.9 310.067 614.734L314.812 611.06ZM292.804 556.248C289.252 540.061 286.855 522.391 285.342 504.631L279.363 505.14C280.891 523.083 283.32 541.024 286.943 557.534L292.804 556.248ZM287.752 559.013L299.566 570.827L303.809 566.584L291.995 554.77L287.752 559.013ZM303.809 570.827L331.812 542.824L327.569 538.581L299.566 566.584L303.809 570.827ZM327.569 542.824L355.572 570.827L359.815 566.584L331.812 538.581L327.569 542.824ZM359.815 570.827L387.818 542.824L383.575 538.581L355.572 566.584L359.815 570.827ZM383.575 542.824L411.578 570.827L415.821 566.584L387.818 538.581L383.575 542.824ZM415.821 570.827L443.824 542.824L439.581 538.581L411.578 566.584L415.821 570.827ZM439.581 542.824L467.584 570.827L471.827 566.584L443.824 538.581L439.581 542.824ZM471.827 570.827L499.83 542.824L495.587 538.581L467.584 566.584L471.827 570.827ZM486.83 614.734C498.416 599.77 506.124 577.039 511.156 551.794L505.271 550.621C500.292 575.603 492.803 597.217 482.086 611.06L486.83 614.734ZM511.156 551.794C513.655 539.256 515.509 526.015 516.84 512.661L510.869 512.066C509.553 525.268 507.724 538.312 505.271 550.621L511.156 551.794ZM495.587 542.824L506.092 553.329L510.335 549.086L499.83 538.581L495.587 542.824Z" fill="{stroke_color}"/>
</svg>
