<svg width="801" height="801" viewBox="0 0 801 801" fill="none" xmlns="http://www.w3.org/2000/svg">
<path d="M308.331 492.105C305.131 519.308 317.666 534.109 324.333 538.11C333.742 536.788 349.078 529.698 357.621 512.107C362.003 503.082 364.599 491.294 363.689 476.103C362.654 470.865 362.227 465.996 362.218 462.101C339.72 503.706 316.92 499.439 308.331 492.105Z" fill="{feathers_color_3}"/>
<path d="M363.689 476.103C364.599 491.294 362.003 503.082 357.621 512.107C358.831 524.937 365.476 547.408 382.339 556.345C387.35 559.001 393.264 560.461 400.205 560.119V560.112V518.107V518.086C377.002 514.346 367.08 493.251 363.689 476.103Z" fill="{feathers_color_3}"/>
<path d="M400.341 518.107V560.112V560.119C407.282 560.461 413.196 559.001 418.207 556.345C435.07 547.408 441.715 524.937 442.925 512.107C438.543 503.082 435.948 491.294 436.857 476.103C433.466 493.251 423.544 514.346 400.341 518.086V518.107Z" fill="{feathers_color_3}"/>
<path d="M476.213 538.11C482.881 534.109 495.415 519.308 492.215 492.105C483.627 499.439 460.826 503.706 438.328 462.101C438.319 465.996 437.893 470.865 436.857 476.103C435.948 491.294 438.543 503.082 442.925 512.107C451.468 529.698 466.804 536.788 476.213 538.11Z" fill="{feathers_color_3}"/>
<path d="M302.331 444.1C297.53 461.701 304.331 483.437 308.331 492.105C316.92 499.439 339.72 503.706 362.218 462.101C357.845 454.094 355.349 445.657 354.336 439.502C341.067 452.8 318.696 465.92 302.331 444.1Z" fill="{feathers_color_2}"/>
<path d="M454.211 584.114C460.212 586.115 473.013 586.915 476.213 574.113C479.414 561.312 477.547 544.777 476.213 538.11C466.804 536.788 451.468 529.698 442.925 512.107C441.715 524.937 435.07 547.408 418.207 556.345C420.649 561.299 425.108 565.954 430.208 570.032C438.48 576.644 448.437 581.736 454.211 584.114Z" fill="{feathers_color_2}"/>
<path d="M324.333 574.113C327.533 586.915 340.335 586.115 346.335 584.114C352.109 581.736 362.067 576.644 370.338 570.032C375.438 565.954 379.898 561.299 382.339 556.345C365.476 547.408 358.831 524.937 357.621 512.107C349.078 529.698 333.742 536.788 324.333 538.11C323 544.777 321.133 561.312 324.333 574.113Z" fill="{feathers_color_2}"/>
<path d="M382.339 556.345C379.898 561.299 375.438 565.954 370.338 570.032C372.388 576.608 377.21 587.15 384.339 594.11C388.773 598.438 394.099 601.381 400.205 601.122V601.116V560.119C393.264 560.461 387.35 559.001 382.339 556.345Z" fill="{feathers_color_2}"/>
<path d="M430.208 570.032C425.108 565.954 420.649 561.299 418.207 556.345C413.196 559.001 407.282 560.461 400.341 560.119V601.116V601.122C406.447 601.381 411.773 598.438 416.207 594.11C423.337 587.15 428.159 576.608 430.208 570.032Z" fill="{feathers_color_2}"/>
<path d="M362.218 462.101C362.227 465.996 362.654 470.865 363.689 476.103C367.08 493.251 377.002 514.346 400.205 518.086V486.111C381.431 487.039 369.337 475.138 362.218 462.101Z" fill="{feathers_color_2}"/>
<path d="M436.857 476.103C437.893 470.865 438.319 465.996 438.328 462.101C431.209 475.138 419.115 487.039 400.341 486.111V518.086C423.544 514.346 433.466 493.251 436.857 476.103Z" fill="{feathers_color_2}"/>
<path d="M492.215 492.105C496.215 483.437 503.016 461.701 498.216 444.1C481.85 465.92 459.479 452.8 446.21 439.502C445.197 445.657 442.701 454.094 438.328 462.101C460.826 503.706 483.627 499.439 492.215 492.105Z" fill="{feathers_color_2}"/>
<path d="M284.329 380.093C282.729 405.695 295.663 433.432 302.331 444.1C318.696 465.92 341.067 452.8 354.336 439.502C356.636 437.197 358.662 434.886 360.337 432.752C319.542 421.464 293.593 395.018 284.329 380.093Z" fill="{feathers_color_1}"/>
<path d="M360.337 432.752C358.662 434.886 356.636 437.197 354.336 439.502C355.349 445.657 357.845 454.094 362.218 462.101C369.337 475.138 381.431 487.039 400.205 486.111V486.104V438.099L400.273 438.099C385.7 438.093 372.372 436.082 360.337 432.752Z" fill="{feathers_color_1}"/>
<path d="M400.341 438.099V486.104V486.111C419.115 487.039 431.209 475.138 438.328 462.101C442.701 454.094 445.197 445.657 446.21 439.502C443.91 437.197 441.884 434.886 440.21 432.752C428.174 436.082 414.846 438.093 400.273 438.099L400.341 438.099Z" fill="{feathers_color_1}"/>
<path d="M498.216 444.1C504.883 433.432 517.818 405.695 516.217 380.093C506.954 395.018 481.004 421.464 440.21 432.752C441.884 434.886 443.91 437.197 446.21 439.502C459.479 452.8 481.85 465.92 498.216 444.1Z" fill="{feathers_color_1}"/>
<path d="M342.335 620.118C347.135 626.519 360.337 617.451 366.337 612.117C371.005 608.113 381.139 598.906 384.339 594.11C377.21 587.15 372.388 576.608 370.338 570.032C362.067 576.644 352.109 581.736 346.335 584.114C343.002 593.449 337.534 613.718 342.335 620.118Z" fill="{feathers_color_1}"/>
<path d="M384.339 594.11C381.139 598.906 371.005 608.113 366.337 612.117C371.115 629.634 390.815 639.359 400.205 642.081V601.122C394.099 601.381 388.773 598.438 384.339 594.11Z" fill="{feathers_color_1}"/>
<path d="M434.209 612.117C429.542 608.113 419.407 598.906 416.207 594.11C411.773 598.438 406.447 601.381 400.341 601.122V642.081C409.731 639.359 429.431 629.634 434.209 612.117Z" fill="{feathers_color_1}"/>
<path d="M434.209 612.117C440.209 617.451 453.411 626.519 458.211 620.118C463.012 613.718 457.545 593.449 454.211 584.114C448.437 581.736 438.48 576.644 430.208 570.032C428.159 576.608 423.337 587.15 416.207 594.11C419.407 598.906 429.542 608.113 434.209 612.117Z" fill="{feathers_color_1}"/>
<path d="M400.341 642.121L399.517 645.005C400.422 645.264 401.396 645.083 402.148 644.516C402.899 643.949 403.341 643.062 403.341 642.121H400.341ZM366.337 612.117L364.384 609.84C364.371 609.852 364.357 609.863 364.344 609.875L366.337 612.117ZM284.329 380.093L286.878 378.511C286.189 377.401 284.863 376.865 283.597 377.183C282.33 377.502 281.416 378.603 281.334 379.906L284.329 380.093ZM400.341 438.099H403.341C403.341 436.442 401.999 435.099 400.342 435.099L400.341 438.099ZM357.621 512.107L354.922 510.796V510.796L357.621 512.107ZM400.205 642.121H397.205C397.205 643.062 397.647 643.949 398.398 644.516C399.15 645.083 400.124 645.264 401.029 645.005L400.205 642.121ZM434.209 612.117L436.202 609.875C436.189 609.863 436.176 609.852 436.162 609.84L434.209 612.117ZM516.217 380.093L519.212 379.906C519.131 378.603 518.216 377.502 516.95 377.183C515.684 376.865 514.357 377.401 513.668 378.511L516.217 380.093ZM400.205 438.099L400.205 435.099C398.548 435.099 397.205 436.442 397.205 438.099H400.205ZM442.925 512.107L445.624 510.796V510.796L442.925 512.107ZM364.344 609.875C361.468 612.431 356.918 615.826 352.635 617.791C350.478 618.781 348.628 619.295 347.217 619.319C345.922 619.34 345.223 618.969 344.735 618.318L339.935 621.918C341.847 624.468 344.598 625.364 347.317 625.318C349.919 625.275 352.644 624.389 355.137 623.245C360.155 620.943 365.206 617.137 368.331 614.36L364.344 609.875ZM344.735 618.318C344.095 617.464 343.568 615.758 343.464 612.993C343.364 610.33 343.669 607.126 344.244 603.714C345.39 596.899 347.536 589.674 349.161 585.124L343.51 583.105C341.801 587.889 339.546 595.466 338.326 602.719C337.717 606.34 337.347 609.988 337.468 613.217C337.585 616.344 338.175 619.572 339.935 621.918L344.735 618.318ZM345.387 581.268C342.759 582.144 338.676 582.722 335.051 581.764C331.66 580.867 328.555 578.631 327.244 573.386L321.422 574.841C323.311 582.397 328.207 586.161 333.517 587.565C338.593 588.907 343.911 588.085 347.284 586.961L345.387 581.268ZM327.244 573.386C324.202 561.22 325.975 545.199 327.275 538.698L321.391 537.521C320.024 544.354 318.063 561.404 321.422 574.841L327.244 573.386ZM325.877 535.537C320.293 532.187 308.239 518.572 311.311 492.455L305.352 491.754C302.023 520.043 315.038 536.032 322.789 540.682L325.877 535.537ZM311.056 490.847C309.158 486.736 306.535 479.376 304.982 470.911C303.424 462.423 302.989 453.087 305.225 444.889L299.436 443.31C296.871 452.714 297.437 463.047 299.08 471.994C300.726 480.965 303.504 488.805 305.607 493.362L311.056 490.847ZM304.875 442.509C301.667 437.376 296.866 427.987 293.072 416.738C289.275 405.476 286.556 392.552 287.323 380.28L281.334 379.906C280.501 393.236 283.45 406.982 287.386 418.655C291.327 430.342 296.327 440.155 299.786 445.69L304.875 442.509ZM281.78 381.675C291.401 397.177 317.945 424.135 359.537 435.643L361.137 429.86C321.139 418.793 295.784 392.859 286.878 378.511L281.78 381.675ZM357.976 430.9C356.376 432.94 354.429 435.161 352.212 437.382L356.46 441.621C358.843 439.232 360.949 436.833 362.698 434.603L357.976 430.9ZM352.212 437.382C345.743 443.865 337.31 450.024 328.799 452.052C324.602 453.052 320.458 453.031 316.496 451.629C312.539 450.228 308.531 447.366 304.731 442.299L299.93 445.9C304.313 451.744 309.238 455.425 314.493 457.285C319.743 459.144 325.091 459.104 330.19 457.889C340.273 455.487 349.66 448.436 356.46 441.621L352.212 437.382ZM397.341 438.099V486.104H403.341V438.099H397.341ZM351.376 439.989C352.438 446.441 355.033 455.205 359.585 463.539L364.851 460.664C360.657 452.982 358.261 444.873 357.297 439.014L351.376 439.989ZM306.383 494.386C311.419 498.687 320.356 501.876 331.013 498.299C341.602 494.746 353.419 484.681 364.857 463.529L359.579 460.674C348.52 481.126 337.687 489.73 329.104 492.611C320.589 495.468 313.832 492.856 310.28 489.823L306.383 494.386ZM359.218 462.109C359.227 466.202 359.674 471.263 360.746 476.685L366.633 475.521C365.633 470.467 365.227 465.79 365.218 462.094L359.218 462.109ZM324.75 541.081C335.003 539.64 351.28 532.033 360.32 513.417L354.922 510.796C346.876 527.364 332.481 533.935 323.916 535.138L324.75 541.081ZM360.32 513.417C364.957 503.87 367.62 491.557 366.684 475.924L360.694 476.282C361.577 491.031 359.05 502.295 354.922 510.796L360.32 513.417ZM397.341 518.107V560.112H403.341V518.107H397.341ZM354.634 512.389C355.267 519.1 357.308 528.269 361.395 536.962C365.476 545.641 371.727 554.116 380.934 558.996L383.744 553.694C376.089 549.636 370.586 542.407 366.825 534.409C363.072 526.425 361.185 517.944 360.608 511.825L354.634 512.389ZM347.478 586.889C353.441 584.432 363.663 579.209 372.211 572.376L368.464 567.689C360.47 574.08 350.778 579.04 345.193 581.34L347.478 586.889ZM372.211 572.376C377.461 568.179 382.308 563.195 385.03 557.671L379.648 555.018C377.487 559.403 373.416 563.73 368.464 567.689L372.211 572.376ZM367.473 570.925C369.601 577.751 374.62 588.815 382.243 596.257L386.435 591.963C379.799 585.485 375.174 575.464 373.202 569.139L367.473 570.925ZM368.291 614.395C370.662 612.361 374.407 609.018 377.974 605.568C381.472 602.185 385.032 598.478 386.835 595.775L381.844 592.445C380.446 594.539 377.339 597.834 373.803 601.254C370.336 604.608 366.681 607.87 364.384 609.84L368.291 614.395ZM432.216 614.36C435.34 617.137 440.391 620.943 445.409 623.245C447.902 624.389 450.627 625.275 453.23 625.318C455.948 625.364 458.699 624.468 460.612 621.918L455.811 618.318C455.323 618.969 454.624 619.34 453.329 619.319C451.919 619.295 450.068 618.781 447.911 617.791C443.628 615.826 439.078 612.431 436.202 609.875L432.216 614.36ZM460.612 621.918C462.371 619.572 462.961 616.344 463.079 613.217C463.2 609.988 462.83 606.34 462.22 602.719C461 595.466 458.745 587.889 457.036 583.105L451.385 585.124C453.01 589.674 455.156 596.899 456.303 603.714C456.877 607.126 457.182 610.33 457.082 612.993C456.978 615.758 456.452 617.464 455.811 618.318L460.612 621.918ZM453.262 586.961C456.635 588.085 461.953 588.907 467.029 587.565C472.339 586.161 477.235 582.397 479.124 574.841L473.303 573.386C471.991 578.631 468.886 580.867 465.495 581.764C461.87 582.722 457.787 582.144 455.16 581.268L453.262 586.961ZM479.124 574.841C482.483 561.404 480.522 544.354 479.155 537.521L473.271 538.698C474.572 545.199 476.344 561.22 473.303 573.386L479.124 574.841ZM477.757 540.682C485.508 536.032 498.523 520.043 495.195 491.754L489.235 492.455C492.308 518.572 480.253 532.187 474.67 535.537L477.757 540.682ZM494.939 493.362C497.042 488.805 499.82 480.965 501.467 471.994C503.109 463.047 503.675 452.714 501.11 443.31L495.321 444.889C497.557 453.087 497.123 462.423 495.565 470.911C494.011 479.376 491.388 486.736 489.491 490.847L494.939 493.362ZM500.76 445.69C504.219 440.155 509.219 430.342 513.16 418.655C517.096 406.982 520.045 393.236 519.212 379.906L513.223 380.28C513.99 392.552 511.272 405.476 507.474 416.738C503.68 427.987 498.88 437.376 495.671 442.509L500.76 445.69ZM513.668 378.511C504.762 392.859 479.408 418.793 439.409 429.86L441.01 435.643C482.601 424.135 509.145 397.177 518.767 381.675L513.668 378.511ZM437.849 434.603C439.597 436.833 441.703 439.232 444.086 441.621L448.334 437.382C446.118 435.161 444.17 432.94 442.57 430.9L437.849 434.603ZM444.086 441.621C450.887 448.436 460.273 455.487 470.356 457.889C475.456 459.104 480.803 459.144 486.053 457.285C491.308 455.425 496.233 451.744 500.616 445.9L495.815 442.299C492.015 447.366 488.007 450.228 484.05 451.629C480.088 453.031 475.945 453.052 471.747 452.052C463.236 450.024 454.803 443.865 448.334 437.382L444.086 441.621ZM397.205 438.099V486.104H403.206V438.099H397.205ZM443.25 439.014C442.285 444.873 439.889 452.982 435.695 460.664L440.962 463.539C445.513 455.205 448.108 446.441 449.171 439.989L443.25 439.014ZM490.267 489.823C486.715 492.856 479.957 495.468 471.442 492.611C462.859 489.73 452.027 481.126 440.968 460.674L435.689 463.529C447.128 484.681 458.944 494.746 469.533 498.299C480.19 501.876 489.127 498.687 494.163 494.386L490.267 489.823ZM435.328 462.094C435.319 465.79 434.913 470.467 433.914 475.521L439.8 476.685C440.872 471.263 441.319 466.201 441.329 462.109L435.328 462.094ZM476.631 535.138C468.065 533.935 453.67 527.364 445.624 510.796L440.226 513.417C449.267 532.033 465.543 539.64 475.796 541.081L476.631 535.138ZM445.624 510.796C441.496 502.295 438.969 491.031 439.852 476.282L433.862 475.924C432.926 491.557 435.59 503.87 440.226 513.417L445.624 510.796ZM397.205 518.107V560.112H403.206V518.107H397.205ZM439.938 511.825C439.361 517.944 437.475 526.425 433.721 534.409C429.96 542.407 424.457 549.636 416.802 553.694L419.612 558.996C428.82 554.116 435.071 545.641 439.151 536.962C443.238 528.269 445.279 519.1 445.912 512.389L439.938 511.825ZM455.354 581.34C449.769 579.04 440.076 574.08 432.082 567.689L428.335 572.376C436.883 579.209 447.106 584.432 453.068 586.889L455.354 581.34ZM432.082 567.689C427.131 563.73 423.059 559.403 420.898 555.018L415.516 557.671C418.238 563.195 423.085 568.179 428.335 572.376L432.082 567.689ZM427.344 569.139C425.372 575.464 420.747 585.485 414.111 591.963L418.303 596.257C425.926 588.815 430.945 577.751 433.073 570.925L427.344 569.139ZM436.162 609.84C433.866 607.87 430.211 604.608 426.744 601.254C423.207 597.834 420.1 594.539 418.703 592.445L413.711 595.775C415.514 598.478 419.074 602.185 422.572 605.568C426.139 609.018 429.885 612.361 432.255 614.395L436.162 609.84ZM400.274 435.099C385.98 435.092 372.921 433.121 361.137 429.86L359.537 435.643C371.824 439.043 385.421 441.093 400.272 441.099L400.274 435.099ZM359.585 463.539C366.981 477.085 379.953 490.116 400.353 489.108L400.057 483.114C382.91 483.962 371.692 473.191 364.851 460.664L359.585 463.539ZM403.206 486.111V486.104H397.205V486.111H403.206ZM400.205 441.099C400.228 441.099 400.251 441.099 400.275 441.099L400.272 435.099C400.25 435.099 400.228 435.099 400.205 435.099V441.099ZM439.409 429.86C427.626 433.121 414.566 435.092 400.272 435.099L400.274 441.099C415.126 441.093 428.722 439.043 441.01 435.643L439.409 429.86ZM400.353 489.108C400.402 489.105 400.45 489.103 400.499 489.1L400.183 483.108C400.141 483.11 400.099 483.112 400.057 483.114L400.353 489.108ZM400.272 441.099C400.295 441.099 400.318 441.099 400.341 441.099V435.099C400.319 435.099 400.297 435.099 400.274 435.099L400.272 441.099ZM360.746 476.685C364.202 494.165 374.577 516.994 399.728 521.048L400.683 515.124C379.427 511.698 369.958 492.337 366.633 475.521L360.746 476.685ZM403.206 518.086V486.111H397.205V518.086H403.206ZM397.205 518.086V518.107H403.206V518.086H397.205ZM399.728 521.048C399.777 521.056 399.825 521.063 399.873 521.071L400.809 515.144C400.767 515.137 400.724 515.13 400.683 515.124L399.728 521.048ZM380.934 558.996C386.431 561.909 392.882 563.484 400.353 563.115L400.057 557.122C393.646 557.439 388.27 556.092 383.744 553.694L380.934 558.996ZM403.206 560.119V560.112H397.205V560.119H403.206ZM397.205 560.119V601.116H403.206V560.119H397.205ZM400.353 563.115C400.402 563.113 400.45 563.111 400.499 563.108L400.183 557.116C400.141 557.118 400.099 557.12 400.057 557.122L400.353 563.115ZM382.243 596.257C387.02 600.92 393.106 604.426 400.332 604.12L400.078 598.125C395.091 598.336 390.526 595.956 386.435 591.963L382.243 596.257ZM403.206 601.122V601.116H397.205V601.122H403.206ZM400.332 604.12C400.385 604.118 400.438 604.115 400.491 604.113L400.191 598.12C400.154 598.122 400.116 598.123 400.078 598.125L400.332 604.12ZM363.443 612.907C366.072 622.547 372.751 629.869 379.756 635.058C386.768 640.254 394.37 643.514 399.37 644.963L401.041 639.2C396.65 637.927 389.708 634.964 383.328 630.237C376.94 625.504 371.38 619.204 369.232 611.328L363.443 612.907ZM403.206 642.081V601.122H397.205V642.081H403.206ZM397.205 642.081V642.121H403.206V642.081H397.205ZM401.165 639.236C401.124 639.224 401.082 639.212 401.041 639.2L399.37 644.963C399.419 644.978 399.468 644.992 399.517 645.005L401.165 639.236ZM397.341 601.122V642.081H403.341V601.122H397.341ZM401.176 644.963C406.176 643.514 413.779 640.254 420.791 635.058C427.795 629.869 434.474 622.547 437.103 612.907L431.314 611.328C429.166 619.204 423.606 625.504 417.219 630.237C410.839 634.964 403.896 637.927 399.506 639.2L401.176 644.963ZM414.111 591.963C410.021 595.956 405.455 598.336 400.468 598.125L400.214 604.12C407.44 604.426 413.526 600.92 418.303 596.257L414.111 591.963ZM401.029 645.005C401.078 644.992 401.127 644.978 401.176 644.963L399.506 639.2C399.464 639.212 399.423 639.224 399.381 639.236L401.029 645.005ZM400.468 598.125C400.43 598.123 400.393 598.122 400.355 598.12L400.055 604.113C400.108 604.115 400.161 604.118 400.214 604.12L400.468 598.125ZM397.341 601.116V601.122H403.341V601.116H397.341ZM397.341 642.081V642.121H403.341V642.081H397.341ZM397.341 560.119V601.116H403.341V560.119H397.341ZM416.802 553.694C412.277 556.092 406.901 557.439 400.489 557.122L400.193 563.115C407.664 563.484 414.115 561.909 419.612 558.996L416.802 553.694ZM400.489 557.122C400.447 557.12 400.405 557.118 400.363 557.116L400.048 563.108C400.096 563.111 400.145 563.113 400.193 563.115L400.489 557.122ZM397.341 560.112V560.119H403.341V560.112H397.341ZM397.341 518.086V518.107H403.341V518.086H397.341ZM433.914 475.521C430.589 492.337 421.119 511.698 399.864 515.124L400.818 521.048C425.969 516.994 436.344 494.165 439.8 476.685L433.914 475.521ZM399.864 515.124C399.822 515.13 399.78 515.137 399.737 515.144L400.673 521.071C400.721 521.063 400.77 521.056 400.818 521.048L399.864 515.124ZM435.695 460.664C428.854 473.191 417.637 483.962 400.489 483.114L400.193 489.108C420.593 490.116 433.565 477.085 440.962 463.539L435.695 460.664ZM397.341 486.111V518.086H403.341V486.111H397.341ZM397.341 486.104V486.111H403.341V486.104H397.341ZM400.489 483.114C400.447 483.112 400.405 483.11 400.363 483.108L400.048 489.1C400.096 489.103 400.144 489.105 400.193 489.108L400.489 483.114ZM400.272 441.099L400.34 441.099L400.342 435.099L400.274 435.099L400.272 441.099ZM400.206 441.099L400.274 441.099L400.272 435.099L400.205 435.099L400.206 441.099Z" fill="{stroke_color}"/>
</svg>
