<svg width="801" height="801" viewBox="0 0 801 801" fill="none" xmlns="http://www.w3.org/2000/svg">
<path d="M364.202 411.052H436.21C445.49 403.807 455.809 397.895 466.213 393.166H334.199C344.602 397.895 354.921 403.807 364.202 411.052Z" fill="{feathers_color_2}"/>
<path d="M387.651 436.426C387.651 436.426 392.205 430.425 400.206 430.425C408.207 430.425 412.76 436.426 412.76 436.426C418.968 426.584 427.087 418.174 436.21 411.052H364.202C373.324 418.174 381.443 426.584 387.651 436.426Z" fill="{feathers_color_3}"/>
<path d="M387.651 436.426C395.427 448.753 400.206 463.327 400.206 480.431C400.206 463.327 404.984 448.753 412.76 436.426C412.76 436.426 408.207 430.425 400.206 430.425C392.205 430.425 387.651 436.426 387.651 436.426Z" fill="{feathers_color_2}"/>
<path d="M400.206 536.437V636.447C406.109 636.142 412.914 634.615 420.208 631.53C418.971 584.497 434.47 490.432 506.362 490.432C510.144 471.44 512.993 450.18 514.632 426.425C450.956 423.225 411.816 498.433 400.206 536.437Z" fill="{feathers_color_2}"/>
<path d="M400.206 636.447V536.437C388.595 498.433 349.455 423.225 285.779 426.425C287.418 450.18 290.268 471.44 294.05 490.432C365.941 490.432 381.441 584.497 380.204 631.53C387.497 634.615 394.302 636.142 400.206 636.447Z" fill="{feathers_color_2}"/>
<path d="M420.208 631.53C450.256 618.818 488.596 579.648 506.362 490.432C434.47 490.432 418.971 584.497 420.208 631.53Z" fill="{feathers_color_3}"/>
<path d="M380.204 631.53C350.155 618.818 311.815 579.648 294.05 490.432C365.941 490.432 381.441 584.497 380.204 631.53Z" fill="{feathers_color_3}"/>
<path d="M284.193 378.42V375.42C282.536 375.42 281.193 376.763 281.193 378.42H284.193ZM400.206 636.447L400.051 639.443C400.154 639.449 400.257 639.449 400.361 639.443L400.206 636.447ZM285.779 426.425L282.786 426.631L285.779 426.425ZM380.204 631.53L379.035 634.293L380.204 631.53ZM294.05 490.432L291.107 491.018L294.05 490.432ZM516.218 378.42H519.218C519.218 376.763 517.875 375.42 516.218 375.42V378.42ZM514.632 426.425L517.625 426.631L514.632 426.425ZM420.208 631.53L421.377 634.293L420.208 631.53ZM506.362 490.432L509.304 491.018L506.362 490.432ZM387.651 436.426L385.114 438.027L387.651 436.426ZM412.76 436.426L415.298 438.027L412.76 436.426ZM436.21 411.052L438.056 413.417L436.21 411.052ZM397.205 480.431V536.437H403.206V480.431H397.205ZM397.205 536.437V636.447H403.206V536.437H397.205ZM288.773 426.218C287.744 411.302 287.194 395.389 287.194 378.42H281.193C281.193 395.518 281.747 411.57 282.786 426.631L288.773 426.218ZM403.075 535.56C397.182 516.272 384.332 487.59 364.827 464.064C345.333 440.552 318.805 421.761 285.629 423.428L285.93 429.422C316.43 427.889 341.309 445.101 360.207 467.894C379.094 490.674 391.618 518.597 397.336 537.313L403.075 535.56ZM400.361 633.451C394.845 633.166 388.383 631.732 381.373 628.766L379.035 634.293C386.612 637.498 393.759 639.118 400.051 639.443L400.361 633.451ZM381.373 628.766C352.545 616.571 314.639 578.465 296.992 489.846L291.107 491.018C308.992 580.832 347.766 621.065 379.035 634.293L381.373 628.766ZM296.992 489.846C293.238 470.991 290.404 449.859 288.773 426.218L282.786 426.631C284.433 450.502 287.298 471.889 291.107 491.018L296.992 489.846ZM383.203 631.608C383.829 607.818 380.238 572.074 367.304 542.153C354.348 512.182 331.674 487.431 294.05 487.431V493.432C328.317 493.432 349.338 515.715 361.796 544.534C374.275 573.403 377.816 608.209 377.204 631.451L383.203 631.608ZM517.625 426.631C518.664 411.57 519.218 395.518 519.218 378.42H513.218C513.218 395.389 512.668 411.302 511.639 426.218L517.625 426.631ZM403.075 537.313C408.793 518.597 421.318 490.674 440.204 467.894C459.102 445.101 483.982 427.889 514.481 429.422L514.783 423.428C481.607 421.761 455.079 440.552 435.585 464.064C416.08 487.59 403.229 516.272 397.336 535.56L403.075 537.313ZM400.361 639.443C406.653 639.118 413.8 637.498 421.377 634.293L419.039 628.766C412.029 631.732 405.566 633.166 400.051 633.451L400.361 639.443ZM421.377 634.293C452.645 621.065 491.419 580.832 509.304 491.018L503.419 489.846C485.772 578.465 447.867 616.571 419.039 628.766L421.377 634.293ZM509.304 491.018C513.113 471.889 515.978 450.502 517.625 426.631L511.639 426.218C510.008 449.859 507.174 470.991 503.419 489.846L509.304 491.018ZM423.207 631.451C422.596 608.209 426.136 573.403 438.616 544.534C451.073 515.715 472.094 493.432 506.362 493.432V487.431C468.738 487.431 446.063 512.182 433.107 542.153C420.174 572.074 416.583 607.818 417.209 631.608L423.207 631.451ZM385.114 438.027C392.601 449.897 397.205 463.92 397.205 480.431H403.206C403.206 462.735 398.253 447.609 390.189 434.825L385.114 438.027ZM410.222 434.825C402.159 447.609 397.205 462.735 397.205 480.431H403.206C403.206 463.92 407.81 449.897 415.298 438.027L410.222 434.825ZM387.651 436.426C390.041 438.24 390.041 438.241 390.04 438.242C390.04 438.242 390.039 438.243 390.039 438.243C390.038 438.245 390.037 438.246 390.036 438.247C390.035 438.248 390.034 438.25 390.033 438.251C390.031 438.254 390.03 438.255 390.03 438.255C390.03 438.254 390.035 438.248 390.044 438.238C390.061 438.216 390.094 438.175 390.144 438.117C390.244 438 390.406 437.817 390.63 437.59C391.078 437.132 391.759 436.508 392.651 435.882C394.438 434.628 396.986 433.426 400.206 433.426L400.206 427.425C395.425 427.425 391.695 429.223 389.205 430.97C387.959 431.844 387.001 432.72 386.346 433.387C386.018 433.722 385.762 434.008 385.581 434.22C385.491 434.326 385.419 434.413 385.365 434.48C385.339 434.513 385.317 434.541 385.299 434.563C385.291 434.574 385.283 434.584 385.277 434.592C385.274 434.596 385.271 434.6 385.268 434.603C385.267 434.605 385.266 434.607 385.264 434.608C385.264 434.609 385.263 434.61 385.263 434.61C385.262 434.611 385.261 434.612 387.651 436.426ZM400.206 433.426C403.426 433.426 405.973 434.628 407.76 435.882C408.652 436.508 409.333 437.132 409.782 437.59C410.005 437.817 410.168 438 410.267 438.117C410.317 438.175 410.351 438.216 410.368 438.238C410.376 438.248 410.381 438.254 410.381 438.255C410.382 438.255 410.381 438.254 410.379 438.251C410.378 438.25 410.377 438.248 410.375 438.247C410.374 438.246 410.374 438.245 410.373 438.243C410.372 438.243 410.372 438.242 410.371 438.242C410.371 438.241 410.37 438.24 412.76 436.426C415.15 434.612 415.149 434.611 415.149 434.61C415.148 434.61 415.147 434.609 415.147 434.608C415.146 434.607 415.145 434.605 415.143 434.603C415.141 434.6 415.138 434.596 415.135 434.592C415.128 434.584 415.121 434.574 415.112 434.563C415.095 434.541 415.073 434.513 415.046 434.48C414.993 434.413 414.921 434.326 414.83 434.22C414.649 434.008 414.394 433.722 414.065 433.387C413.41 432.72 412.453 431.844 411.206 430.97C408.716 429.223 404.987 427.425 400.206 427.425L400.206 433.426ZM362.356 413.417C371.259 420.368 379.123 428.53 385.114 438.027L390.189 434.825C383.763 424.637 375.389 415.979 366.048 408.687L362.356 413.417ZM434.363 408.687C425.022 415.979 416.649 424.637 410.222 434.825L415.298 438.027C421.288 428.53 429.152 420.368 438.056 413.417L434.363 408.687ZM364.202 414.052H436.21V408.052H364.202V414.052ZM284.193 381.42H516.218V375.42H284.193V381.42ZM283.783 381.392C297.094 383.228 315.152 387.802 332.957 395.897L335.44 390.434C317.069 382.082 298.445 377.357 284.603 375.448L283.783 381.392ZM332.957 395.897C343.19 400.549 353.296 406.345 362.356 413.417L366.048 408.687C356.546 401.269 346.014 395.241 335.44 390.434L332.957 395.897ZM515.808 375.448C501.967 377.357 483.343 382.082 464.971 390.434L467.454 395.897C485.259 387.802 503.318 383.228 516.628 381.392L515.808 375.448ZM464.971 390.434C454.397 395.241 443.865 401.269 434.363 408.687L438.056 413.417C447.115 406.345 457.222 400.549 467.454 395.897L464.971 390.434ZM334.199 396.166H466.213V390.165H334.199V396.166Z" fill="{stroke_color}"/>
</svg>
