<svg width="800" height="800" viewBox="0 0 800 800" fill="none" xmlns="http://www.w3.org/2000/svg">
<path d="M402 604L424.517 617V643L402 656L379.483 643V617L402 604Z" fill="{feathers_color_1}" stroke="{stroke_color}" stroke-width="1.5" stroke-linejoin="round"/>
<path d="M378 564L400.517 577V603L378 616L355.483 603V577L378 564Z" fill="{feathers_color_3}" stroke="{stroke_color}" stroke-width="1.5" stroke-linejoin="round"/>
<path d="M426 564L448.517 577V603L426 616L403.483 603V577L426 564Z" fill="{feathers_color_3}" stroke="{stroke_color}" stroke-width="1.5" stroke-linejoin="round"/>
<path d="M402 524L424.517 537V563L402 576L379.483 563V537L402 524Z" fill="{feathers_color_1}" stroke="{stroke_color}" stroke-width="1.5" stroke-linejoin="round"/>
<path d="M378 484L400.517 497V523L378 536L355.483 523V497L378 484Z" fill="{feathers_color_2}" stroke="{stroke_color}" stroke-width="1.5" stroke-linejoin="round"/>
<path d="M426 484L448.517 497V523L426 536L403.483 523V497L426 484Z" fill="{feathers_color_2}" stroke="{stroke_color}" stroke-width="1.5" stroke-linejoin="round"/>
<path d="M354 448L376.517 461V487L354 500L331.483 487V461L354 448Z" fill="{feathers_color_3}" stroke="{stroke_color}" stroke-width="1.5" stroke-linejoin="round"/>
<path d="M402 448L424.517 461V487L402 500L379.483 487V461L402 448Z" fill="{feathers_color_3}" stroke="{stroke_color}" stroke-width="1.5" stroke-linejoin="round"/>
<path d="M450 448L472.517 461V487L450 500L427.483 487V461L450 448Z" fill="{feathers_color_3}" stroke="{stroke_color}" stroke-width="1.5" stroke-linejoin="round"/>
<path d="M330 408L352.517 421V447L330 460L307.483 447V421L330 408Z" fill="{feathers_color_1}" stroke="{stroke_color}" stroke-width="1.5" stroke-linejoin="round"/>
<path d="M378 408L400.517 421V447L378 460L355.483 447V421L378 408Z" fill="{feathers_color_1}" stroke="{stroke_color}" stroke-width="1.5" stroke-linejoin="round"/>
<path d="M426 408L448.517 421V447L426 460L403.483 447V421L426 408Z" fill="{feathers_color_1}" stroke="{stroke_color}" stroke-width="1.5" stroke-linejoin="round"/>
<path d="M474 408L496.517 421V447L474 460L451.483 447V421L474 408Z" fill="{feathers_color_1}" stroke="{stroke_color}" stroke-width="1.5" stroke-linejoin="round"/>
<path d="M306 368L328.517 381V407L306 420L283.483 407V381L306 368Z" fill="{feathers_color_2}" stroke="{stroke_color}" stroke-width="1.5" stroke-linejoin="round"/>
<path d="M354 368L376.517 381V407L354 420L331.483 407V381L354 368Z" fill="{feathers_color_2}" stroke="{stroke_color}" stroke-width="1.5" stroke-linejoin="round"/>
<path d="M402 368L424.517 381V407L402 420L379.483 407V381L402 368Z" fill="{feathers_color_2}" stroke="{stroke_color}" stroke-width="1.5" stroke-linejoin="round"/>
<path d="M450 368L472.517 381V407L450 420L427.483 407V381L450 368Z" fill="{feathers_color_2}" stroke="{stroke_color}" stroke-width="1.5" stroke-linejoin="round"/>
<path d="M498 368L520.517 381V407L498 420L475.483 407V381L498 368Z" fill="{feathers_color_2}" stroke="{stroke_color}" stroke-width="1.5" stroke-linejoin="round"/>
</svg>
