<svg width="801" height="801" viewBox="0 0 801 801" fill="none" xmlns="http://www.w3.org/2000/svg">
<path d="M312.919 384.306C304.123 427.318 297.898 529.07 343.368 591.976C351.066 599.986 363.768 612.335 375.601 621.971C343.368 505.278 343.368 418.729 355.301 384.306H312.919Z" fill="{feathers_color_2}"/>
<path d="M457.045 591.976C502.515 529.07 496.29 427.318 487.494 384.306H445.112C457.045 418.729 457.045 505.278 424.812 621.971C436.645 612.335 449.347 599.986 457.045 591.976Z" fill="{feathers_color_2}"/>
<path d="M400.207 636.332L400.207 384.306H355.301C343.368 418.729 343.368 505.278 375.601 621.971C385.61 630.122 394.997 636.332 400.207 636.332Z" fill="{feathers_color_3}"/>
<path d="M400.207 384.306L400.207 636.332C405.416 636.332 414.803 630.122 424.812 621.971C457.045 505.278 457.045 418.729 445.112 384.306H400.207Z" fill="{feathers_color_3}"/>
<path d="M312.919 614.154L310.553 615.999L311.583 617.32L313.249 617.136L312.919 614.154ZM281.708 408.5L284.7 408.724L281.708 408.5ZM284.5 384.306V381.305H281.999L281.549 383.765L284.5 384.306ZM280.2 454.873L283.2 454.86L280.2 454.873ZM282.386 505.278L285.375 505.022L282.386 505.278ZM290.018 557.7L287.088 558.347L290.018 557.7ZM487.494 614.154L487.165 617.136L488.83 617.32L489.86 615.999L487.494 614.154ZM518.705 408.5L515.713 408.724L518.705 408.5ZM515.913 384.306L518.864 383.765L518.414 381.305H515.913V384.306ZM520.213 454.873L517.213 454.86L520.213 454.873ZM518.028 505.278L515.038 505.022L518.028 505.278ZM510.396 557.7L513.325 558.347L510.396 557.7ZM340.8 590.424C331.584 605.68 317.842 610.592 312.59 611.172L313.249 617.136C320.177 616.372 335.665 610.53 345.937 593.527L340.8 590.424ZM284.7 408.724C285.455 398.646 286.426 390.449 287.452 384.846L281.549 383.765C280.469 389.664 279.479 398.096 278.716 408.276L284.7 408.724ZM283.2 454.86C283.127 437.542 283.733 421.637 284.7 408.724L278.716 408.276C277.736 421.357 277.126 437.421 277.2 454.886L283.2 454.86ZM285.375 505.022C283.911 487.943 283.268 470.812 283.2 454.86L277.2 454.886C277.268 470.975 277.916 488.271 279.396 505.535L285.375 505.022ZM315.286 612.31C305.242 599.424 297.983 579.848 292.947 557.053L287.088 558.347C292.189 581.439 299.686 602.057 310.553 615.999L315.286 612.31ZM292.947 557.053C289.343 540.736 286.909 522.924 285.375 505.022L279.396 505.535C280.947 523.621 283.412 541.705 287.088 558.347L292.947 557.053ZM397.206 384.306L397.206 636.332H403.207L403.207 384.306L397.206 384.306ZM312.919 381.305H284.5V387.306H312.919V381.305ZM309.98 383.705C305.53 405.465 301.751 441.938 304.803 480.915C307.851 519.854 317.743 561.646 340.937 593.733L345.8 590.218C323.523 559.399 313.793 518.863 310.785 480.447C307.78 442.068 311.513 406.159 315.859 384.907L309.98 383.705ZM400.207 381.305H355.301V387.306H400.207V381.305ZM355.301 381.305H312.919V387.306H355.301V381.305ZM400.207 633.332C399.447 633.332 398.29 633.092 396.689 632.45C395.12 631.821 393.297 630.876 391.257 629.642C387.177 627.172 382.449 623.679 377.495 619.644L373.706 624.297C378.762 628.414 383.732 632.102 388.15 634.775C390.36 636.112 392.485 637.229 394.455 638.019C396.391 638.796 398.361 639.333 400.207 639.333V633.332ZM377.495 619.644C365.789 610.111 353.18 597.855 345.532 589.897L341.205 594.055C348.953 602.116 361.747 614.558 373.706 624.297L377.495 619.644ZM352.467 383.323C346.305 401.096 343.349 431.812 345.895 472.475C348.446 513.231 356.544 564.247 372.709 622.77L378.493 621.172C362.426 563.003 354.407 512.398 351.884 472.1C349.355 431.708 352.365 401.938 358.136 385.288L352.467 383.323ZM454.477 593.527C464.748 610.53 480.236 616.372 487.165 617.136L487.823 611.172C482.572 610.592 468.829 605.68 459.613 590.424L454.477 593.527ZM521.697 408.276C520.934 398.096 519.944 389.664 518.864 383.765L512.962 384.846C513.987 390.449 514.958 398.646 515.713 408.724L521.697 408.276ZM523.214 454.886C523.287 437.421 522.677 421.357 521.697 408.276L515.713 408.724C516.68 421.637 517.286 437.542 517.213 454.86L523.214 454.886ZM521.017 505.535C522.497 488.271 523.146 470.975 523.214 454.886L517.213 454.86C517.146 470.812 516.502 487.943 515.038 505.022L521.017 505.535ZM489.86 615.999C500.727 602.057 508.224 581.439 513.325 558.347L507.466 557.053C502.43 579.848 495.171 599.424 485.127 612.31L489.86 615.999ZM513.325 558.347C517.002 541.705 519.467 523.621 521.017 505.535L515.038 505.022C513.504 522.924 511.071 540.736 507.466 557.053L513.325 558.347ZM487.494 387.306H515.913V381.305H487.494V387.306ZM484.554 384.907C488.901 406.159 492.633 442.068 489.628 480.447C486.621 518.863 476.89 559.399 454.613 590.218L459.476 593.733C482.67 561.646 492.562 519.854 495.611 480.915C498.662 441.938 494.883 405.465 490.433 383.705L484.554 384.907ZM400.207 387.306H445.112V381.305H400.207V387.306ZM445.112 387.306H487.494V381.305H445.112V387.306ZM400.207 639.333C402.052 639.333 404.022 638.796 405.958 638.019C407.928 637.229 410.054 636.112 412.263 634.775C416.681 632.102 421.652 628.414 426.707 624.297L422.918 619.644C417.964 623.679 413.236 627.172 409.156 629.642C407.116 630.876 405.293 631.821 403.724 632.45C402.123 633.092 400.966 633.332 400.207 633.332V639.333ZM426.707 624.297C438.666 614.558 451.46 602.116 459.208 594.055L454.882 589.897C447.234 597.855 434.624 610.111 422.918 619.644L426.707 624.297ZM442.277 385.288C448.049 401.938 451.059 431.708 448.53 472.1C446.007 512.398 437.988 563.003 421.92 621.172L427.704 622.77C443.87 564.247 451.967 513.231 454.519 472.475C457.064 431.812 454.108 401.096 447.947 383.323L442.277 385.288Z" fill="{stroke_color}"/>
</svg>
