<svg width="801" height="801" viewBox="0 0 801 801" fill="none" xmlns="http://www.w3.org/2000/svg">
<rect x="0.606934" y="0.488281" width="800.085" height="800.085" fill="#D9D9D9"/>
<mask id="path-2-inside-1_277_29" fill="white">
<path d="M454.655 208.509C434.556 208.509 415.931 214.816 400.649 225.559V379.478C415.931 390.221 434.556 396.529 454.655 396.529C506.575 396.529 548.665 354.439 548.665 302.519C548.665 250.598 506.575 208.509 454.655 208.509Z"/>
<path d="M346.644 396.529C366.743 396.529 385.368 390.221 400.649 379.478V225.559C385.368 214.816 366.743 208.509 346.644 208.509C294.724 208.509 252.634 250.598 252.634 302.519C252.634 354.439 294.724 396.529 346.644 396.529Z"/>
</mask>
<path d="M454.655 208.509C434.556 208.509 415.931 214.816 400.649 225.559V379.478C415.931 390.221 434.556 396.529 454.655 396.529C506.575 396.529 548.665 354.439 548.665 302.519C548.665 250.598 506.575 208.509 454.655 208.509Z" fill="#525252"/>
<path d="M346.644 396.529C366.743 396.529 385.368 390.221 400.649 379.478V225.559C385.368 214.816 366.743 208.509 346.644 208.509C294.724 208.509 252.634 250.598 252.634 302.519C252.634 354.439 294.724 396.529 346.644 396.529Z" fill="#A7A5A5"/>
<path d="M397.649 225.559V379.478H403.65V225.559H397.649ZM400.649 379.478L404.101 374.569L400.649 372.143L397.198 374.569L400.649 379.478ZM400.649 225.559L397.198 230.468L400.649 232.895L404.101 230.468L400.649 225.559ZM397.198 374.569C382.895 384.625 365.467 390.528 346.644 390.528V402.529C368.018 402.529 387.842 395.818 404.101 384.387L397.198 374.569ZM346.644 390.528C298.038 390.528 258.634 351.125 258.634 302.519H246.633C246.633 357.753 291.41 402.529 346.644 402.529V390.528ZM258.634 302.519C258.634 253.912 298.038 214.509 346.644 214.509V202.508C291.41 202.508 246.633 247.284 246.633 302.519H258.634ZM346.644 214.509C365.467 214.509 382.895 220.412 397.198 230.468L404.101 220.651C387.842 209.22 368.018 202.508 346.644 202.508V214.509ZM404.101 230.468C418.404 220.412 435.831 214.509 454.655 214.509V202.508C433.281 202.508 413.457 209.22 397.198 220.651L404.101 230.468ZM454.655 214.509C503.261 214.509 542.665 253.912 542.665 302.519H554.666C554.666 247.284 509.889 202.508 454.655 202.508V214.509ZM542.665 302.519C542.665 351.125 503.261 390.528 454.655 390.528V402.529C509.889 402.529 554.666 357.753 554.666 302.519H542.665ZM454.655 390.528C435.831 390.528 418.404 384.625 404.101 374.569L397.198 384.387C413.457 395.818 433.281 402.529 454.655 402.529V390.528Z" fill="black" mask="url(#path-2-inside-1_277_29)"/>
</svg>
