<svg width="801" height="801" viewBox="0 0 801 801" fill="none" xmlns="http://www.w3.org/2000/svg">
<rect x="0.606934" y="0.707031" width="800.085" height="800.085" fill="#D9D9D9"/>
<path d="M494.736 376.745C467.582 385.805 421.394 391.413 400.726 390.747V304.738C400.726 294.737 400.726 208.727 454.655 208.727C518.662 208.727 540.74 288.736 540.74 298.737C544.741 292.736 555.742 282.736 558.742 288.736C563.543 298.337 548.075 318.739 536.74 324.74C543.407 322.073 554.706 312.739 560.706 322.74C567.983 334.868 543.806 360.373 494.736 376.745Z" fill="#525252" stroke="black" stroke-width="6.00064" stroke-linejoin="round"/>
<path d="M303.876 376.745C331.029 385.805 377.217 391.413 397.886 390.747V304.738C397.886 294.737 397.886 208.727 343.956 208.727C279.949 208.727 257.871 288.736 257.871 298.737C253.87 292.736 242.869 282.736 239.869 288.736C235.068 298.337 250.537 318.739 261.871 324.74C255.204 322.073 243.906 312.739 237.905 322.74C230.628 334.868 254.805 360.373 303.876 376.745Z" fill="#A7A5A5" stroke="black" stroke-width="6.00064" stroke-linejoin="round"/>
</svg>
