<svg width="801" height="801" viewBox="0 0 801 801" fill="none" xmlns="http://www.w3.org/2000/svg">
<rect x="0.606934" y="0.0488281" width="800.085" height="800.085" fill="#D9D9D9"/>
<mask id="path-2-inside-1_270_337" fill="white">
<path d="M464.656 200.071C437.882 200.071 414.033 202.563 398.649 222.074V336.052C414.033 355.563 437.882 368.089 464.656 368.089C511.053 368.089 548.665 330.477 548.665 284.08C548.665 237.684 511.053 200.071 464.656 200.071Z"/>
<path d="M332.642 368.089C359.416 368.089 383.266 355.563 398.649 336.052V222.074C383.266 202.563 359.416 200.071 332.642 200.071C286.245 200.071 248.633 237.684 248.633 284.08C248.633 330.477 286.245 368.089 332.642 368.089Z"/>
</mask>
<path d="M464.656 200.071C437.882 200.071 414.033 202.563 398.649 222.074V336.052C414.033 355.563 437.882 368.089 464.656 368.089C511.053 368.089 548.665 330.477 548.665 284.08C548.665 237.684 511.053 200.071 464.656 200.071Z" fill="#525252"/>
<path d="M332.642 368.089C359.416 368.089 383.266 355.563 398.649 336.052V222.074C383.266 202.563 359.416 200.071 332.642 200.071C286.245 200.071 248.633 237.684 248.633 284.08C248.633 330.477 286.245 368.089 332.642 368.089Z" fill="#A7A5A5"/>
<path d="M395.649 222.074V336.052H401.649V222.074H395.649ZM398.649 336.052L403.361 332.337L398.649 326.361L393.937 332.337L398.649 336.052ZM398.649 222.074L393.937 225.789L398.649 231.765L403.361 225.789L398.649 222.074ZM393.937 332.337C379.642 350.467 357.501 362.088 332.642 362.088V374.09C361.332 374.09 386.889 360.66 403.361 339.768L393.937 332.337ZM332.642 362.088C289.559 362.088 254.634 327.163 254.634 284.08H242.633C242.633 333.791 282.931 374.09 332.642 374.09V362.088ZM254.634 284.08C254.634 240.998 289.559 206.072 332.642 206.072V194.071C282.931 194.071 242.633 234.37 242.633 284.08H254.634ZM332.642 206.072C359.533 206.072 380.512 208.762 393.937 225.789L403.361 218.358C386.019 196.364 359.3 194.071 332.642 194.071V206.072ZM403.361 225.789C416.786 208.762 437.766 206.072 464.656 206.072V194.071C437.998 194.071 411.279 196.364 393.937 218.358L403.361 225.789ZM464.656 206.072C507.739 206.072 542.664 240.998 542.664 284.08H554.666C554.666 234.37 514.367 194.071 464.656 194.071V206.072ZM542.664 284.08C542.664 327.163 507.739 362.088 464.656 362.088V374.09C514.367 374.09 554.666 333.791 554.666 284.08H542.664ZM464.656 362.088C439.797 362.088 417.656 350.467 403.361 332.337L393.937 339.768C410.409 360.66 435.966 374.09 464.656 374.09V362.088Z" fill="black" mask="url(#path-2-inside-1_270_337)"/>
</svg>
