<svg width="801" height="801" viewBox="0 0 801 801" fill="none" xmlns="http://www.w3.org/2000/svg">
<rect x="0.606934" y="0.595703" width="800.085" height="800.085" fill="#D9D9D9"/>
<path d="M480.658 366.637C480.658 366.637 448.654 392.639 400.649 392.639V204.619C448.654 204.619 492.659 226.621 492.659 226.621C498.66 220.621 507.327 214.62 516.662 214.62C518.662 226.621 509.994 237.29 506.661 244.624C514.661 238.623 525.329 237.29 530.663 238.623C528.663 250.624 518.662 262.626 512.661 266.626C532.663 284.628 538.664 298.629 544.665 310.631C538.664 314.631 532.663 314.631 530.663 314.631C542.664 316.631 546.665 318.631 552.665 324.632C544.665 331.033 525.329 333.967 516.662 334.633C536.664 346.635 532.663 370.637 530.663 366.637C529.063 363.436 513.995 358.636 506.661 356.636C513.061 366.237 514.661 381.972 514.661 388.639C500.66 386.638 492.659 382.638 480.658 366.637Z" fill="#525252" stroke="black" stroke-width="6.00064" stroke-linejoin="round"/>
<path d="M320.641 366.637C320.641 366.637 352.644 392.639 400.649 392.639V204.619C352.644 204.619 308.64 226.621 308.64 226.621C302.639 220.621 293.971 214.62 284.637 214.62C282.637 226.621 291.305 237.29 294.638 244.624C286.637 238.623 275.97 237.29 270.636 238.623C272.636 250.624 282.637 262.626 288.638 266.626C268.635 284.628 262.635 298.629 256.634 310.631C262.635 314.631 268.635 314.631 270.636 314.631C258.634 316.631 254.634 318.631 248.633 324.632C256.634 331.033 275.97 333.967 284.637 334.633C264.635 346.635 268.635 370.637 270.636 366.637C272.236 363.436 287.304 358.636 294.638 356.636C288.238 366.237 286.637 381.972 286.637 388.639C300.639 386.638 308.64 382.638 320.641 366.637Z" fill="#A7A5A5" stroke="black" stroke-width="6.00064" stroke-linejoin="round"/>
</svg>
