<svg width="945" height="151" viewBox="0 0 945 151" fill="none" xmlns="http://www.w3.org/2000/svg">
<path d="M186.92 124V34.6H216.08C225.76 34.6 234.16 36.52 241.28 40.36C248.4 44.2 253.92 49.48 257.84 56.2C261.76 62.92 263.72 70.6 263.72 79.24C263.72 87.88 261.76 95.6 257.84 102.4C253.92 109.12 248.4 114.4 241.28 118.24C234.16 122.08 225.76 124 216.08 124H186.92ZM205.52 107.8H216.56C222.4 107.8 227.44 106.64 231.68 104.32C235.92 101.92 239.2 98.6 241.52 94.36C243.92 90.04 245.12 85 245.12 79.24C245.12 73.4 243.92 68.36 241.52 64.12C239.2 59.88 235.92 56.6 231.68 54.28C227.44 51.96 222.4 50.8 216.56 50.8H205.52V107.8ZM284.511 150.64C282.591 150.64 280.711 150.48 278.871 150.16C277.111 149.84 275.551 149.32 274.191 148.6V133.84C275.311 134.16 276.631 134.44 278.151 134.68C279.671 134.92 281.071 135.04 282.351 135.04C285.871 135.04 288.391 134.2 289.911 132.52C291.431 130.84 292.671 128.92 293.631 126.76L298.071 116.56L297.831 131.56L269.031 58.48H288.351L307.431 110.44H300.231L319.311 58.48H338.631L310.551 130.12C308.791 134.68 306.631 138.48 304.071 141.52C301.511 144.56 298.591 146.84 295.311 148.36C292.111 149.88 288.511 150.64 284.511 150.64ZM346.498 124V58.48H363.298V71.44L362.338 68.56C363.858 64.64 366.298 61.76 369.658 59.92C373.098 58 377.098 57.04 381.658 57.04C386.618 57.04 390.938 58.08 394.618 60.16C398.378 62.24 401.298 65.16 403.378 68.92C405.458 72.6 406.498 76.92 406.498 81.88V124H388.498V85.72C388.498 83.16 387.978 80.96 386.938 79.12C385.978 77.28 384.578 75.84 382.738 74.8C380.978 73.76 378.898 73.24 376.498 73.24C374.178 73.24 372.098 73.76 370.258 74.8C368.418 75.84 366.978 77.28 365.938 79.12C364.978 80.96 364.498 83.16 364.498 85.72V124H346.498ZM438.614 125.44C433.894 125.44 429.814 124.68 426.374 123.16C422.934 121.64 420.294 119.48 418.454 116.68C416.614 113.8 415.694 110.4 415.694 106.48C415.694 102.8 416.534 99.56 418.214 96.76C419.894 93.88 422.454 91.48 425.894 89.56C429.414 87.64 433.774 86.28 438.974 85.48L459.014 82.24V95.44L442.214 98.44C439.654 98.92 437.694 99.76 436.334 100.96C434.974 102.08 434.294 103.72 434.294 105.88C434.294 107.88 435.054 109.44 436.574 110.56C438.094 111.68 439.974 112.24 442.214 112.24C445.174 112.24 447.774 111.6 450.014 110.32C452.254 109.04 453.974 107.32 455.174 105.16C456.454 102.92 457.094 100.48 457.094 97.84V80.8C457.094 78.32 456.094 76.24 454.094 74.56C452.174 72.88 449.534 72.04 446.174 72.04C442.974 72.04 440.134 72.92 437.654 74.68C435.254 76.44 433.494 78.76 432.374 81.64L417.974 74.8C419.254 71.12 421.294 67.96 424.094 65.32C426.894 62.68 430.254 60.64 434.174 59.2C438.094 57.76 442.374 57.04 447.014 57.04C452.534 57.04 457.414 58.04 461.654 60.04C465.894 62.04 469.174 64.84 471.494 68.44C473.894 71.96 475.094 76.08 475.094 80.8V124H458.294V113.44L462.374 112.72C460.454 115.6 458.334 118 456.014 119.92C453.694 121.76 451.094 123.12 448.214 124C445.334 124.96 442.134 125.44 438.614 125.44ZM488.295 124V58.48H505.095V74.44L503.295 71.8C504.255 66.76 506.575 63.04 510.255 60.64C513.935 58.24 518.335 57.04 523.455 57.04C528.895 57.04 533.655 58.44 537.735 61.24C541.895 63.96 544.495 67.64 545.535 72.28L540.375 72.76C542.535 67.4 545.615 63.44 549.615 60.88C553.615 58.32 558.295 57.04 563.655 57.04C568.375 57.04 572.535 58.08 576.135 60.16C579.815 62.24 582.695 65.16 584.775 68.92C586.855 72.6 587.895 76.92 587.895 81.88V124H569.895V85.72C569.895 83.16 569.415 80.96 568.455 79.12C567.575 77.28 566.295 75.84 564.615 74.8C562.935 73.76 560.895 73.24 558.495 73.24C556.175 73.24 554.135 73.76 552.375 74.8C550.695 75.84 549.375 77.28 548.415 79.12C547.535 80.96 547.095 83.16 547.095 85.72V124H529.095V85.72C529.095 83.16 528.615 80.96 527.655 79.12C526.775 77.28 525.495 75.84 523.815 74.8C522.135 73.76 520.095 73.24 517.695 73.24C515.375 73.24 513.335 73.76 511.575 74.8C509.895 75.84 508.575 77.28 507.615 79.12C506.735 80.96 506.295 83.16 506.295 85.72V124H488.295ZM599.741 124V58.48H617.741V124H599.741ZM599.741 52.6V34.6H617.741V52.6H599.741ZM663.073 125.44C656.513 125.44 650.593 123.96 645.313 121C640.113 117.96 635.953 113.84 632.833 108.64C629.793 103.44 628.272 97.6 628.272 91.12C628.272 84.64 629.793 78.84 632.833 73.72C635.873 68.52 640.033 64.44 645.313 61.48C650.593 58.52 656.513 57.04 663.073 57.04C667.953 57.04 672.473 57.88 676.633 59.56C680.793 61.24 684.353 63.6 687.313 66.64C690.273 69.6 692.393 73.12 693.673 77.2L678.073 83.92C676.953 80.64 675.033 78.04 672.313 76.12C669.673 74.2 666.593 73.24 663.073 73.24C659.953 73.24 657.153 74 654.673 75.52C652.273 77.04 650.353 79.16 648.913 81.88C647.553 84.6 646.873 87.72 646.873 91.24C646.873 94.76 647.553 97.88 648.913 100.6C650.353 103.32 652.273 105.44 654.673 106.96C657.153 108.48 659.953 109.24 663.073 109.24C666.673 109.24 669.793 108.28 672.433 106.36C675.073 104.44 676.953 101.84 678.073 98.56L693.673 105.4C692.473 109.24 690.393 112.68 687.433 115.72C684.473 118.76 680.913 121.16 676.753 122.92C672.593 124.6 668.033 125.44 663.073 125.44ZM727.154 124V34.6H741.434L789.434 97.84L781.754 99.64V34.6H800.354V124H785.954L738.794 60.28L745.754 58.48V124H727.154ZM816.217 124V34.6H877.417V50.8H834.817V73.48H871.417V89.68H834.817V124H816.217ZM902.727 124V50.8H880.047V34.6H943.647V50.8H921.327V124H902.727Z" fill="#bbb0d1"/>
<path d="M127.067 121.541L103.855 140.898C124.087 140.898 108.27 140.898 127.067 140.898V121.541Z" fill="#3500AA"/>
<path d="M40.0996 70.6537V139.208L80.2618 105.769V40.2764L40.0996 70.6537Z" fill="#3DB6A0"/>
<path d="M40.0996 70.6537V139.208L80.2618 105.769V40.2764L40.0996 70.6537Z" fill="url(#paint0_linear_5558_68408)"/>
<path d="M40.0983 105.769L0 139.208C34.9631 139.208 7.63899 139.208 40.0983 139.208V105.769Z" fill="#3500AA"/>
<path d="M87.7871 37.3774V143.906L128 110.467V7L87.7871 37.3774Z" fill="#3DB6A0"/>
<path d="M87.7871 37.3774V143.906L128 110.467V7L87.7871 37.3774Z" fill="url(#paint1_linear_5558_68408)"/>
<path d="M87.7917 110.467L47.6934 143.906C82.6437 143.906 55.3196 143.906 87.7917 143.906V110.467Z" fill="#3500AA"/>
<defs>
<linearGradient id="paint0_linear_5558_68408" x1="47.7067" y1="113.947" x2="87.8161" y2="101.122" gradientUnits="userSpaceOnUse">
<stop stop-color="#651FFF"/>
<stop offset="1" stop-color="#F50057"/>
</linearGradient>
<linearGradient id="paint1_linear_5558_68408" x1="95.4039" y1="108.949" x2="137.421" y2="99.2277" gradientUnits="userSpaceOnUse">
<stop stop-color="#651FFF"/>
<stop offset="1" stop-color="#F50057"/>
</linearGradient>
</defs>
</svg>
