<svg width="512" height="512" viewBox="0 0 512 512" fill="none" xmlns="http://www.w3.org/2000/svg">
<path d="M256.03 0H255.97C114.602 0 0 114.602 0 255.97V256.03C0 397.398 114.602 512 255.97 512H256.03C397.398 512 512 397.398 512 256.03V255.97C512 114.602 397.398 0 256.03 0Z" fill="url(#paint0_linear_1_55)"/>
<path d="M385.775 117L325.837 181.921C306.547 164.833 281.668 155.398 255.898 155.398C230.127 155.398 205.249 164.833 185.959 181.921L126.294 117.205H91V261.315C91 305.076 108.384 347.044 139.328 377.988C170.271 408.931 212.24 426.315 256 426.315C299.761 426.315 341.729 408.931 372.673 377.988C403.616 347.044 421 305.076 421 261.315V117H385.775ZM333.96 261.315C333.918 279.599 327.466 297.289 315.73 311.308C303.993 325.328 287.713 334.789 269.722 338.047V284.389L324.676 224.52C330.797 235.816 333.989 248.467 333.96 261.315ZM255.864 183.014C274.678 183.016 292.851 189.858 306.995 202.265L256.069 257.492L204.8 201.923C218.983 189.666 237.118 182.95 255.864 183.014ZM187.597 223.973L242.21 283.297V338.388C224.19 335.112 207.891 325.617 196.153 311.558C184.414 297.499 177.98 279.767 177.972 261.452C177.787 248.259 180.983 235.239 187.256 223.632L187.597 223.973ZM119.331 261.657V149.904L167.732 202.401C157.743 217.367 151.73 234.629 150.26 252.561C148.79 270.493 151.911 288.505 159.328 304.897C166.746 321.289 178.216 335.523 192.657 346.255C207.098 356.987 224.034 363.865 241.869 366.241V397.302C208.229 393.836 177.073 378.008 154.435 352.886C131.797 327.763 119.288 295.133 119.331 261.315V261.657ZM393.011 261.657C393.069 295.615 380.47 328.376 357.674 353.546C334.878 378.715 303.52 394.486 269.722 397.78V366.309C287.516 363.98 304.426 357.166 318.865 346.508C333.303 335.849 344.795 321.696 352.262 305.377C359.728 289.058 362.924 271.109 361.55 253.215C360.176 235.322 354.276 218.071 344.405 203.084L393.011 150.109V261.657Z" fill="white"/>
<defs>
<linearGradient id="paint0_linear_1_55" x1="96.9775" y1="381.268" x2="444.792" y2="107.303" gradientUnits="userSpaceOnUse">
<stop stop-color="#651FFF"/>
<stop offset="1" stop-color="#F50057"/>
</linearGradient>
</defs>
</svg>
