<svg width="801" height="801" viewBox="0 0 801 801" fill="none" xmlns="http://www.w3.org/2000/svg">
<rect x="0.725098" y="0.268555" width="800.085" height="800.085" fill="#D9D9D9"/>
<path d="M402.768 347.305C405.247 347.305 407.779 346.126 409.993 344.545C412.277 342.914 414.55 340.623 416.562 337.875C420.58 332.386 423.77 324.778 423.77 316.301C423.77 312.061 422.969 308.615 421.49 305.859C420 303.079 417.907 301.165 415.602 299.88C411.137 297.392 405.903 297.299 402.768 297.299C399.632 297.299 394.398 297.392 389.934 299.88C387.628 301.165 385.536 303.079 384.045 305.859C382.566 308.615 381.765 312.061 381.765 316.301C381.765 324.778 384.955 332.386 388.973 337.875C390.985 340.623 393.258 342.914 395.542 344.545C397.756 346.126 400.288 347.305 402.768 347.305Z" fill="#A7A5A5" stroke="black" stroke-width="6.00064"/>
</svg>
