<svg width="801" height="801" viewBox="0 0 801 801" fill="none" xmlns="http://www.w3.org/2000/svg">
<rect x="0.725098" y="0.0629883" width="800.085" height="800.085" fill="#D9D9D9"/>
<path d="M413.769 308.096C413.769 314.231 411.771 322.853 409.037 329.997C407.676 333.554 406.193 336.583 404.795 338.666C404.092 339.713 403.483 340.409 403.009 340.813C402.913 340.895 402.832 340.956 402.768 341.002C402.703 340.956 402.622 340.895 402.526 340.813C402.052 340.409 401.444 339.713 400.74 338.666C399.342 336.583 397.859 333.554 396.498 329.997C393.764 322.853 391.766 314.231 391.766 308.096C391.766 295.987 399.369 291.094 402.768 291.094C406.166 291.094 413.769 295.987 413.769 308.096Z" fill="#A7A5A5" stroke="black" stroke-width="6.00064"/>
</svg>
