<svg width="801" height="801" viewBox="0 0 801 801" fill="none" xmlns="http://www.w3.org/2000/svg">
<rect x="0.725098" y="0.707031" width="800.085" height="800.085" fill="#D9D9D9"/>
<path fill-rule="evenodd" clip-rule="evenodd" d="M398.768 334.745C395.434 336.079 384.763 335.945 381.563 324.744C378.363 313.543 385.564 308.076 389.564 306.742L401.565 316.743L398.768 334.745ZM407.566 334.745C410.899 336.079 421.57 335.945 424.77 324.744C427.971 313.543 420.77 308.076 416.769 306.742L404.768 316.743L407.566 334.745Z" fill="#A7A5A5"/>
<path d="M381.563 324.744L378.678 325.568L381.563 324.744ZM398.768 334.745L399.882 337.531C400.866 337.137 401.569 336.253 401.732 335.206L398.768 334.745ZM389.564 306.742L391.485 304.437C390.687 303.772 389.601 303.567 388.615 303.896L389.564 306.742ZM401.565 316.743L404.53 317.204C404.692 316.163 404.295 315.113 403.486 314.438L401.565 316.743ZM424.77 324.744L421.885 323.92L424.77 324.744ZM407.566 334.745L404.601 335.206C404.764 336.253 405.467 337.137 406.452 337.531L407.566 334.745ZM416.769 306.742L417.718 303.896C416.732 303.567 415.647 303.772 414.849 304.437L416.769 306.742ZM404.768 316.743L402.847 314.438C402.038 315.113 401.642 316.163 401.803 317.204L404.768 316.743ZM378.678 325.568C380.56 332.154 384.763 335.692 389.09 337.265C393.202 338.76 397.468 338.496 399.882 337.531L397.653 331.959C396.733 332.328 393.997 332.664 391.141 331.625C388.499 330.665 385.767 328.535 384.448 323.92L378.678 325.568ZM388.615 303.896C386.068 304.745 382.669 306.825 380.345 310.412C377.944 314.119 376.856 319.189 378.678 325.568L384.448 323.92C383.07 319.098 383.982 315.834 385.381 313.674C386.858 311.394 389.059 310.073 390.513 309.589L388.615 303.896ZM403.486 314.438L391.485 304.437L387.643 309.047L399.644 319.048L403.486 314.438ZM401.732 335.206L404.53 317.204L398.6 316.282L395.803 334.284L401.732 335.206ZM421.885 323.92C420.567 328.535 417.834 330.665 415.193 331.625C412.336 332.664 409.6 332.328 408.68 331.959L406.452 337.531C408.865 338.496 413.131 338.76 417.243 337.265C421.57 335.692 425.773 332.154 427.655 325.568L421.885 323.92ZM415.821 309.589C417.274 310.073 419.475 311.394 420.952 313.674C422.351 315.834 423.263 319.098 421.885 323.92L427.655 325.568C429.478 319.189 428.389 314.119 425.988 310.412C423.665 306.825 420.265 304.745 417.718 303.896L415.821 309.589ZM406.689 319.048L418.69 309.047L414.849 304.437L402.847 314.438L406.689 319.048ZM410.531 334.284L407.733 316.282L401.803 317.204L404.601 335.206L410.531 334.284Z" fill="black"/>
<path d="M413.769 308.738C413.769 314.874 411.771 323.495 409.038 330.639C407.677 334.196 406.194 337.226 404.795 339.308C404.092 340.355 403.483 341.052 403.01 341.455C402.913 341.537 402.833 341.599 402.768 341.644C402.703 341.599 402.623 341.537 402.526 341.455C402.053 341.052 401.444 340.355 400.741 339.308C399.342 337.226 397.859 334.196 396.498 330.639C393.765 323.495 391.767 314.874 391.767 308.738C391.767 296.629 399.369 291.737 402.768 291.737C406.167 291.737 413.769 296.629 413.769 308.738Z" fill="#A7A5A5" stroke="black" stroke-width="6.00064"/>
</svg>
