<svg width="801" height="801" viewBox="0 0 801 801" fill="none" xmlns="http://www.w3.org/2000/svg">
<rect x="0.725098" y="0.15918" width="800.085" height="800.085" fill="#D9D9D9"/>
<path d="M402.768 347.196C405.374 347.196 407.452 345.708 408.953 343.93C410.466 342.139 411.693 339.724 412.665 337.003C414.618 331.534 415.769 324.176 415.769 316.192C415.769 308.209 414.618 300.851 412.665 295.382C411.693 292.661 410.466 290.246 408.953 288.454C407.452 286.677 405.374 285.189 402.768 285.189C400.161 285.189 398.084 286.677 396.582 288.454C395.069 290.246 393.842 292.661 392.87 295.382C390.917 300.851 389.766 308.209 389.766 316.192C389.766 324.176 390.917 331.534 392.87 337.003C393.842 339.724 395.069 342.139 396.582 343.93C398.084 345.708 400.161 347.196 402.768 347.196Z" fill="#A7A5A5" stroke="black" stroke-width="6.00064"/>
</svg>
