<svg width="801" height="802" viewBox="0 0 801 802" fill="none" xmlns="http://www.w3.org/2000/svg">
<rect x="0.725098" y="0.94043" width="800.085" height="800.085" fill="#D9D9D9"/>
<path d="M430.771 318.974C433.771 318.928 433.77 318.925 433.77 318.922L433.77 318.914L433.77 318.899L433.769 318.865C433.769 318.854 433.768 318.842 433.768 318.83C433.767 318.815 433.766 318.799 433.765 318.782C433.762 318.721 433.757 318.648 433.749 318.563C433.734 318.394 433.707 318.179 433.661 317.925C433.569 317.416 433.4 316.75 433.092 315.981C432.468 314.427 431.297 312.52 429.147 310.689C424.866 307.043 417.045 303.972 402.768 303.972C388.49 303.972 380.669 307.043 376.388 310.689C374.238 312.52 373.067 314.427 372.443 315.981C372.135 316.75 371.966 317.416 371.874 317.925C371.828 318.179 371.802 318.394 371.786 318.563C371.778 318.648 371.773 318.721 371.77 318.782C371.768 318.813 371.767 318.84 371.766 318.865L371.765 318.899L371.765 318.914L371.765 318.922C371.765 318.925 371.765 318.928 374.765 318.974L371.765 318.928C371.745 320.232 372.569 321.398 373.803 321.816L390.323 327.406L400.049 348.246C400.555 349.33 401.656 350.01 402.852 349.976C404.048 349.942 405.109 349.202 405.553 348.091L413.825 327.413L431.665 321.838C432.934 321.441 433.791 320.257 433.771 318.928L430.771 318.974Z" fill="#A7A5A5" stroke="black" stroke-width="6.00064" stroke-linejoin="round"/>
</svg>
