<svg width="801" height="801" viewBox="0 0 801 801" fill="none" xmlns="http://www.w3.org/2000/svg">
<rect x="0.725098" y="0.595703" width="800.085" height="800.085" fill="#D9D9D9"/>
<path d="M402.768 288.627L404.482 286.165C403.452 285.447 402.083 285.447 401.053 286.165L402.768 288.627ZM402.768 288.627C401.053 286.165 401.052 286.165 401.051 286.166L401.049 286.167L401.044 286.171L401.029 286.182L400.978 286.217C400.937 286.247 400.878 286.289 400.804 286.343C400.656 286.45 400.446 286.605 400.182 286.805C399.654 287.204 398.912 287.786 398.025 288.53C396.257 290.015 393.894 292.167 391.523 294.837C386.869 300.077 381.765 307.781 381.765 316.63C381.765 325.106 384.955 332.714 388.973 338.203C390.985 340.952 393.258 343.243 395.542 344.874C397.756 346.455 400.288 347.633 402.768 347.633C405.247 347.633 407.779 346.455 409.993 344.874C412.277 343.243 414.55 340.952 416.562 338.203C420.58 332.714 423.77 325.106 423.77 316.63C423.77 307.781 418.666 300.077 414.012 294.837C411.641 292.167 409.278 290.015 407.51 288.53C406.623 287.786 405.881 287.204 405.353 286.805C405.089 286.605 404.879 286.45 404.731 286.343C404.657 286.289 404.598 286.247 404.557 286.217L404.507 286.182L404.491 286.171L404.486 286.167L404.484 286.166C404.483 286.165 404.482 286.165 402.768 288.627Z" fill="#A7A5A5" stroke="black" stroke-width="6.00064" stroke-linejoin="round"/>
</svg>
