<svg width="801" height="801" viewBox="0 0 801 801" fill="none" xmlns="http://www.w3.org/2000/svg">
<rect x="0.725098" y="0.609863" width="800.085" height="800.085" fill="#D9D9D9"/>
<path d="M383.931 292.199C383.784 291.211 383.155 290.362 382.254 289.933C381.353 289.504 380.297 289.551 379.438 290.058C371.35 294.836 365.764 302.74 365.764 311.963C365.764 327.467 381.199 338.966 398.767 338.966C416.335 338.966 431.771 327.467 431.771 311.963C431.771 302.74 426.185 294.836 418.097 290.058C417.238 289.551 416.182 289.504 415.281 289.933C414.38 290.362 413.751 291.211 413.604 292.199C412.525 299.422 406.291 304.963 398.767 304.963C391.244 304.963 385.009 299.422 383.931 292.199Z" fill="#A7A5A5" stroke="black" stroke-width="6.00064" stroke-linejoin="round"/>
</svg>
