<svg width="24" height="24" viewBox="0 0 24 24" fill="none" xmlns="http://www.w3.org/2000/svg">
<path fill-rule="evenodd" clip-rule="evenodd" d="M8.8 16.8C8.8 16.6409 8.86321 16.4883 8.97574 16.3757C9.08826 16.2632 9.24087 16.2 9.4 16.2H20.2C20.3591 16.2 20.5117 16.2632 20.6243 16.3757C20.7368 16.4883 20.8 16.6409 20.8 16.8C20.8 16.9591 20.7368 17.1117 20.6243 17.2243C20.5117 17.3368 20.3591 17.4 20.2 17.4H9.4C9.24087 17.4 9.08826 17.3368 8.97574 17.2243C8.86321 17.1117 8.8 16.9591 8.8 16.8ZM8.8 12C8.8 11.8409 8.86321 11.6883 8.97574 11.5757C9.08826 11.4632 9.24087 11.4 9.4 11.4H20.2C20.3591 11.4 20.5117 11.4632 20.6243 11.5757C20.7368 11.6883 20.8 11.8409 20.8 12C20.8 12.1591 20.7368 12.3117 20.6243 12.4243C20.5117 12.5368 20.3591 12.6 20.2 12.6H9.4C9.24087 12.6 9.08826 12.5368 8.97574 12.4243C8.86321 12.3117 8.8 12.1591 8.8 12ZM8.8 7.2C8.8 7.04087 8.86321 6.88826 8.97574 6.77574C9.08826 6.66321 9.24087 6.6 9.4 6.6H20.2C20.3591 6.6 20.5117 6.66321 20.6243 6.77574C20.7368 6.88826 20.8 7.04087 20.8 7.2C20.8 7.35913 20.7368 7.51174 20.6243 7.62426C20.5117 7.73679 20.3591 7.8 20.2 7.8H9.4C9.24087 7.8 9.08826 7.73679 8.97574 7.62426C8.86321 7.51174 8.8 7.35913 8.8 7.2ZM5.2 8.4C5.51826 8.4 5.82348 8.27357 6.04853 8.04853C6.27357 7.82348 6.4 7.51826 6.4 7.2C6.4 6.88174 6.27357 6.57652 6.04853 6.35147C5.82348 6.12643 5.51826 6 5.2 6C4.88174 6 4.57652 6.12643 4.35147 6.35147C4.12643 6.57652 4 6.88174 4 7.2C4 7.51826 4.12643 7.82348 4.35147 8.04853C4.57652 8.27357 4.88174 8.4 5.2 8.4ZM5.2 13.2C5.51826 13.2 5.82348 13.0736 6.04853 12.8485C6.27357 12.6235 6.4 12.3183 6.4 12C6.4 11.6817 6.27357 11.3765 6.04853 11.1515C5.82348 10.9264 5.51826 10.8 5.2 10.8C4.88174 10.8 4.57652 10.9264 4.35147 11.1515C4.12643 11.3765 4 11.6817 4 12C4 12.3183 4.12643 12.6235 4.35147 12.8485C4.57652 13.0736 4.88174 13.2 5.2 13.2ZM5.2 18C5.51826 18 5.82348 17.8736 6.04853 17.6485C6.27357 17.4235 6.4 17.1183 6.4 16.8C6.4 16.4817 6.27357 16.1765 6.04853 15.9515C5.82348 15.7264 5.51826 15.6 5.2 15.6C4.88174 15.6 4.57652 15.7264 4.35147 15.9515C4.12643 16.1765 4 16.4817 4 16.8C4 17.1183 4.12643 17.4235 4.35147 17.6485C4.57652 17.8736 4.88174 18 5.2 18Z" fill="#70797B"/>
</svg>
