<svg width="8" height="15" viewBox="0 0 8 15" fill="none" xmlns="http://www.w3.org/2000/svg">
<path d="M7.9973 7.51176C7.99782 7.76167 7.90487 8.00385 7.73458 8.19628L2.02324 14.6136C1.82936 14.832 1.55074 14.9694 1.2487 14.9955C0.946653 15.0215 0.645916 14.9342 0.412646 14.7527C0.179376 14.5711 0.0326817 14.3102 0.00483352 14.0274C-0.0230146 13.7446 0.0702645 13.463 0.264151 13.2446L5.38151 7.51176L0.446915 1.77894C0.352031 1.66954 0.281175 1.54366 0.238417 1.40853C0.19566 1.2734 0.181846 1.1317 0.197768 0.991553C0.213691 0.851411 0.259035 0.715596 0.331196 0.591916C0.403358 0.468236 0.500913 0.359129 0.618254 0.270866C0.735704 0.172916 0.873491 0.098732 1.02298 0.0529633C1.17248 0.00719452 1.33045 -0.00917244 1.48702 0.00488472C1.64358 0.0189419 1.79535 0.0631208 1.93283 0.134656C2.07031 0.206191 2.19053 0.303542 2.28596 0.420606L7.80311 6.83794C7.94648 7.0359 8.01486 7.27315 7.9973 7.51176Z" fill="currentColor"/>
</svg>
