<svg width="801" height="801" viewBox="0 0 801 801" fill="none" xmlns="http://www.w3.org/2000/svg">
<rect x="0.376709" y="0.488281" width="800.085" height="800.085" fill="#D9D9D9"/>
<path d="M538.434 206.509C556.036 206.509 539.101 235.846 528.433 250.514L518.432 230.512L496.43 186.507C522.432 162.504 531.345 152.504 548.435 152.503C566.437 152.502 545.768 199.842 538.434 206.509Z" fill="#525252"/>
<path d="M538.434 206.509C556.036 206.509 539.101 235.846 528.433 250.514L518.432 230.512M538.434 206.509C520.832 206.509 519.765 226.511 518.432 230.512M538.434 206.509C545.768 199.842 566.437 152.502 548.435 152.503C531.345 152.504 522.432 162.504 496.43 186.507L518.432 230.512" stroke="black" stroke-width="8.00085" stroke-linecap="round" stroke-linejoin="round"/>
<path d="M265.578 206.509C247.976 206.509 264.911 235.846 275.579 250.514L285.58 230.512L307.583 186.507C281.58 162.504 272.667 152.504 255.577 152.503C237.575 152.502 258.244 199.842 265.578 206.509Z" fill="#A7A5A5"/>
<path d="M265.578 206.509C247.976 206.509 264.911 235.846 275.579 250.514L285.58 230.512M265.578 206.509C283.18 206.509 284.247 226.511 285.58 230.512M265.578 206.509C258.244 199.842 237.575 152.502 255.577 152.503C272.667 152.504 281.58 162.504 307.583 186.507L285.58 230.512" stroke="black" stroke-width="8.00085" stroke-linecap="round" stroke-linejoin="round"/>
</svg>
