<svg width="801" height="801" viewBox="0 0 801 801" fill="none" xmlns="http://www.w3.org/2000/svg">
<rect x="0.376709" y="0.707031" width="800.085" height="800.085" fill="#D9D9D9"/>
<path d="M496.429 186.726L530.433 248.732C588.039 194.326 593.106 163.39 588.439 154.722H570.437C575.238 149.922 579.105 127.386 578.438 122.719L546.434 134.72C543.234 145.921 511.764 174.058 496.429 186.726Z" fill="#525252"/>
<path d="M570.437 154.722C575.238 149.922 579.105 127.386 578.438 122.719L546.434 134.72C543.234 145.921 511.764 174.058 496.429 186.726L530.433 248.732C588.039 194.326 593.106 163.39 588.439 154.722H570.437ZM570.437 154.722C565.77 162.723 553.235 180.725 540.434 188.726" stroke="black" stroke-width="8.00085" stroke-linecap="round" stroke-linejoin="round"/>
<path d="M305.735 186.726L271.732 248.732C214.126 194.326 209.058 163.39 213.726 154.722H231.728C226.927 149.922 223.06 127.386 223.727 122.719L255.73 134.72C258.93 145.921 290.4 174.058 305.735 186.726Z" fill="#A7A5A5"/>
<path d="M231.728 154.722C226.927 149.922 223.06 127.386 223.727 122.719L255.73 134.72C258.93 145.921 290.4 174.058 305.735 186.726L271.732 248.732C214.126 194.326 209.058 163.39 213.726 154.722H231.728ZM231.728 154.722C236.395 162.723 248.929 180.725 261.731 188.726" stroke="black" stroke-width="8.00085" stroke-linecap="round" stroke-linejoin="round"/>
</svg>
