<svg width="801" height="802" viewBox="0 0 801 802" fill="none" xmlns="http://www.w3.org/2000/svg">
<rect x="0.376709" y="0.94043" width="800.085" height="800.085" fill="#D9D9D9"/>
<path d="M549.954 130.49C524.607 141.76 511.633 154.896 496.429 186.96L525.548 248.434C527.333 252.203 533.008 251.059 533.246 246.897C535.696 204.133 540.08 175.901 555.143 135.54C556.365 132.265 553.147 129.07 549.954 130.49Z" fill="#525252"/>
<path d="M496.429 186.96C511.633 154.896 524.607 141.76 549.954 130.49C553.147 129.07 556.365 132.265 555.143 135.54C540.08 175.901 535.696 204.133 533.246 246.897C533.008 251.059 527.333 252.203 525.548 248.434L496.429 186.96ZM496.429 186.96C497.763 171.625 504.43 138.155 520.432 126.954" stroke="black" stroke-width="8.00085" stroke-linecap="round" stroke-linejoin="round"/>
<path d="M252.884 130.49C278.231 141.76 291.205 154.896 306.409 186.96L277.29 248.434C275.505 252.203 269.83 251.059 269.592 246.897C267.142 204.133 262.758 175.901 247.695 135.54C246.473 132.265 249.691 129.07 252.884 130.49Z" fill="#A7A5A5"/>
<path d="M306.409 186.96C291.205 154.896 278.231 141.76 252.884 130.49C249.691 129.07 246.473 132.265 247.695 135.54C262.758 175.901 267.142 204.133 269.592 246.897C269.83 251.059 275.505 252.203 277.29 248.434L306.409 186.96ZM306.409 186.96C305.075 171.625 298.408 138.155 282.406 126.954" stroke="black" stroke-width="8.00085" stroke-linecap="round" stroke-linejoin="round"/>
</svg>
