<svg width="801" height="801" viewBox="0 0 801 801" fill="none" xmlns="http://www.w3.org/2000/svg">
<rect x="0.376709" y="0.595703" width="800.085" height="800.085" fill="#D9D9D9"/>
<path d="M524.433 168.614C519.632 173.414 503.764 182.615 496.43 186.616L530.433 248.622C538.434 242.221 545.768 220.619 548.435 210.618C554.836 207.418 555.103 198.617 554.436 194.616C562.437 193.016 560.436 183.282 558.436 178.615C566.437 172.214 564.437 165.28 562.437 162.613C570.438 154.612 569.771 136.61 568.437 128.609C566.437 142.611 530.433 162.613 524.433 168.614Z" fill="#525252" stroke="black" stroke-width="8.00085" stroke-linecap="round" stroke-linejoin="round"/>
<path d="M281.221 168.614C286.022 173.414 301.89 182.615 309.224 186.616L275.221 248.622C267.22 242.221 259.886 220.619 257.219 210.618C250.818 207.418 250.551 198.617 251.218 194.616C243.217 193.016 245.218 183.282 247.218 178.615C239.217 172.214 241.217 165.28 243.217 162.613C235.217 154.612 235.883 136.61 237.217 128.609C239.217 142.611 275.221 162.613 281.221 168.614Z" fill="#A7A5A5" stroke="black" stroke-width="8.00085" stroke-linecap="round" stroke-linejoin="round"/>
</svg>
