<svg width="801" height="801" viewBox="0 0 801 801" fill="none" xmlns="http://www.w3.org/2000/svg">
<rect x="0.376709" y="0.830078" width="800.085" height="800.085" fill="#D9D9D9"/>
<path d="M496.429 187.227L528.432 251.234C518.831 212.83 522.431 185.226 564.436 175.224C538.433 147.221 502.429 151.222 496.429 187.227Z" fill="#525252"/>
<path d="M528.432 251.234L524.854 253.023L532.313 250.264L528.432 251.234ZM496.429 187.227L492.483 186.569L492.269 187.853L492.851 189.016L496.429 187.227ZM564.436 175.224L565.363 179.116C566.747 178.787 567.852 177.747 568.264 176.385C568.677 175.023 568.336 173.545 567.367 172.502L564.436 175.224ZM532.01 249.445L500.007 185.438L492.851 189.016L524.854 253.023L532.01 249.445ZM500.375 187.885C503.141 171.284 512.531 162.87 523.54 161.177C534.873 159.433 549.129 164.619 561.504 177.947L567.367 172.502C553.74 157.827 536.992 151.012 522.323 153.269C507.329 155.576 495.717 167.165 492.483 186.569L500.375 187.885ZM563.509 171.333C541.683 176.53 528.915 186.577 523.345 201.15C517.929 215.319 519.715 232.861 524.551 252.204L532.313 250.264C527.548 231.202 526.334 215.74 530.819 204.006C535.15 192.676 545.184 183.921 565.363 179.116L563.509 171.333Z" fill="black"/>
<path d="M308.41 187.227L276.406 251.234C286.007 212.83 282.407 185.226 240.402 175.224C266.405 147.221 302.409 151.222 308.41 187.227Z" fill="#A7A5A5"/>
<path d="M276.406 251.234L279.984 253.023L272.525 250.264L276.406 251.234ZM308.41 187.227L312.356 186.569L312.57 187.853L311.988 189.016L308.41 187.227ZM240.402 175.224L239.476 179.116C238.092 178.787 236.987 177.747 236.574 176.385C236.161 175.023 236.503 173.545 237.471 172.502L240.402 175.224ZM272.828 249.445L304.832 185.438L311.988 189.016L279.984 253.023L272.828 249.445ZM304.464 187.885C301.697 171.284 292.307 162.87 281.299 161.177C269.965 159.433 255.71 164.619 243.334 177.947L237.471 172.502C251.098 157.827 267.846 151.012 282.515 153.269C297.509 155.576 309.122 167.165 312.356 186.569L304.464 187.885ZM241.329 171.333C263.155 176.53 275.923 186.577 281.493 201.15C286.909 215.319 285.123 232.861 280.287 252.204L272.525 250.264C277.291 231.202 278.505 215.74 274.02 204.006C269.689 192.676 259.654 183.921 239.476 179.116L241.329 171.333Z" fill="black"/>
</svg>
