<svg width="801" height="801" viewBox="0 0 801 801" fill="none" xmlns="http://www.w3.org/2000/svg">
<rect x="0.376709" y="0.268555" width="800.085" height="800.085" fill="#D9D9D9"/>
<path d="M544.434 132.282C530.432 160.285 516.431 174.287 496.429 188.288L530.432 248.295C548.434 230.293 560.435 196.289 558.435 188.288C556.835 181.887 544.434 193.622 538.433 200.289C551.235 185.888 549.768 144.283 544.434 132.282Z" fill="#525252" stroke="black" stroke-width="8.00085" stroke-linecap="round" stroke-linejoin="round"/>
<path d="M262.621 132.282C276.622 160.285 290.624 174.287 310.626 188.288L276.622 248.295C258.62 230.293 246.619 196.289 248.619 188.288C250.22 181.887 262.621 193.622 268.622 200.289C255.82 185.888 257.287 144.283 262.621 132.282Z" fill="#A7A5A5" stroke="black" stroke-width="8.00085" stroke-linecap="round" stroke-linejoin="round"/>
</svg>
