<svg width="801" height="801" viewBox="0 0 801 801" fill="none" xmlns="http://www.w3.org/2000/svg">
<path d="M414.317 642.46C410.983 579.787 411.916 449.64 442.32 430.438C444.32 435.105 446.72 447.64 440.319 460.441C453.654 439.105 484.724 395.634 502.326 392.434C501.309 400.063 496.955 414.908 487.134 425.783C504.638 410.77 532.209 385.257 556.332 380.433C554.331 402.435 539.93 415.236 530.329 418.437C535.663 421.104 546.331 428.038 546.331 434.438C541.663 438.439 532.729 450.04 534.329 464.441C536.33 482.443 540.33 510.446 534.329 534.449C529.529 553.651 512.327 578.454 504.326 588.455C502.763 585.849 500.711 580.229 502.181 574.843C495.927 587.237 484.237 607.376 474.323 614.457C472.99 613.124 471.123 609.257 474.323 604.456C459.655 619.791 427.118 648.861 414.317 642.46Z" fill="{wing_right_color}" stroke="{stroke_color}" stroke-width="8.00085" stroke-linejoin="round"/>
<path d="M428.567 598.456C427.9 569.119 428.167 506.446 434.567 490.444M450.57 574.453C452.57 570.453 452.57 478.443 468.572 460.441M480.573 548.45C487.24 518.447 503.775 454.84 516.577 440.439" stroke="{stroke_color}" stroke-width="4.00042" stroke-linecap="round" stroke-linejoin="round"/>
<path d="M390.313 642.46C393.646 579.787 392.713 449.64 362.31 430.438C360.309 435.105 357.909 447.64 364.31 460.441C350.975 439.105 319.905 395.634 302.303 392.434C303.32 400.063 307.674 414.908 317.495 425.783C299.991 410.77 272.42 385.257 248.297 380.433C250.298 402.435 264.699 415.236 274.3 418.437C268.966 421.104 258.298 428.038 258.298 434.438C262.966 438.439 271.9 450.04 270.3 464.441C268.3 482.443 264.299 510.446 270.3 534.449C275.1 553.651 292.302 578.454 300.303 588.455C301.866 585.849 303.918 580.229 302.448 574.843C308.702 587.237 320.392 607.376 330.306 614.457C331.64 613.124 333.506 609.257 330.306 604.456C344.974 619.791 377.511 648.861 390.313 642.46Z" fill="{wing_left_color}" stroke="{stroke_color}" stroke-width="8.00085" stroke-linejoin="round"/>
<path d="M376.062 598.456C376.729 569.119 376.462 506.446 370.061 490.444M354.059 574.453C352.058 570.453 352.058 478.443 336.057 460.441M324.055 548.45C317.388 518.447 300.853 454.84 288.052 440.439" stroke="{stroke_color}" stroke-width="4.00042" stroke-linecap="round" stroke-linejoin="round"/>
</svg>
