<svg width="800" height="800" viewBox="0 0 800 800" fill="none" xmlns="http://www.w3.org/2000/svg">
<path d="M415.497 379.999V515.999C444.297 506.398 468.83 478.666 477.497 466C488.163 450.667 511.497 416 519.497 400C527.497 384 528.163 365.333 527.497 358C535.497 343.6 542.209 331.333 538.875 324C548.875 311.999 554.297 277.999 541.497 261.999C528.697 245.999 502.209 262.667 490.875 276C470.875 280 459.497 298.665 451.497 311.999C437.097 316.799 421.497 359.332 415.497 379.999Z" fill="{wing_right_color}" stroke="{stroke_color}" stroke-width="2" stroke-linejoin="round"/>
<path d="M433.497 394C439.497 379.333 455.097 357.2 453.497 338M433.497 436C452.83 410.667 491.097 350 489.497 310M433.497 478C465.497 448 502.697 393.2 507.497 366" stroke="{stroke_color}" stroke-width="1.5" stroke-linecap="round" stroke-linejoin="round"/>
<path d="M385.497 379.999V515.999C356.697 506.398 332.163 478.666 323.497 466C312.83 450.667 289.497 416 281.497 400C273.497 384 272.83 365.333 273.497 358C265.497 343.6 258.784 331.333 262.118 324C252.118 311.999 246.697 277.999 259.497 261.999C272.297 245.999 298.784 262.667 310.118 276C330.118 280 341.497 298.665 349.497 311.999C363.897 316.799 379.497 359.332 385.497 379.999Z" fill="{wing_left_color}" stroke="{stroke_color}" stroke-width="2" stroke-linejoin="round"/>
<path d="M367.497 394C361.497 379.333 345.897 357.2 347.497 338M367.497 436C348.163 410.667 309.897 350 311.497 310M367.497 478C335.497 448 298.297 393.2 293.497 366" stroke="{stroke_color}" stroke-width="1.5" stroke-linecap="round" stroke-linejoin="round"/>
</svg>
