<svg width="801" height="801" viewBox="0 0 801 801" fill="none" xmlns="http://www.w3.org/2000/svg">
<path d="M338.308 428.549C394.314 462.153 393.647 577.232 386.313 630.571C366.311 630.571 338.308 618.569 310.305 580.565C285.461 546.849 258.299 474.554 270.301 406.547C251.099 400.146 244.965 370.543 244.298 356.542C256.299 382.544 268.3 386.545 338.308 428.549Z" fill="{wing_right_color}" stroke="{stroke_color}" stroke-width="8.00085" stroke-linejoin="round"/>
<path d="M372.312 598.566C369.645 559.896 359.111 478.954 338.309 464.552M350.31 578.564C348.31 555.228 341.509 504.957 330.308 490.555M326.307 568.563C325.641 556.562 322.707 530.959 316.306 524.559" stroke="{stroke_color}" stroke-width="6.00064" stroke-linecap="round" stroke-linejoin="round"/>
<path d="M463.821 428.55C407.815 462.153 408.482 577.232 415.816 630.571C435.818 630.571 463.821 618.57 491.824 580.566C516.667 546.85 543.829 474.554 531.828 406.547C551.03 400.147 557.164 370.543 557.831 356.542C545.829 382.545 533.828 386.545 463.821 428.55Z" fill="{wing_left_color}" stroke="{stroke_color}" stroke-width="8.00085" stroke-linejoin="round"/>
<path d="M432.318 598.567C434.984 559.896 445.519 478.954 466.321 464.553M454.32 578.565C456.32 555.229 463.121 504.957 474.322 490.555M478.322 568.564C478.989 556.562 481.923 530.96 488.323 524.559" stroke="{stroke_color}" stroke-width="6.00064" stroke-linecap="round" stroke-linejoin="round"/>
</svg>
