<svg width="801" height="801" viewBox="0 0 801 801" fill="none" xmlns="http://www.w3.org/2000/svg">
<path d="M416.316 520.761C416.316 458.028 466.108 406.925 528.328 404.816V636.773H472.322C441.39 636.773 416.316 611.698 416.316 580.767V520.761Z" fill="{wing_right_color}" stroke="{stroke_color}" stroke-width="8.00085"/>
<path d="M436.317 456.752L436.317 620.769" stroke="{stroke_color}" stroke-width="8.00085" stroke-linecap="round"/>
<path d="M460.319 432.752V632.773" stroke="{stroke_color}" stroke-width="8.00085" stroke-linecap="round"/>
<path d="M484.322 416.748L484.322 632.771" stroke="{stroke_color}" stroke-width="8.00085" stroke-linecap="round"/>
<path d="M506.324 408.748V634.772" stroke="{stroke_color}" stroke-width="8.00085" stroke-linecap="round"/>
<path d="M388.312 520.761C388.312 458.028 338.519 406.925 276.3 404.816V636.773H332.306C363.237 636.773 388.312 611.698 388.312 580.767V520.761Z" fill="{wing_left_color}" stroke="{stroke_color}" stroke-width="8.00085"/>
<path d="M368.309 456.752L368.309 620.769" stroke="{stroke_color}" stroke-width="8.00085" stroke-linecap="round"/>
<path d="M344.307 432.752V632.773" stroke="{stroke_color}" stroke-width="8.00085" stroke-linecap="round"/>
<path d="M320.305 416.748L320.305 632.771" stroke="{stroke_color}" stroke-width="8.00085" stroke-linecap="round"/>
<path d="M298.302 408.748V634.772" stroke="{stroke_color}" stroke-width="8.00085" stroke-linecap="round"/>
</svg>
