<svg width="801" height="801" viewBox="0 0 801 801" fill="none" xmlns="http://www.w3.org/2000/svg">
<rect x="0.271729" y="0.281006" width="800.085" height="800.085" fill="#D9D9D9"/>
<path d="M415.812 380.32V516.335C444.615 506.733 469.151 478.998 477.819 466.331C488.486 450.996 511.822 416.325 519.823 400.324C527.824 384.322 528.491 365.653 527.824 358.319C535.825 343.918 542.538 331.65 539.204 324.316C549.205 312.314 554.627 278.31 541.825 262.308C529.024 246.307 502.534 262.976 491.199 276.311C471.197 280.311 459.817 298.979 451.816 312.313C437.414 317.114 421.813 359.652 415.812 380.32Z" fill="{wing_right_color}" stroke="{stroke_color}" stroke-width="8.00085" stroke-linejoin="round"/>
<path d="M433.813 394.324C439.814 379.656 455.416 357.52 453.816 338.318M433.813 436.328C453.149 410.992 491.42 350.319 489.819 310.315M433.813 478.333C465.817 448.33 503.021 393.524 507.821 366.321" stroke="{stroke_color}" stroke-width="6.00064" stroke-linecap="round" stroke-linejoin="round"/>
<path d="M385.809 380.32V516.335C357.006 506.733 332.47 478.998 323.803 466.331C313.135 450.996 289.799 416.325 281.798 400.324C273.797 384.322 273.131 365.653 273.797 358.319C265.797 343.918 259.084 331.65 262.417 324.316C252.416 312.314 246.995 278.31 259.796 262.308C272.597 246.307 299.088 262.976 310.422 276.311C330.424 280.311 341.805 298.979 349.805 312.313C364.207 317.114 379.809 359.652 385.809 380.32Z" fill="{wing_left_color}" stroke="{stroke_color}" stroke-width="8.00085" stroke-linejoin="round"/>
<path d="M367.807 394.324C361.806 379.656 346.205 357.52 347.805 338.318M367.807 436.328C348.472 410.992 310.201 350.319 311.801 310.315M367.807 478.333C335.804 448.33 298.6 393.524 293.799 366.321" stroke="{stroke_color}" stroke-width="6.00064" stroke-linecap="round" stroke-linejoin="round"/>
</svg>
