<svg width="801" height="802" viewBox="0 0 801 802" fill="none" xmlns="http://www.w3.org/2000/svg">
<rect x="0.271729" y="0.94043" width="800.085" height="800.085" fill="#D9D9D9"/>
<path d="M530.935 473.239L532.245 405.249C504.631 407.46 479.223 418.692 459.267 436.009C445.738 447.75 434.73 462.275 427.248 478.655C420.235 494.004 416.315 510.989 416.315 528.861V542.999V598.12V637.232C427.548 633.097 438.227 627.893 448.223 621.745C460.396 614.259 471.557 605.373 481.473 595.311C495.218 581.367 506.572 565.166 514.919 547.306C522.024 532.105 526.954 515.698 529.326 498.45C530.452 490.261 531.002 481.881 530.935 473.348L530.934 473.293L530.935 473.239Z" fill="#525252" stroke="black" stroke-width="8.00085"/>
<path d="M273.691 473.24L272.382 405.25C299.995 407.461 325.404 418.693 345.359 436.01C358.889 447.751 369.896 462.276 377.379 478.656C384.391 494.005 388.311 510.99 388.311 528.862V543V598.121V637.233C377.078 633.098 366.4 627.894 356.403 621.746C344.23 614.26 333.07 605.374 323.153 595.312C309.409 581.368 298.055 565.167 289.707 547.307C282.602 532.106 277.672 515.699 275.3 498.451C274.174 490.262 273.624 481.882 273.692 473.349L273.692 473.294L273.691 473.24Z" fill="#A7A5A5" stroke="black" stroke-width="8.00085"/>
</svg>
