<svg width="801" height="801" viewBox="0 0 801 801" fill="none" xmlns="http://www.w3.org/2000/svg">
<rect x="0.271729" y="0.488281" width="800.085" height="800.085" fill="#D9D9D9"/>
<path d="M416.316 520.545C416.316 457.812 466.109 406.709 528.328 404.6V636.557H472.322C441.391 636.557 416.316 611.483 416.316 580.551V520.545Z" fill="#525252" stroke="black" stroke-width="8.00085"/>
<path d="M450.319 440.538C448.318 449.872 449.518 467.741 470.321 464.541C470.321 473.875 474.721 490.543 492.323 482.543C494.99 495.877 505.524 518.146 526.327 500.544" stroke="black" stroke-width="8.00085" stroke-linecap="round"/>
<path d="M424.316 480.545C422.316 489.879 433.517 521.749 454.319 518.549C454.319 527.883 470.321 548.552 488.323 544.552C488.323 552.553 505.525 580.155 526.328 562.554" stroke="black" stroke-width="8.00085" stroke-linecap="round"/>
<path d="M416.315 544.551C414.315 553.885 425.516 585.755 446.318 582.555C444.318 610.558 470.55 614.558 488.552 610.558C492.323 620.559 505.754 646.162 526.556 628.56" stroke="black" stroke-width="8.00085" stroke-linecap="round"/>
<path d="M388.312 520.545C388.312 457.812 338.519 406.709 276.3 404.6V636.557H332.306C363.237 636.557 388.312 611.483 388.312 580.551V520.545Z" fill="#A7A5A5" stroke="black" stroke-width="8.00085"/>
<path d="M354.308 440.538C356.308 449.872 355.108 467.741 334.306 464.541C334.306 473.875 329.905 490.543 312.303 482.543C309.636 495.877 299.102 518.146 278.3 500.544" stroke="black" stroke-width="8.00085" stroke-linecap="round"/>
<path d="M380.311 480.545C382.312 489.879 371.11 521.749 350.308 518.549C350.308 527.883 334.306 548.552 316.304 544.552C316.304 552.553 299.102 580.155 278.3 562.554" stroke="black" stroke-width="8.00085" stroke-linecap="round"/>
<path d="M388.311 544.551C390.311 553.885 379.11 585.755 358.308 582.555C360.308 610.558 334.076 614.558 316.074 610.558C312.303 620.559 298.872 646.162 278.07 628.56" stroke="black" stroke-width="8.00085" stroke-linecap="round"/>
</svg>
