<svg width="801" height="801" viewBox="0 0 801 801" fill="none" xmlns="http://www.w3.org/2000/svg">
<rect x="0.271729" y="0.268555" width="800.085" height="800.085" fill="#D9D9D9"/>
<path d="M368.31 568.329H338.879H305.446H272.3V684.262C325.68 682.162 368.31 638.225 368.31 584.33V568.329Z" fill="#A7A5A5" stroke="black" stroke-width="8.00085"/>
<path d="M388.312 524.325C388.312 517.055 387.644 509.945 386.367 503.052C383.204 485.983 376.303 470.223 366.542 456.654C345.475 427.369 311.113 408.313 272.3 408.313V640.338C336.372 640.338 388.312 588.397 388.312 524.325Z" fill="#A7A5A5" stroke="black" stroke-width="8.00085"/>
<path d="M274.3 468.32L289.816 483.836C294.503 488.523 302.101 488.523 306.788 483.836L319.819 470.806C324.506 466.119 332.105 466.119 336.791 470.806L349.822 483.836C354.509 488.523 362.108 488.523 366.795 483.836L376.31 474.321" stroke="black" stroke-width="8.00085" stroke-linecap="round"/>
<path d="M274.3 506.324L289.816 521.84C294.503 526.527 302.101 526.527 306.788 521.84L319.819 508.809C324.506 504.123 332.105 504.123 336.791 508.809L349.822 521.84C354.509 526.527 362.108 526.527 366.795 521.84L384.311 504.324" stroke="black" stroke-width="8.00085" stroke-linecap="round"/>
<path d="M274.3 546.329L289.816 561.845C294.503 566.532 302.101 566.532 306.788 561.845L319.819 548.814C324.506 544.128 332.105 544.128 336.791 548.814L349.822 561.845C354.509 566.532 362.108 566.532 366.795 561.845L384.311 544.329" stroke="black" stroke-width="8.00085" stroke-linecap="round"/>
<path d="M274.3 586.333L289.816 601.849C294.503 606.536 302.101 606.536 306.788 601.849L319.819 588.818C324.506 584.131 332.105 584.131 336.791 588.818L354.308 606.335" stroke="black" stroke-width="8.00085" stroke-linecap="round"/>
<path d="M436.318 568.329H465.749H499.182H532.328V684.262C478.948 682.162 436.318 638.225 436.318 584.33V568.329Z" fill="#525252" stroke="black" stroke-width="8.00085"/>
<path d="M416.316 524.325C416.316 517.055 416.984 509.945 418.261 503.052C421.424 485.983 428.325 470.223 438.086 456.654C459.153 427.369 493.515 408.313 532.328 408.313V640.338C468.256 640.338 416.316 588.397 416.316 524.325Z" fill="#525252" stroke="black" stroke-width="8.00085"/>
<path d="M530.328 468.32L514.811 483.836C510.124 488.523 502.526 488.523 497.839 483.836L484.808 470.806C480.121 466.119 472.522 466.119 467.836 470.806L454.805 483.836C450.118 488.523 442.519 488.523 437.832 483.836L428.317 474.321" stroke="black" stroke-width="8.00085" stroke-linecap="round"/>
<path d="M530.328 506.324L514.811 521.84C510.124 526.527 502.526 526.527 497.839 521.84L484.808 508.809C480.121 504.123 472.522 504.123 467.836 508.809L454.805 521.84C450.118 526.527 442.519 526.527 437.832 521.84L420.316 504.324" stroke="black" stroke-width="8.00085" stroke-linecap="round"/>
<path d="M530.328 546.329L514.811 561.845C510.124 566.532 502.526 566.532 497.839 561.845L484.808 548.814C480.121 544.128 472.522 544.128 467.836 548.814L454.805 561.845C450.118 566.532 442.519 566.532 437.832 561.845L420.316 544.329" stroke="black" stroke-width="8.00085" stroke-linecap="round"/>
<path d="M530.328 586.333L514.811 601.849C510.124 606.536 502.526 606.536 497.839 601.849L484.808 588.818C480.121 584.131 472.522 584.131 467.836 588.818L450.319 606.335" stroke="black" stroke-width="8.00085" stroke-linecap="round"/>
</svg>
