<svg width="801" height="801" viewBox="0 0 801 801" fill="none" xmlns="http://www.w3.org/2000/svg">
<rect x="0.271729" y="0.614258" width="800.085" height="800.085" fill="#D9D9D9"/>
<path d="M416.316 500.668V628.681C457.92 628.681 490.99 572.675 502.325 544.672C521.527 544.672 527.661 519.336 528.328 506.668C555.53 506.668 560.998 477.332 560.331 462.664C609.936 462.664 618.337 415.992 616.337 392.656H534.328C460.32 392.656 416.316 462.664 416.316 500.668Z" fill="#525252" stroke="black" stroke-width="8.00085" stroke-linejoin="round"/>
<path d="M436.392 582.677C435.058 542.006 451.193 460.665 526.401 460.665" stroke="black" stroke-width="6.00064" stroke-linecap="round" stroke-linejoin="round"/>
<path d="M512.399 504.667C496.397 508.668 464.394 528.67 464.394 576.675" stroke="black" stroke-width="6.00064" stroke-linecap="round" stroke-linejoin="round"/>
<path d="M384.578 500.668V628.681C342.974 628.681 309.904 572.675 298.569 544.672C279.367 544.672 273.233 519.336 272.566 506.668C245.363 506.668 239.896 477.332 240.563 462.664C190.958 462.664 182.557 415.992 184.557 392.656H266.566C340.573 392.656 384.578 462.664 384.578 500.668Z" fill="#A7A5A5" stroke="black" stroke-width="8.00085" stroke-linejoin="round"/>
<path d="M364.502 582.677C365.836 542.006 349.701 460.665 274.493 460.665" stroke="black" stroke-width="8.00085" stroke-linecap="round" stroke-linejoin="round"/>
<path d="M288.494 504.667C304.496 508.668 336.5 528.67 336.5 576.675" stroke="black" stroke-width="8.00085" stroke-linecap="round" stroke-linejoin="round"/>
</svg>
