<svg width="801" height="801" viewBox="0 0 801 801" fill="none" xmlns="http://www.w3.org/2000/svg">
<rect x="0.271729" y="0.0488281" width="800.085" height="800.085" fill="#D9D9D9"/>
<path d="M436.317 568.108H465.749H499.181H532.327V684.042C478.947 681.942 436.317 638.004 436.317 584.11V568.108Z" fill="#525252" stroke="black" stroke-width="8.00085"/>
<path d="M416.315 524.105C416.315 516.835 416.984 509.725 418.261 502.831C421.424 485.762 428.324 470.003 438.086 456.433C459.152 427.149 493.515 408.092 532.328 408.092V640.117C468.256 640.117 416.315 588.176 416.315 524.105Z" fill="#525252" stroke="black" stroke-width="8.00085"/>
<path d="M458.907 468.098V489.276" stroke="black" stroke-width="8.00085" stroke-linecap="round"/>
<path d="M458.907 559.871V581.05" stroke="black" stroke-width="8.00085" stroke-linecap="round"/>
<path d="M448.318 513.984V535.163" stroke="black" stroke-width="8.00085" stroke-linecap="round"/>
<path d="M483.616 468.098V489.276" stroke="black" stroke-width="8.00085" stroke-linecap="round"/>
<path d="M483.616 559.871V581.05" stroke="black" stroke-width="8.00085" stroke-linecap="round"/>
<path d="M473.027 513.984V535.163" stroke="black" stroke-width="8.00085" stroke-linecap="round"/>
<path d="M508.325 468.098V489.276" stroke="black" stroke-width="8.00085" stroke-linecap="round"/>
<path d="M508.325 559.871V581.05" stroke="black" stroke-width="8.00085" stroke-linecap="round"/>
<path d="M497.735 513.984V535.163" stroke="black" stroke-width="8.00085" stroke-linecap="round"/>
<path d="M368.31 568.108H338.879H305.447H272.3V684.042C325.68 681.942 368.31 638.004 368.31 584.11V568.108Z" fill="#A7A5A5" stroke="black" stroke-width="8.00085"/>
<path d="M388.312 524.105C388.312 516.835 387.644 509.725 386.366 502.831C383.204 485.762 376.303 470.003 366.541 456.433C345.475 427.149 311.113 408.092 272.299 408.092V640.117C336.371 640.117 388.312 588.176 388.312 524.105Z" fill="#A7A5A5" stroke="black" stroke-width="8.00085"/>
<path d="M345.72 468.098V489.276" stroke="black" stroke-width="8.00085" stroke-linecap="round"/>
<path d="M345.72 559.871V581.05" stroke="black" stroke-width="8.00085" stroke-linecap="round"/>
<path d="M356.309 513.984V535.163" stroke="black" stroke-width="8.00085" stroke-linecap="round"/>
<path d="M321.011 468.098V489.276" stroke="black" stroke-width="8.00085" stroke-linecap="round"/>
<path d="M321.011 559.871V581.05" stroke="black" stroke-width="8.00085" stroke-linecap="round"/>
<path d="M331.6 513.984V535.163" stroke="black" stroke-width="8.00085" stroke-linecap="round"/>
<path d="M296.302 468.098V489.276" stroke="black" stroke-width="8.00085" stroke-linecap="round"/>
<path d="M296.302 559.871V581.05" stroke="black" stroke-width="8.00085" stroke-linecap="round"/>
<path d="M306.892 513.984V535.163" stroke="black" stroke-width="8.00085" stroke-linecap="round"/>
</svg>
