<svg width="801" height="801" viewBox="0 0 801 801" fill="none" xmlns="http://www.w3.org/2000/svg">
<rect x="0.271729" y="0.0629883" width="800.085" height="800.085" fill="#D9D9D9"/>
<path d="M272.305 476.439V408.365C336.179 413.441 386.924 466.871 386.924 531.984V640.355C319.256 615.446 271.708 551.774 272.305 476.47L272.305 476.454V476.439Z" fill="#A7A5A5" stroke="black" stroke-width="8.00085"/>
<path d="M302.304 500.116C302.304 499.012 301.409 498.116 300.304 498.116C299.199 498.116 298.304 499.012 298.304 500.116H302.304ZM302.304 560.135V500.116H298.304V560.135H302.304Z" fill="black"/>
<path d="M332.307 540.12C332.307 539.016 331.412 538.12 330.307 538.12C329.203 538.12 328.307 539.016 328.307 540.12H332.307ZM332.307 596.126V540.12H328.307V596.126H332.307Z" fill="black"/>
<path d="M361.31 504.109C361.31 503.004 360.414 502.109 359.31 502.109C358.205 502.109 357.309 503.004 357.309 504.109H361.31ZM361.31 607.488V504.109H357.309V607.488H361.31Z" fill="black"/>
<path d="M530.936 476.362L532.246 408.372C468.298 413.489 416.316 466.954 416.316 531.984V640.355C483.984 615.446 531.533 551.774 530.935 476.47L530.935 476.416L530.936 476.362Z" fill="#525252" stroke="black" stroke-width="8.00085"/>
<path d="M500.936 500.116C500.936 499.012 501.832 498.116 502.937 498.116C504.041 498.116 504.937 499.012 504.937 500.116H500.936ZM500.936 560.135V500.116H504.937V560.135H500.936Z" fill="black"/>
<path d="M470.934 540.12C470.934 539.016 471.83 538.12 472.934 538.12C474.039 538.12 474.934 539.016 474.934 540.12H470.934ZM470.934 596.126V540.12H474.934V596.126H470.934Z" fill="black"/>
<path d="M441.931 504.109C441.931 503.004 442.827 502.109 443.931 502.109C445.036 502.109 445.932 503.004 445.932 504.109H441.931ZM441.931 607.488V504.109H445.932V607.488H441.931Z" fill="black"/>
</svg>
