<svg width="801" height="801" viewBox="0 0 801 801" fill="none" xmlns="http://www.w3.org/2000/svg">
<rect x="0.271729" y="0.15918" width="800.085" height="800.085" fill="#D9D9D9"/>
<path d="M436.318 568.219H465.75H499.182H532.328V684.153C478.948 682.053 436.318 638.115 436.318 584.221V568.219Z" fill="#525252" stroke="black" stroke-width="8.00085"/>
<path d="M416.316 524.216C416.316 516.946 416.984 509.836 418.261 502.942C421.424 485.873 428.325 470.114 438.086 456.545C459.153 427.26 493.515 408.204 532.328 408.204V640.228C468.256 640.228 416.316 588.288 416.316 524.216Z" fill="#525252" stroke="black" stroke-width="8.00085"/>
<path d="M368.309 568.219H338.877H305.445H272.299V684.153C325.679 682.053 368.309 638.115 368.309 584.221V568.219Z" fill="#A7A5A5" stroke="black" stroke-width="8.00085"/>
<path d="M388.312 524.216C388.312 516.946 387.644 509.836 386.366 502.942C383.204 485.873 376.303 470.114 366.541 456.545C345.475 427.26 311.113 408.204 272.3 408.204V640.228C336.371 640.228 388.312 588.288 388.312 524.216Z" fill="#A7A5A5" stroke="black" stroke-width="8.00085"/>
</svg>
