<svg width="801" height="801" viewBox="0 0 801 801" fill="none" xmlns="http://www.w3.org/2000/svg">
<rect x="0.271729" y="0.830078" width="800.085" height="800.085" fill="#D9D9D9"/>
<path d="M273.693 477.126L272.383 409.136C282.28 409.928 291.892 411.879 301.071 414.853C309.92 417.72 318.368 421.538 326.28 426.187C334.701 431.135 342.514 437.022 349.556 443.702C373.349 466.27 388.313 497.838 388.313 532.748V542.886V578.89V614.893V641.119C320.645 616.21 273.096 552.539 273.694 477.235L273.694 477.18L273.693 477.126Z" fill="#A7A5A5" stroke="black" stroke-width="8.00085"/>
<path d="M530.935 477.126L532.244 409.136C522.348 409.928 512.736 411.879 503.557 414.853C494.708 417.72 486.26 421.538 478.348 426.187C469.927 431.135 462.114 437.022 455.072 443.702C431.279 466.27 416.315 497.838 416.315 532.748V542.886V578.89V614.893V641.119C483.983 616.21 531.532 552.539 530.934 477.235L530.934 477.18L530.935 477.126Z" fill="#525252" stroke="black" stroke-width="8.00085"/>
</svg>
