<svg width="801" height="801" viewBox="0 0 801 801" fill="none" xmlns="http://www.w3.org/2000/svg">
<rect x="0.271729" y="0.720703" width="800.085" height="800.085" fill="#D9D9D9"/>
<path d="M436.318 568.781H465.75H499.182H532.329V684.714C478.949 682.615 436.318 638.677 436.318 584.782V568.781Z" fill="#A7A5A5" stroke="black" stroke-width="8.00085"/>
<path d="M416.316 524.776C416.316 460.705 468.257 408.764 532.328 408.764V640.789C468.257 640.789 416.316 588.848 416.316 524.776Z" fill="#525252" stroke="black" stroke-width="8.00085"/>
<path d="M456.32 520.776C456.32 477.93 489.999 442.951 532.328 440.866V608.688C489.999 606.603 456.32 571.623 456.32 528.777V520.776Z" fill="#A7A5A5" stroke="black" stroke-width="8.00085"/>
<path d="M368.309 568.781H338.877H305.445H272.299V684.714C325.679 682.615 368.309 638.677 368.309 584.782V568.781Z" fill="#525252" stroke="black" stroke-width="8.00085"/>
<path d="M388.312 524.776C388.312 460.705 336.371 408.764 272.3 408.764V640.789C336.371 640.789 388.312 588.848 388.312 524.776Z" fill="#A7A5A5" stroke="black" stroke-width="8.00085"/>
<path d="M348.308 520.776C348.308 477.93 314.629 442.951 272.3 440.866V608.688C314.629 606.603 348.308 571.623 348.308 528.777V520.776Z" fill="#525252" stroke="black" stroke-width="8.00085"/>
</svg>
