<svg width="34" height="34" viewBox="0 0 34 34" fill="none" xmlns="http://www.w3.org/2000/svg">
<g clip-path="url(#clip0_4032_47658)">
<path fill-rule="evenodd" clip-rule="evenodd" d="M8.77817 9.22183C4.4825 13.5175 4.4825 20.4825 8.77817 24.7782C13.0738 29.0738 20.0388 29.0738 24.3345 24.7782C28.6302 20.4825 28.6302 13.5175 24.3345 9.22183C20.0388 4.92615 13.0738 4.92615 8.77817 9.22183ZM20.0919 19.1213C20.2794 19.3089 20.3848 19.5632 20.3848 19.8284C20.3848 20.0936 20.2794 20.348 20.0919 20.5355C19.9043 20.7231 19.65 20.8284 19.3848 20.8284C19.1196 20.8284 18.8652 20.7231 18.6777 20.5355L16.5563 18.4142L14.435 20.5355C14.2475 20.7231 13.9931 20.8284 13.7279 20.8284C13.4627 20.8284 13.2084 20.7231 13.0208 20.5355C12.8333 20.348 12.7279 20.0936 12.7279 19.8284C12.7279 19.5632 12.8333 19.3089 13.0208 19.1213L15.1421 17L13.0208 14.8787C12.8333 14.6911 12.7279 14.4368 12.7279 14.1716C12.7279 13.9064 12.8333 13.652 13.0208 13.4645C13.2084 13.2769 13.4627 13.1716 13.7279 13.1716C13.9931 13.1716 14.2475 13.2769 14.435 13.4645L16.5563 15.5858L18.6777 13.4645C18.8652 13.2769 19.1196 13.1716 19.3848 13.1716C19.65 13.1716 19.9043 13.2769 20.0919 13.4645C20.2794 13.652 20.3848 13.9064 20.3848 14.1716C20.3848 14.4368 20.2794 14.6911 20.0919 14.8787L17.9706 17L20.0919 19.1213Z" fill="#92929D"/>
</g>
<defs>
<clipPath id="clip0_4032_47658">
<rect width="24" height="24" fill="white" transform="translate(0 16.9707) rotate(-45)"/>
</clipPath>
</defs>
</svg>
