<svg width="800" height="800" viewBox="0 0 800 800" fill="none" xmlns="http://www.w3.org/2000/svg">
<path d="M415.25 308C415.25 314.504 413.161 323.409 410.371 330.703C408.977 334.345 407.423 337.546 405.895 339.821C405.13 340.96 404.389 341.839 403.701 342.426C403.002 343.021 402.434 343.25 402 343.25C401.566 343.25 400.998 343.021 400.299 342.426C399.611 341.839 398.87 340.96 398.105 339.821C396.577 337.546 395.023 334.345 393.629 330.703C390.839 323.409 388.75 314.504 388.75 308C388.75 295.032 397.008 288.75 402 288.75C406.992 288.75 415.25 295.032 415.25 308Z" fill="{beak_color}" stroke="{stroke_color}" stroke-width="1.5"/>
</svg>
