<svg width="800" height="800" viewBox="0 0 800 800" fill="none" xmlns="http://www.w3.org/2000/svg">
<path d="M380.94 291.889C380.903 291.642 380.746 291.43 380.521 291.323C380.295 291.216 380.032 291.227 379.817 291.354C372.245 295.827 367.25 303.072 367.25 311.32C367.25 325.136 381.182 336.07 398 336.07C414.818 336.07 428.75 325.136 428.75 311.32C428.75 303.072 423.755 295.827 416.183 291.354C415.968 291.227 415.705 291.216 415.479 291.323C415.254 291.43 415.097 291.642 415.06 291.889C413.82 300.197 406.653 306.57 398 306.57C389.347 306.57 382.18 300.197 380.94 291.889Z" fill="{beak_color}" stroke="{stroke_color}" stroke-width="1.5" stroke-linejoin="round"/>
</svg>
